<svg width="100" height="100" viewBox="0 0 100 100" fill="none" xmlns="http://www.w3.org/2000/svg">
<path d="M62.7704 72.0168L64.1502 73.3189C63.4968 73.5512 62.7912 73.6964 62.0597 73.6351C61.7655 73.6108 61.5851 73.6788 61.3947 73.9204C59.281 76.6544 56.8115 78.9984 53.8724 80.8197C53.7353 80.9106 53.6198 81.0309 53.5341 81.172C52.417 82.9531 50.8743 84.2635 49.0714 85.2828C48.9426 85.3558 48.7015 85.3835 48.5926 85.3105C47.1854 84.37 45.8447 83.3222 45.0077 81.8197C44.5555 81.0085 43.9554 80.4506 43.2422 79.912C40.9498 78.1813 39.0779 76.0277 37.3557 73.7383C37.1454 73.4581 36.9708 73.4027 36.64 73.4959C35.7549 73.7608 34.8206 73.8129 33.912 73.6477C34.3209 73.0294 34.6784 72.438 35.0873 71.886C35.3624 71.5143 35.3591 71.2358 35.1289 70.8172C32.9002 66.7902 31.5179 62.3428 31.0685 57.7526C30.8873 55.9069 30.8781 54.0487 30.7958 52.1955C30.7036 50.12 30.4692 48.0705 29.6047 46.1552C29.0836 45.0009 28.3895 43.99 27.1452 43.4984C27.0621 43.4656 26.9723 43.2349 27.0081 43.1452C27.1228 42.8507 27.2516 42.5403 27.4561 42.3062C27.6606 42.0722 27.6714 41.849 27.6705 41.5512C27.6664 40.4606 27.6705 39.37 27.7611 38.2886C27.8954 36.886 27.9553 35.4771 27.9407 34.068C27.8983 31.7945 28.1019 29.5143 29.0719 27.4405C29.5723 26.3624 30.3769 25.4094 31.1408 24.4765C32.8738 22.365 34.9834 20.7416 37.541 19.7433C37.6795 19.6913 37.7991 19.5983 37.8843 19.4765C38.5401 18.3859 39.5608 17.8826 40.7544 17.6905C41.0129 17.6477 41.1742 17.5587 41.3122 17.3356C41.8433 16.474 42.5872 16.0655 43.6212 16.2097C44.1939 16.2936 44.6877 16.1024 45.1107 15.6493C45.8946 14.8104 46.9668 14.521 48.0291 14.2458C48.4164 14.146 48.8195 14.1124 49.2094 14.0201C49.5269 13.9455 49.6092 14.0822 49.5975 14.3658C49.5892 14.5881 49.5975 14.8104 49.5975 15.1208C49.7721 15.0118 49.8893 14.9295 50.0131 14.8616C50.3539 14.6779 50.6897 14.4824 51.043 14.3264C51.2342 14.2425 51.3855 14.2769 51.4636 14.5537C51.8684 15.9983 52.5441 16.6292 54.0037 16.7165C56.8364 16.8842 59.3143 17.9648 61.61 19.5604C63.7053 21.0038 65.6579 22.6476 67.4409 24.469C69.208 26.2903 70.1705 28.5277 70.37 31.0629C70.4723 32.3549 70.4166 33.6594 70.4598 34.9572C70.4698 35.2333 70.6177 35.5017 70.6742 35.7794C70.833 36.568 71.0283 37.3541 71.1148 38.1519C71.2045 38.9824 71.173 39.8297 71.222 40.6628C71.2311 40.8171 71.345 40.9874 71.4556 41.1083C71.6093 41.276 71.8072 41.4044 72 41.5613C69.8688 42.7861 69.2363 44.9078 68.6536 47.0235C67.9886 49.4279 67.7675 51.9044 67.6188 54.3901C67.4409 57.3843 67.3312 60.386 66.5581 63.3155C65.7885 66.2282 64.6514 68.9715 63.0671 71.5269C63.0014 71.6326 62.9391 71.74 62.8743 71.8465L62.7704 72.0168ZM61.9749 61.9027L62.058 61.8331C62.5302 62.0999 63.0031 62.3658 63.5608 62.6796C63.3755 61.8205 63.2109 61.0563 63.0463 60.2912L63.1436 60.2316L64.4253 61.3155C64.5408 58.1099 65.1335 55.0814 65.8042 52.0655C65.9979 51.193 66.2722 50.3323 66.3911 49.4505C66.736 46.943 66.8841 44.412 66.8341 41.8809C66.8058 40.5948 66.8075 39.271 66.3046 38.0814C65.9065 37.1393 65.7752 36.1972 65.7336 35.2106C65.7336 35.1544 65.7245 35.099 65.7186 35.0428C65.0096 27.4396 59.7498 23.4656 54.2481 22.1947C54.1607 22.1841 54.072 22.1937 53.9888 22.2228C53.9055 22.2518 53.8299 22.2996 53.7677 22.3624C52.9913 23.3238 52.0147 24.0176 50.9341 24.5764C50.8292 24.6201 50.7207 24.6546 50.6099 24.6796L50.4894 24.1762C50.1403 24.5118 49.8486 24.8322 49.5119 25.094C49.3557 25.2148 49.0789 25.3171 48.9118 25.2618C47.1663 24.6812 45.5621 23.8557 44.3593 22.3943C44.2147 22.2181 44.0975 22.1133 43.844 22.1754C39.9806 23.1166 36.7672 25.0462 34.5537 28.4556C32.9653 30.9027 32.3502 33.646 32.2804 36.5378C32.2754 36.7291 32.2804 36.9514 32.1881 37.1049C31.6503 38.0135 31.4841 39.016 31.3768 40.0344C31.135 42.3239 31.248 44.6125 31.4267 46.9002C31.5432 48.3479 31.7551 49.7863 32.0609 51.2056C32.6087 53.7861 33.0442 56.391 33.4906 58.9925C33.6169 59.7282 33.6186 60.4849 33.6843 61.3079L34.9377 60.2811L35.03 60.3566C34.8695 61.0848 34.7091 61.813 34.5312 62.6301C34.9385 62.2794 35.2793 61.9908 35.6118 61.7014L35.7066 61.7752C35.5403 62.6762 35.3674 63.5772 35.1763 64.5949L36.128 63.8323L36.2227 63.9044C36.113 64.9019 36.0033 65.8985 35.8853 66.969L37.3623 65.7761L37.4629 65.8306L36.8603 68.7719L37.0481 68.5068C39.1062 65.5605 41.5939 63.0999 44.8315 61.485C44.9292 61.4335 45.0195 61.3689 45.0999 61.2928C45.6377 60.7987 46.2819 60.5294 46.9768 60.3549C47.2062 60.297 47.3533 60.3415 47.5121 60.5353C47.6362 60.6736 47.8075 60.7593 47.9917 60.7752C48.6001 60.8029 49.211 60.7954 49.8203 60.7752C49.9583 60.7752 50.1628 60.7224 50.2185 60.6251C50.4528 60.2157 50.7787 60.2308 51.1444 60.3608C51.5101 60.4908 51.9199 60.5957 52.2649 60.7895C52.6846 61.0252 53.0645 61.3356 53.4526 61.6284C54.8956 62.7115 56.3726 63.7526 57.7641 64.9002C59.074 65.9799 60.1878 67.2677 61.2285 68.7668L60.5719 65.5395L60.6799 65.4891L62.0655 66.8113L62.1279 66.766C61.8746 65.7593 61.6208 64.7526 61.3665 63.7459L61.4637 63.6678L62.8984 64.6141C62.5609 63.6259 62.2675 62.7635 61.9749 61.9027ZM55.2115 74.8532C55.3004 74.7383 55.406 74.6125 55.5015 74.4791C56.3156 73.3281 56.9292 72.0455 57.3161 70.6863C57.405 70.3834 57.3759 70.1586 57.1631 69.9237C56.5813 69.2845 56.0443 68.6074 55.4483 67.985C53.7236 66.1846 51.7994 64.6452 49.5743 63.5076C49.2119 63.3222 48.9035 63.3046 48.5245 63.4875C45.3476 65.021 42.7734 67.2937 40.584 70.0386C40.4818 70.167 40.4652 70.438 40.5192 70.6066C40.9941 72.1023 41.7399 73.4962 42.7185 74.7173C42.8183 74.8415 42.9297 74.9556 43.0169 75.0529L44.8456 73.4044L44.9611 73.4925V75.5118C45.0575 75.4833 45.0858 75.4539 45.0966 75.4187C45.7549 73.3214 47.1214 71.761 48.7988 70.4313C49.0606 70.2232 49.2701 70.1796 49.5103 70.438C50.2317 71.2073 51.0014 71.9355 51.6714 72.7492C52.3862 73.6225 52.8243 74.6636 53.0986 75.7694L53.2083 75.7584C53.2581 74.8944 53.3072 74.0303 53.3637 73.0437L55.2115 74.8532Z" fill="#7C7C7C"/>
<path d="M52.4207 45.7811C52.5645 45.4606 52.67 45.115 52.8579 44.8247C54.6865 42.0051 57.2233 40.4564 60.6179 40.6779C62.2845 40.7869 63.4789 41.7727 64.2686 43.2484C64.2837 43.3095 64.2913 43.3724 64.291 43.4354C64.0915 43.4354 63.9003 43.469 63.7258 43.4287C63.2819 43.3264 62.8289 43.2333 62.4092 43.0613C60.0959 42.115 57.8916 42.4522 55.7937 43.6703C54.7771 44.2576 53.8345 44.9816 52.857 45.6427C52.7481 45.7165 52.6351 45.7836 52.5246 45.8541L52.4207 45.7811Z" fill="#7C7C7C"/>
<path d="M34.3176 44.15C34.4282 43.9218 34.4839 43.7834 34.5578 43.6592C35.4913 42.1164 36.886 41.3488 38.644 41.2448C41.3529 41.0904 43.6719 42.0191 45.5745 43.9604C45.9993 44.3941 46.3085 44.9436 46.6709 45.4394L46.5504 45.5678C46.4099 45.5015 46.2678 45.4386 46.129 45.369C45.0318 44.8144 43.9512 44.2012 42.82 43.7146C40.6422 42.7767 38.4329 42.7918 36.2286 43.6752C35.8421 43.8279 35.4482 43.9603 35.0483 44.072C34.8463 44.1282 34.6268 44.1173 34.3176 44.15Z" fill="#7C7C7C"/>
</svg>
