<svg width="30" height="30" viewBox="0 0 30 30" fill="none" xmlns="http://www.w3.org/2000/svg">
<path d="M0 0H29.9255V16.1949L28.4443 18.5151L29.9255 20.58V30H0V14.7332L0.92577 13.6659L0 12.645V0Z" fill="#016FD0"/>
<path d="M5.8092 20.9053V16.1953H10.7838L11.3175 16.8928L11.8689 16.1953H29.9255V20.5805C29.9255 20.5805 29.4533 20.9006 28.9072 20.9053H18.9088L18.3071 20.1628V20.9053H16.3352V19.6379C16.3352 19.6379 16.0658 19.8148 15.4835 19.8148H14.8123V20.9053H11.8267L11.2937 20.1928L10.7526 20.9053H5.8092Z" fill="white"/>
<path d="M0 12.6452L1.12179 10.0234H3.06182L3.69845 11.4921V10.0234H6.11008L6.48907 11.0849L6.85648 10.0234H17.6822V10.5571C17.6822 10.5571 18.2513 10.0234 19.1866 10.0234L22.6991 10.0357L23.3248 11.4852V10.0234H25.3429L25.8984 10.856V10.0234H27.9351V14.7334H25.8984L25.3661 13.8981V14.7334H22.4009L22.1028 13.9909H21.3056L21.0123 14.7334H19.0014C18.1966 14.7334 17.6822 14.2107 17.6822 14.2107V14.7334H14.6503L14.0486 13.9909V14.7334H2.77442L2.47643 13.9909H1.68184L1.38597 14.7334H0V12.6452Z" fill="white"/>
<path d="M1.51885 10.6035L0.00579834 14.1302H0.990875L1.27005 13.424H2.89304L3.17077 14.1302H4.17755L2.66594 10.6035H1.51885ZM2.07865 11.4243L2.57336 12.6583H1.5825L2.07865 11.4243V11.4243Z" fill="#016FD0"/>
<path d="M4.28174 14.1302V10.6035L5.68158 10.6087L6.49578 12.8825L7.29048 10.6035H8.67913V14.1302H7.79965V11.5316L6.86739 14.1302H6.09608L5.16122 11.5316V14.1302H4.28174Z" fill="#016FD0"/>
<path d="M9.28088 14.1302V10.6035H12.1508V11.3924H10.1696V11.9956H12.1045V12.7381H10.1696V13.3645H12.1508V14.1302H9.28088Z" fill="#016FD0"/>
<path d="M12.6599 10.6035V14.1302H13.5393V12.8773H13.9096L14.9642 14.1302H16.0389L14.8817 12.8309C15.3566 12.7907 15.8465 12.3821 15.8465 11.7477C15.8465 11.0055 15.2655 10.6035 14.617 10.6035H12.6599V10.6035ZM13.5393 11.3924H14.5447C14.7858 11.3924 14.9613 11.5815 14.9613 11.7636C14.9613 11.9979 14.734 12.1348 14.5577 12.1348H13.5393V11.3924V11.3924Z" fill="#016FD0"/>
<path d="M17.1036 14.1302H16.2056V10.6035H17.1036V14.1302Z" fill="#016FD0"/>
<path d="M19.2328 14.1302H19.039C18.1012 14.1302 17.5317 13.3895 17.5317 12.3814C17.5317 11.3483 18.0948 10.6035 19.2791 10.6035H20.2512V11.4388H19.2436C18.7628 11.4388 18.4228 11.8149 18.4228 12.3901C18.4228 13.073 18.8116 13.3599 19.3717 13.3599H19.6032L19.2328 14.1302Z" fill="#016FD0"/>
<path d="M21.1466 10.6035L19.6335 14.1302H20.6186L20.8978 13.424H22.5208L22.7985 14.1302H23.8053L22.2937 10.6035H21.1466ZM21.7064 11.4243L22.2011 12.6583H21.2102L21.7064 11.4243Z" fill="#016FD0"/>
<path d="M23.908 14.1302V10.6035H25.0262L26.4539 12.8193V10.6035H27.3334V14.1302H26.2514L24.7875 11.8564V14.1302H23.908Z" fill="#016FD0"/>
<path d="M6.41095 20.3011V16.7744H9.28084V17.5633H7.29969V18.1665H9.23455V18.909H7.29969V19.5354H9.28084V20.3011H6.41095Z" fill="#016FD0"/>
<path d="M20.4734 20.3011V16.7744H23.3433V17.5633H21.3621V18.1665H23.2877V18.909H21.3621V19.5354H23.3433V20.3011H20.4734Z" fill="#016FD0"/>
<path d="M9.39222 20.3011L10.7896 18.5595L9.35895 16.7744H10.467L11.319 17.878L12.1739 16.7744H13.2385L11.8267 18.5378L13.2266 20.3011H12.1188L11.2915 19.215L10.4843 20.3011H9.39222Z" fill="#016FD0"/>
<path d="M13.3311 16.7754V20.3021H14.2337V19.1884H15.1594C15.9428 19.1884 16.5365 18.7718 16.5365 17.9616C16.5365 17.2904 16.0709 16.7754 15.2737 16.7754H13.3311V16.7754ZM14.2337 17.573H15.2086C15.4617 17.573 15.6426 17.7284 15.6426 17.979C15.6426 18.2144 15.4626 18.385 15.2057 18.385H14.2337V17.573Z" fill="#016FD0"/>
<path d="M16.9185 16.7744V20.3011H17.7979V19.0482H18.1682L19.2228 20.3011H20.2975L19.1403 19.0018C19.6152 18.9616 20.1051 18.553 20.1051 17.9186C20.1051 17.1764 19.5241 16.7744 18.8756 16.7744H16.9185V16.7744ZM17.7979 17.5633H18.8033C19.0444 17.5633 19.2199 17.7524 19.2199 17.9345C19.2199 18.1688 18.9926 18.3057 18.8163 18.3057H17.7979V17.5633V17.5633Z" fill="#016FD0"/>
<path d="M23.7506 20.3011V19.5354H25.5108C25.7712 19.5354 25.884 19.3943 25.884 19.2396C25.884 19.0914 25.7716 18.9415 25.5108 18.9415H24.7154C24.024 18.9415 23.639 18.5192 23.639 17.8852C23.639 17.3197 23.9916 16.7744 25.019 16.7744H26.7316L26.3613 17.5679H24.8801C24.5969 17.5679 24.5098 17.7169 24.5098 17.8591C24.5098 18.0053 24.6175 18.1665 24.8338 18.1665H25.667C26.4377 18.1665 26.7721 18.6048 26.7721 19.1787C26.7721 19.7957 26.3995 20.3011 25.625 20.3011H23.7506Z" fill="#016FD0"/>
<path d="M26.9785 20.3011V19.5354H28.7386C28.999 19.5354 29.1118 19.3943 29.1118 19.2396C29.1118 19.0914 28.9994 18.9415 28.7386 18.9415H27.9432C27.2519 18.9415 26.8668 18.5192 26.8668 17.8852C26.8668 17.3197 27.2194 16.7744 28.2468 16.7744H29.9595L29.5892 17.5679H28.1079C27.8248 17.5679 27.7376 17.7169 27.7376 17.8591C27.7376 18.0053 27.8453 18.1665 28.0616 18.1665H28.8948C29.6655 18.1665 30 18.6048 30 19.1787C30 19.7957 29.6273 20.3011 28.8529 20.3011H26.9785Z" fill="#016FD0"/>
</svg>
