<svg width="42" height="30" viewBox="0 0 42 30" fill="none" xmlns="http://www.w3.org/2000/svg">
<path d="M42 26C42 28.2 40.2 30 38 30H4C1.8 30 0 28.2 0 26V4C0 1.8 1.8 0 4 0H38C40.2 0 42 1.8 42 4V26Z" fill="#F5F5F5"/>
<path d="M42 26C42 28.2 40.2 30 38 30H13C13 30 36.6 26.2 42 15V26ZM19 15C19 16.7 20.3 18 22 18C23.7 18 25 16.7 25 15C25 13.3 23.7 12 22 12C20.3 12 19 13.3 19 15Z" fill="#FF6D00"/>
<path d="M8.2 12.0004H9.3V18.0004H8.2V12.0004ZM14.2 15.0004C14.2 16.7004 15.5 18.0004 17.2 18.0004C17.7 18.0004 18.1 17.9004 18.6 17.7004V16.4004C18.2 16.8004 17.8 17.0004 17.2 17.0004C16.1 17.0004 15.3 16.2004 15.3 15.0004C15.3 13.9004 16.1 13.0004 17.2 13.0004C17.7 13.0004 18.1 13.2004 18.6 13.6004V12.3004C18.1 12.1004 17.7 11.9004 17.2 11.9004C15.5 12.0004 14.2 13.4004 14.2 15.0004ZM27.6 15.9004L26 12.0004H24.8L27.3 18.0004H27.9L30.4 12.0004H29.2L27.6 15.9004ZM30.9 18.0004H34.1V17.0004H32V15.4004H34V14.4004H32V13.0004H34.1V12.0004H30.9V18.0004ZM38.5 13.8004C38.5 12.7004 37.8 12.0004 36.5 12.0004H34.8V18.0004H35.9V15.6004H36L37.6 18.0004H39L37.2 15.5004C38 15.3004 38.5 14.7004 38.5 13.8004ZM36.2 14.8004H35.9V13.0004H36.2C36.9 13.0004 37.3 13.3004 37.3 13.9004C37.3 14.4004 37 14.8004 36.2 14.8004ZM4.7 12.0004H3V18.0004H4.6C7.1 18.0004 7.7 15.9004 7.7 15.0004C7.8 13.2004 6.5 12.0004 4.7 12.0004ZM4.4 17.0004H4.1V13.0004H4.5C6 13.0004 6.6 14.0004 6.6 15.0004C6.6 15.4004 6.5 17.0004 4.4 17.0004ZM12.3 14.3004C11.6 14.0004 11.4 13.9004 11.4 13.6004C11.4 13.2004 11.8 13.0004 12.2 13.0004C12.5 13.0004 12.8 13.1004 13.1 13.5004L13.7 12.7004C13.2 12.2004 12.7 12.0004 12 12.0004C11 12.0004 10.2 12.7004 10.2 13.7004C10.2 14.5004 10.6 14.9004 11.6 15.3004C12.2 15.5004 12.7 15.7004 12.7 16.2004C12.7 16.7004 12.3 17.0004 11.8 17.0004C11.3 17.0004 10.8 16.7004 10.6 16.2004L9.9 16.9004C10.4 17.7004 11 18.0004 11.9 18.0004C13.1 18.0004 13.9 17.2004 13.9 16.1004C13.9 15.2004 13.5 14.8004 12.3 14.3004Z" fill="black"/>
</svg>
