<svg width="39" height="30" viewBox="0 0 39 30" fill="none" xmlns="http://www.w3.org/2000/svg">
<path d="M11.7967 29.7499V27.7719C11.8084 27.606 11.7841 27.4395 11.7256 27.2836C11.6671 27.1276 11.5757 26.9858 11.4574 26.8676C11.3391 26.7494 11.1967 26.6574 11.0397 26.5979C10.8826 26.5384 10.7146 26.5127 10.5467 26.5224C10.3264 26.5081 10.1062 26.5526 9.90922 26.6512C9.71221 26.7498 9.54558 26.8989 9.42671 27.0829C9.31835 26.9044 9.1633 26.7581 8.97792 26.6595C8.79253 26.5608 8.58368 26.5135 8.37337 26.5224C8.19004 26.5133 8.00747 26.5516 7.84376 26.6338C7.68005 26.7159 7.54087 26.8389 7.44003 26.9906V26.6016H6.7467V29.7499H7.44671V28.006C7.4312 27.8981 7.44012 27.7881 7.47285 27.6841C7.50558 27.58 7.56128 27.4845 7.63594 27.4043C7.71059 27.3242 7.80232 27.2615 7.90449 27.2207C8.00666 27.1799 8.11672 27.1621 8.2267 27.1686C8.6867 27.1686 8.92003 27.4653 8.92003 27.9994V29.7499H9.62004V28.006C9.60575 27.8983 9.61555 27.7888 9.64873 27.6853C9.68191 27.5818 9.73767 27.4867 9.81206 27.4069C9.88646 27.327 9.97768 27.2643 10.0793 27.2231C10.1809 27.1819 10.2904 27.1633 10.4 27.1686C10.8734 27.1686 11.1 27.4653 11.1 27.9994V29.7499H11.7967ZM15.6967 28.1774V26.6049H14.9967V26.9873C14.8791 26.8372 14.7271 26.7171 14.5532 26.6368C14.3793 26.5565 14.1885 26.5185 13.9967 26.5257C13.5547 26.5257 13.1307 26.6994 12.8182 27.0085C12.5056 27.3176 12.33 27.7369 12.33 28.1741C12.33 28.6113 12.5056 29.0305 12.8182 29.3396C13.1307 29.6488 13.5547 29.8224 13.9967 29.8224C14.1885 29.8297 14.3793 29.7916 14.5532 29.7113C14.7271 29.6311 14.8791 29.5109 14.9967 29.3609V29.7433H15.69L15.6967 28.1774ZM13.12 28.1774C13.1311 27.9919 13.1968 27.8136 13.309 27.6645C13.4212 27.5155 13.575 27.4021 13.7515 27.3384C13.928 27.2747 14.1195 27.2635 14.3024 27.306C14.4853 27.3486 14.6517 27.4432 14.7809 27.5781C14.9102 27.7129 14.9967 27.8823 15.0299 28.0652C15.0631 28.2481 15.0414 28.4366 14.9677 28.6075C14.8939 28.7785 14.7712 28.9243 14.6146 29.0271C14.4581 29.1299 14.2746 29.1852 14.0867 29.1862C13.954 29.1892 13.8222 29.1649 13.6995 29.1147C13.5769 29.0644 13.4663 28.9894 13.3746 28.8945C13.283 28.7995 13.2125 28.6867 13.1675 28.5632C13.1225 28.4397 13.1041 28.3083 13.1134 28.1774H13.12ZM30.51 26.529C30.7383 26.5284 30.9646 26.571 31.1767 26.6543C31.3792 26.7345 31.5638 26.8532 31.72 27.0037C31.8743 27.1529 31.9967 27.3312 32.08 27.5279C32.2542 27.9506 32.2542 28.4239 32.08 28.8466C31.9968 29.0434 31.8743 29.2217 31.72 29.3708C31.5638 29.5213 31.3792 29.64 31.1767 29.7202C30.7372 29.8892 30.2496 29.8892 29.81 29.7202C29.6085 29.6401 29.425 29.5214 29.27 29.3708C29.1173 29.2211 28.9961 29.0429 28.9134 28.8466C28.7396 28.4239 28.7396 27.9507 28.9134 27.5279C28.9961 27.3316 29.1173 27.1534 29.27 27.0037C29.425 26.8532 29.6085 26.7344 29.81 26.6543C30.0298 26.5642 30.2655 26.5183 30.5034 26.5191L30.51 26.529ZM30.51 27.1884C30.3743 27.1865 30.2395 27.2112 30.1134 27.2609C29.9946 27.308 29.8868 27.3787 29.7967 27.4686C29.7048 27.5632 29.6333 27.6754 29.5867 27.7983C29.4849 28.0615 29.4849 28.3526 29.5867 28.6158C29.6332 28.7387 29.7047 28.8509 29.7967 28.9455C29.8867 29.0355 29.9945 29.1062 30.1134 29.1532C30.3673 29.2515 30.6494 29.2515 30.9034 29.1532C31.0279 29.1077 31.1414 29.0369 31.2367 28.9455C31.3288 28.851 31.4003 28.7388 31.4467 28.6158C31.5485 28.3526 31.5485 28.0615 31.4467 27.7983C31.4003 27.6753 31.3288 27.5631 31.2367 27.4686C31.1414 27.3772 31.0279 27.3064 30.9034 27.2609C30.7776 27.204 30.6416 27.1726 30.5034 27.1686L30.51 27.1884ZM19.4634 28.1774C19.4634 27.1884 18.8434 26.529 17.9534 26.529C17.5113 26.5351 17.0899 26.7147 16.7817 27.0281C16.4735 27.3416 16.3038 27.7633 16.31 28.2005C16.3162 28.6376 16.4977 29.0545 16.8147 29.3593C17.1316 29.6641 17.558 29.8319 18 29.8257C18.4746 29.8418 18.9385 29.6845 19.3034 29.384L18.97 28.8763C18.7068 29.0851 18.3807 29.2011 18.0434 29.2059C17.8142 29.2254 17.5864 29.1557 17.4083 29.0117C17.2303 28.8676 17.1161 28.6606 17.09 28.4345H19.4534C19.4634 28.3521 19.4634 28.2697 19.4634 28.1774ZM17.0934 27.9005C17.1062 27.6912 17.2006 27.495 17.3566 27.353C17.5126 27.211 17.7181 27.1343 17.93 27.1389C18.0338 27.1367 18.137 27.1548 18.2337 27.192C18.3303 27.2293 18.4187 27.285 18.4936 27.356C18.5685 27.4271 18.6285 27.512 18.6702 27.606C18.712 27.7 18.7345 27.8011 18.7367 27.9038L17.0934 27.9005ZM22.38 27.4059C22.0756 27.2326 21.7313 27.1395 21.38 27.1356C21 27.1356 20.7734 27.2741 20.7734 27.5048C20.7734 27.7356 21.0134 27.7752 21.3134 27.8147L21.6467 27.8609C22.34 27.9598 22.76 28.2499 22.76 28.8037C22.76 29.3576 22.2267 29.8323 21.31 29.8323C20.8187 29.8453 20.3362 29.702 19.9334 29.4235L20.2667 28.8895C20.5726 29.1139 20.946 29.23 21.3267 29.2191C21.8 29.2191 22.0534 29.0807 22.0534 28.8367C22.0534 28.6587 21.8734 28.5598 21.4934 28.507L21.16 28.4609C20.4467 28.362 20.06 28.0455 20.06 27.5312C20.06 26.9049 20.58 26.5224 21.3934 26.5224C21.8486 26.5073 22.2986 26.6218 22.69 26.8521L22.38 27.4059ZM25.7134 27.2279H24.5834V28.6488C24.5834 28.9785 24.6967 29.1763 25.0434 29.1763C25.2597 29.1692 25.4708 29.1079 25.6567 28.9983L25.8567 29.5851C25.5968 29.7455 25.2964 29.83 24.99 29.829C24.17 29.829 23.8834 29.3939 23.8834 28.662V27.2279H23.2367V26.6016H23.8834V25.6455H24.5834V26.6016H25.7134V27.2279ZM28.11 26.5224C28.2782 26.5231 28.445 26.5521 28.6034 26.6082L28.39 27.2675C28.2523 27.2132 28.105 27.1863 27.9567 27.1884C27.5034 27.1884 27.29 27.4785 27.29 27.9994V29.7631H26.5967V26.6147H27.2834V26.9972C27.3684 26.8526 27.4914 26.7334 27.6392 26.6522C27.7871 26.571 27.9543 26.5307 28.1234 26.5356L28.11 26.5224ZM32.9034 29.2917C32.9467 29.2911 32.9897 29.299 33.03 29.3147C33.0683 29.3302 33.1034 29.3525 33.1334 29.3807C33.1627 29.4091 33.1864 29.4426 33.2034 29.4796C33.2202 29.5181 33.229 29.5596 33.229 29.6016C33.229 29.6435 33.2202 29.685 33.2034 29.7235C33.1864 29.7605 33.1627 29.794 33.1334 29.8224C33.1034 29.8506 33.0683 29.8729 33.03 29.8884C32.9901 29.9058 32.947 29.9148 32.9034 29.9147C32.8402 29.9143 32.7784 29.896 32.7253 29.8622C32.6722 29.8283 32.6299 29.7802 32.6034 29.7235C32.5867 29.685 32.5781 29.6435 32.5781 29.6016C32.5781 29.5596 32.5867 29.5181 32.6034 29.4796C32.6203 29.4426 32.6441 29.4091 32.6734 29.3807C32.7034 29.3525 32.7384 29.3302 32.7767 29.3147C32.8118 29.3009 32.849 29.2931 32.8867 29.2917H32.9034ZM32.9034 29.8488C32.9366 29.849 32.9696 29.8423 33 29.829C33.0287 29.8164 33.0547 29.7985 33.0767 29.7763C33.105 29.7481 33.1259 29.7136 33.1376 29.6756C33.1493 29.6377 33.1515 29.5974 33.1439 29.5585C33.1364 29.5195 33.1193 29.4829 33.0942 29.452C33.0692 29.421 33.0368 29.3965 33 29.3807C32.9695 29.3675 32.9366 29.3608 32.9034 29.3609C32.8701 29.3611 32.8373 29.3678 32.8067 29.3807C32.7767 29.3928 32.7496 29.4108 32.7267 29.4334C32.685 29.4784 32.6619 29.5372 32.6619 29.5983C32.6619 29.6593 32.685 29.7181 32.7267 29.7631C32.7498 29.7862 32.7773 29.8045 32.8076 29.817C32.838 29.8294 32.8705 29.8358 32.9034 29.8356V29.8488ZM32.9234 29.4565C32.9545 29.455 32.9851 29.4643 33.01 29.4829C33.0202 29.4912 33.0283 29.5019 33.0335 29.5139C33.0387 29.5259 33.041 29.539 33.04 29.5521C33.0405 29.5631 33.0387 29.574 33.0347 29.5842C33.0306 29.5944 33.0245 29.6037 33.0167 29.6114C32.9974 29.6288 32.9727 29.6392 32.9467 29.6411L33.0434 29.7499H32.9667L32.8767 29.6411H32.8467V29.7499H32.7834V29.4466L32.9234 29.4565ZM32.85 29.5125V29.5917H32.9234C32.9364 29.5955 32.9503 29.5955 32.9634 29.5917C32.9657 29.5871 32.9669 29.582 32.9669 29.5768C32.9669 29.5717 32.9657 29.5666 32.9634 29.562C32.9657 29.5574 32.9669 29.5523 32.9669 29.5472C32.9669 29.542 32.9657 29.5369 32.9634 29.5323C32.9503 29.5285 32.9364 29.5285 32.9234 29.5323L32.85 29.5125Z" fill="black"/>
<path d="M24.7134 2.58105H14.2134V21.2437H24.7134V2.58105Z" fill="#7673C0"/>
<path d="M14.8801 11.9157C14.8782 10.1181 15.2898 8.34361 16.0839 6.72664C16.878 5.10967 18.0337 3.69259 19.4634 2.58272C17.6931 1.20675 15.5671 0.351111 13.3284 0.113603C11.0897 -0.123904 8.82858 0.266295 6.80348 1.23961C4.77838 2.21293 3.07101 3.73009 1.8765 5.6177C0.681986 7.50531 0.0485229 9.68721 0.0485229 11.914C0.0485229 14.1409 0.681986 16.3228 1.8765 18.2104C3.07101 20.098 4.77838 21.6151 6.80348 22.5885C8.82858 23.5618 11.0897 23.952 13.3284 23.7145C15.5671 23.477 17.6931 22.6213 19.4634 21.2454C18.0341 20.1358 16.8787 18.7193 16.0846 17.1029C15.2906 15.4866 14.8787 13.7127 14.8801 11.9157V11.9157Z" fill="#EB001B"/>
<path d="M37.7334 19.2662V18.897H37.8901V18.8179H37.4934V18.897H37.6501V19.2794L37.7334 19.2662ZM38.5034 19.2662V18.8047H38.3834L38.2434 19.1344L38.1034 18.8047H37.9801V19.2662H38.0667V18.9201L38.1967 19.2201H38.2867L38.4167 18.9201V19.2695L38.5034 19.2662Z" fill="#00A1DF"/>
<path d="M38.8768 11.9141C38.8762 14.1405 38.2425 16.3219 37.0479 18.209C35.8534 20.0961 34.1462 21.6128 32.1214 22.5859C30.0967 23.5589 27.836 23.9491 25.5976 23.7118C23.3593 23.4745 21.2336 22.6192 19.4634 21.2438C20.8922 20.1333 22.0473 18.7163 22.8416 17.0999C23.6358 15.4834 24.0485 13.7097 24.0485 11.9125C24.0485 10.1153 23.6358 8.34151 22.8416 6.72506C22.0473 5.10861 20.8922 3.69168 19.4634 2.58116C21.2336 1.20476 23.3596 0.348707 25.5985 0.110858C27.8373 -0.12699 30.0987 0.262963 32.124 1.23614C34.1494 2.20932 35.857 3.72645 37.0517 5.61412C38.2465 7.5018 38.8801 9.68384 38.8801 11.9108L38.8768 11.9141Z" fill="#00A1DF"/>
</svg>
