<svg width="39" height="30" viewBox="0 0 39 30" fill="none" xmlns="http://www.w3.org/2000/svg">
<path d="M7.11669 29.7555V27.7774C7.12834 27.6111 7.10402 27.4442 7.04534 27.2879C6.98667 27.1315 6.89498 26.9894 6.77639 26.8708C6.6578 26.7523 6.51503 26.6601 6.35759 26.6004C6.20016 26.5408 6.03167 26.5149 5.86335 26.5247C5.64304 26.5104 5.42288 26.5549 5.22587 26.6535C5.02887 26.7521 4.86223 26.9011 4.74335 27.0851C4.635 26.9066 4.47995 26.7604 4.29457 26.6617C4.10919 26.5631 3.90033 26.5158 3.69002 26.5247C3.50669 26.5155 3.32413 26.5539 3.16041 26.636C2.9967 26.7181 2.85753 26.8411 2.75669 26.9928V26.6038H2.06335V29.7555H2.76335V28.0214C2.74846 27.9136 2.75783 27.8039 2.79079 27.7002C2.82375 27.5964 2.87948 27.5011 2.954 27.4211C3.02852 27.3411 3.11999 27.2783 3.22187 27.2374C3.32375 27.1964 3.43353 27.1782 3.54335 27.184C4.00335 27.184 4.23669 27.4807 4.23669 28.0148V29.7687H4.93669V28.0214C4.92241 27.9137 4.9322 27.8043 4.96538 27.7008C4.99856 27.5973 5.05432 27.5022 5.12871 27.4223C5.20311 27.3425 5.29433 27.2797 5.39592 27.2386C5.49752 27.1974 5.60702 27.1788 5.71669 27.184C6.19002 27.184 6.41669 27.4807 6.41669 28.0148V29.7687L7.11669 29.7555ZM17.4734 26.6038H16.3334V25.6478H15.6334V26.6038H15V27.2302H15.6467V28.6807C15.6467 29.4126 15.9334 29.8478 16.7534 29.8478C17.0597 29.8488 17.3601 29.7642 17.62 29.6038L17.42 29.017C17.2341 29.1267 17.0231 29.1879 16.8067 29.195C16.4734 29.195 16.3467 28.984 16.3467 28.6676V27.2302H17.48L17.4734 26.6038ZM23.3867 26.5247C23.2176 26.5198 23.0504 26.5601 22.9025 26.6413C22.7547 26.7225 22.6318 26.8417 22.5467 26.9862V26.6038H21.86V29.7555H22.5534V27.9884C22.5534 27.4676 22.78 27.1774 23.22 27.1774C23.3683 27.1754 23.5156 27.2023 23.6534 27.2566L23.8667 26.5972C23.7083 26.5412 23.5415 26.5122 23.3734 26.5115L23.3867 26.5247ZM14.4467 26.8544C14.0542 26.6236 13.603 26.5092 13.1467 26.5247C12.34 26.5247 11.8134 26.9071 11.8134 27.5335C11.8134 28.0478 12.2 28.3643 12.9134 28.4632L13.2467 28.5093C13.6267 28.5621 13.8067 28.661 13.8067 28.839C13.8067 29.0829 13.5534 29.2214 13.08 29.2214C12.6993 29.2323 12.3259 29.1162 12.02 28.8917L11.6867 29.4258C12.0906 29.7047 12.5743 29.848 13.0667 29.8346C13.9867 29.8346 14.52 29.406 14.52 28.806C14.52 28.206 14.1 27.9621 13.4067 27.8632L13.0734 27.817C12.7734 27.7774 12.5334 27.7181 12.5334 27.5071C12.5334 27.2961 12.76 27.1379 13.14 27.1379C13.4912 27.1419 13.8356 27.235 14.14 27.4082L14.4467 26.8544ZM33.0167 26.5247C32.8476 26.5198 32.6804 26.5601 32.5325 26.6413C32.3847 26.7225 32.2618 26.8417 32.1767 26.9862V26.6038H31.49V29.7555H32.1834V27.9884C32.1834 27.4676 32.41 27.1774 32.85 27.1774C32.9983 27.1754 33.1456 27.2023 33.2834 27.2566L33.4967 26.5972C33.3383 26.5412 33.1715 26.5122 33.0034 26.5115L33.0167 26.5247ZM24.0834 28.1731C24.0751 28.3945 24.1137 28.6153 24.1967 28.8212C24.2796 29.027 24.4051 29.2135 24.5651 29.3687C24.7252 29.5238 24.9162 29.6442 25.1259 29.7222C25.3357 29.8002 25.5596 29.8339 25.7834 29.8214C26.1996 29.8423 26.6088 29.7083 26.93 29.4456L26.5967 28.8917C26.357 29.0725 26.0647 29.1719 25.7634 29.1752C25.5071 29.1547 25.268 29.0396 25.0937 28.8526C24.9193 28.6657 24.8225 28.4208 24.8225 28.1665C24.8225 27.9122 24.9193 27.6672 25.0937 27.4803C25.268 27.2933 25.5071 27.1782 25.7634 27.1577C26.0647 27.161 26.357 27.2604 26.5967 27.4412L26.93 26.8873C26.6088 26.6247 26.1996 26.4906 25.7834 26.5115C25.5596 26.499 25.3357 26.5328 25.1259 26.6107C24.9162 26.6887 24.7252 26.8091 24.5651 26.9642C24.4051 27.1194 24.2796 27.3059 24.1967 27.5118C24.1137 27.7176 24.0751 27.9384 24.0834 28.1599V28.1731ZM30.5767 28.1731V26.6038H29.8834V26.9862C29.7656 26.8364 29.6135 26.7164 29.4396 26.6362C29.2658 26.5559 29.0751 26.5177 28.8834 26.5247C28.4413 26.5247 28.0174 26.6984 27.7048 27.0075C27.3923 27.3166 27.2167 27.7359 27.2167 28.1731C27.2167 28.6102 27.3923 29.0295 27.7048 29.3386C28.0174 29.6477 28.4413 29.8214 28.8834 29.8214C29.0751 29.8284 29.2658 29.7902 29.4396 29.7099C29.6135 29.6297 29.7656 29.5097 29.8834 29.3599V29.7423H30.5767V28.1731ZM27.9967 28.1731C28.0077 27.9875 28.0734 27.8093 28.1856 27.6602C28.2978 27.5111 28.4516 27.3978 28.6282 27.3341C28.8047 27.2704 28.9962 27.2591 29.1791 27.3017C29.362 27.3443 29.5283 27.4389 29.6576 27.5737C29.7868 27.7086 29.8734 27.8779 29.9065 28.0609C29.9397 28.2438 29.9181 28.4323 29.8443 28.6032C29.7705 28.7741 29.6478 28.92 29.4913 29.0228C29.3348 29.1256 29.1513 29.1809 28.9634 29.1818C28.8314 29.1835 28.7005 29.1581 28.5789 29.1073C28.4573 29.0565 28.3477 28.9814 28.2569 28.8866C28.1661 28.7919 28.0961 28.6795 28.0513 28.5567C28.0065 28.4339 27.9879 28.3033 27.9967 28.1731V28.1731ZM19.63 26.5247C19.188 26.5308 18.7665 26.7104 18.4583 27.0238C18.1502 27.3373 17.9805 27.759 17.9867 28.1961C17.9929 28.6333 18.1744 29.0501 18.4913 29.3549C18.8083 29.6597 19.2347 29.8275 19.6767 29.8214C20.1563 29.8457 20.6279 29.693 21 29.3928L20.6667 28.8851C20.4035 29.0939 20.0774 29.2099 19.74 29.2148C19.5108 29.2343 19.283 29.1646 19.105 29.0205C18.9269 28.8765 18.8127 28.6694 18.7867 28.4434H21.1534C21.1534 28.3577 21.1534 28.272 21.1534 28.1796C21.1534 27.1906 20.5334 26.5313 19.64 26.5313L19.63 26.5247ZM19.63 27.1379C19.7338 27.1357 19.8369 27.1537 19.9336 27.191C20.0303 27.2283 20.1187 27.284 20.1936 27.355C20.2685 27.426 20.3285 27.511 20.3702 27.605C20.4119 27.6989 20.4345 27.8001 20.4367 27.9027H18.77C18.7821 27.6911 18.8775 27.4926 19.0357 27.3496C19.1939 27.2067 19.4025 27.1307 19.6167 27.1379H19.63ZM37 28.1796V25.3379H36.3334V26.9862C36.2156 26.8364 36.0635 26.7164 35.8896 26.6362C35.7158 26.5559 35.5251 26.5177 35.3334 26.5247C34.8913 26.5247 34.4674 26.6984 34.1548 27.0075C33.8423 27.3166 33.6667 27.7359 33.6667 28.1731C33.6667 28.6102 33.8423 29.0295 34.1548 29.3386C34.4674 29.6477 34.8913 29.8214 35.3334 29.8214C35.5251 29.8284 35.7158 29.7902 35.8896 29.7099C36.0635 29.6297 36.2156 29.5097 36.3334 29.3599V29.7423H37V28.1796ZM38.1567 29.2972C38.2 29.2967 38.243 29.3045 38.2834 29.3203C38.3216 29.3358 38.3567 29.3581 38.3867 29.3862C38.416 29.4147 38.4397 29.4482 38.4567 29.4851C38.4736 29.5236 38.4823 29.5652 38.4823 29.6071C38.4823 29.6491 38.4736 29.6906 38.4567 29.7291C38.4397 29.766 38.416 29.7996 38.3867 29.828C38.3567 29.8561 38.3216 29.8785 38.2834 29.8939C38.2434 29.9113 38.2003 29.9203 38.1567 29.9203C38.0935 29.9198 38.0317 29.9016 37.9786 29.8678C37.9255 29.8339 37.8832 29.7858 37.8567 29.7291C37.84 29.6905 37.8314 29.649 37.8314 29.6071C37.8314 29.5652 37.84 29.5237 37.8567 29.4851C37.8737 29.4482 37.8974 29.4147 37.9267 29.3862C37.9567 29.3581 37.9917 29.3358 38.03 29.3203C38.0734 29.3032 38.12 29.2954 38.1667 29.2972H38.1567ZM38.1567 29.8544C38.19 29.8546 38.2229 29.8478 38.2533 29.8346C38.282 29.8219 38.308 29.804 38.33 29.7818C38.3717 29.7368 38.3948 29.678 38.3948 29.617C38.3948 29.556 38.3717 29.4972 38.33 29.4522C38.3081 29.4299 38.2821 29.412 38.2533 29.3994C38.2229 29.3863 38.1899 29.3795 38.1567 29.3796C38.1235 29.3798 38.0906 29.3865 38.06 29.3994C38.0301 29.4116 38.0029 29.4295 37.98 29.4522C37.9383 29.4972 37.9152 29.556 37.9152 29.617C37.9152 29.678 37.9383 29.7368 37.98 29.7818C38.0029 29.8044 38.0301 29.8224 38.06 29.8346C38.0936 29.8489 38.1301 29.8557 38.1667 29.8544H38.1567ZM38.1767 29.4621C38.2078 29.4606 38.2385 29.4699 38.2633 29.4884C38.2736 29.4968 38.2816 29.5074 38.2868 29.5195C38.292 29.5315 38.2943 29.5446 38.2934 29.5577C38.2938 29.5686 38.292 29.5795 38.288 29.5898C38.284 29.6 38.2779 29.6093 38.27 29.617C38.2507 29.6344 38.2261 29.6448 38.2 29.6467L38.2967 29.7555H38.22L38.13 29.6467H38.1V29.7555H38.0367V29.4654L38.1767 29.4621ZM38.1034 29.5181V29.5972H38.1767C38.1897 29.6011 38.2036 29.6011 38.2167 29.5972C38.219 29.5926 38.2202 29.5875 38.2202 29.5824C38.2202 29.5772 38.219 29.5722 38.2167 29.5676C38.219 29.563 38.2202 29.5579 38.2202 29.5527C38.2202 29.5476 38.219 29.5425 38.2167 29.5379C38.2036 29.534 38.1897 29.534 38.1767 29.5379L38.1034 29.5181ZM34.4367 28.1796C34.4477 27.9941 34.5134 27.8159 34.6256 27.6668C34.7378 27.5177 34.8916 27.4044 35.0682 27.3407C35.2447 27.277 35.4362 27.2657 35.6191 27.3083C35.802 27.3509 35.9683 27.4454 36.0976 27.5803C36.2268 27.7152 36.3134 27.8845 36.3465 28.0675C36.3797 28.2504 36.3581 28.4389 36.2843 28.6098C36.2105 28.7807 36.0878 28.9266 35.9313 29.0294C35.7748 29.1322 35.5913 29.1875 35.4034 29.1884C35.2714 29.1901 35.1405 29.1647 35.0189 29.1139C34.8973 29.0631 34.7877 28.9879 34.6969 28.8932C34.6061 28.7984 34.5361 28.6861 34.4913 28.5633C34.4465 28.4405 34.4279 28.3099 34.4367 28.1796V28.1796ZM11.0267 28.1796V26.6038H10.3334V26.9862C10.2156 26.8364 10.0635 26.7164 9.88965 26.6362C9.71578 26.5559 9.5251 26.5177 9.33335 26.5247C8.89133 26.5247 8.4674 26.6984 8.15484 27.0075C7.84228 27.3166 7.66669 27.7359 7.66669 28.1731C7.66669 28.6102 7.84228 29.0295 8.15484 29.3386C8.4674 29.6477 8.89133 29.8214 9.33335 29.8214C9.5251 29.8284 9.71578 29.7902 9.88965 29.7099C10.0635 29.6297 10.2156 29.5097 10.3334 29.3599V29.7423H11.0267V28.1796ZM8.44669 28.1796C8.45774 27.9941 8.52341 27.8159 8.63562 27.6668C8.74782 27.5177 8.90165 27.4044 9.07817 27.3407C9.25469 27.277 9.44619 27.2657 9.62909 27.3083C9.81199 27.3509 9.97831 27.4454 10.1076 27.5803C10.2368 27.7152 10.3234 27.8845 10.3565 28.0675C10.3897 28.2504 10.3681 28.4389 10.2943 28.6098C10.2205 28.7807 10.0978 28.9266 9.94129 29.0294C9.78477 29.1322 9.60125 29.1875 9.41335 29.1884C9.28082 29.191 9.14918 29.1663 9.02681 29.1159C8.90443 29.0655 8.79398 28.9905 8.70246 28.8957C8.61095 28.8008 8.54036 28.6882 8.49518 28.5649C8.45 28.4417 8.43122 28.3105 8.44002 28.1796H8.44669Z" fill="black"/>
<path d="M24.7167 2.58789H14.2167V21.2505H24.7167V2.58789Z" fill="#FF5F00"/>
<path d="M14.8833 11.9215C14.8814 10.1239 15.293 8.34947 16.0871 6.7325C16.8812 5.11553 18.0369 3.69845 19.4667 2.58858C17.6964 1.21261 15.5704 0.35697 13.3316 0.119462C11.0929 -0.118045 8.8318 0.272158 6.8067 1.24547C4.7816 2.21879 3.07423 3.73595 1.87972 5.62356C0.685212 7.51117 0.0517578 9.69307 0.0517578 11.9199C0.0517578 14.1467 0.685212 16.3286 1.87972 18.2162C3.07423 20.1038 4.7816 21.621 6.8067 22.5943C8.8318 23.5676 11.0929 23.9578 13.3316 23.7203C15.5704 23.4828 17.6964 22.6272 19.4667 21.2512C18.0373 20.1417 16.8819 18.7251 16.0879 17.1088C15.2938 15.4924 14.8819 13.7186 14.8833 11.9215V11.9215Z" fill="#EB001B"/>
<path d="M38.8833 11.921C38.8833 14.148 38.2497 16.33 37.055 18.2177C35.8602 20.1053 34.1526 21.6225 32.1273 22.5957C30.1019 23.5688 27.8406 23.9588 25.6017 23.7209C23.3629 23.4831 21.2368 22.627 19.4667 21.2506C20.8954 20.1401 22.0505 18.7232 22.8448 17.1067C23.6391 15.4903 24.0518 13.7165 24.0518 11.9193C24.0518 10.1221 23.6391 8.34835 22.8448 6.7319C22.0505 5.11545 20.8954 3.69851 19.4667 2.588C21.2368 1.21159 23.3629 0.355543 25.6017 0.117694C27.8406 -0.120154 30.1019 0.269797 32.1273 1.24298C34.1526 2.21615 35.8602 3.73329 37.055 5.62096C38.2497 7.50864 38.8833 9.69068 38.8833 11.9177V11.921Z" fill="#F79E1B"/>
<path d="M37.7367 19.2731V18.8906H37.8934V18.8115H37.4967V18.8906H37.6667V19.2731H37.7367ZM38.5067 19.2731V18.8115H38.3867L38.2467 19.1412L38.1067 18.8115H38V19.2731H38.0867V18.9269L38.2167 19.2269H38.3067L38.4367 18.9269V19.2764L38.5067 19.2731Z" fill="#F79E1B"/>
</svg>
