<svg width="30" height="30" viewBox="0 0 30 30" fill="none" xmlns="http://www.w3.org/2000/svg">
<path d="M21.5329 2.08858C20.6391 1.04299 19.0235 0.594727 16.9568 0.594727H10.9584C10.5355 0.594727 10.1762 0.910375 10.11 1.33836L7.61238 17.597C7.56273 17.9176 7.80459 18.208 8.12119 18.208H11.8244L12.7544 12.1532L12.7256 12.3428C12.7918 11.9148 13.1484 11.5991 13.5708 11.5991H15.3305C18.7875 11.5991 21.4944 10.1579 22.2852 5.9887C22.3087 5.8654 22.3289 5.74539 22.3466 5.62811C22.2467 5.57386 22.2467 5.57386 22.3466 5.62811C22.582 4.08713 22.3449 3.03826 21.5329 2.08858" fill="#003087"/>
<path d="M21.5329 2.08858C20.6391 1.04299 19.0235 0.594727 16.9568 0.594727H10.9584C10.5355 0.594727 10.1762 0.910375 10.11 1.33836L7.61238 17.597C7.56273 17.9176 7.80459 18.208 8.12119 18.208H11.8244L12.7544 12.1532L12.7256 12.3428C12.7918 11.9148 13.1484 11.5991 13.5708 11.5991H15.3305C18.7875 11.5991 21.4944 10.1579 22.2852 5.9887C22.3087 5.8654 22.3289 5.74539 22.3466 5.62811C22.2467 5.57386 22.2467 5.57386 22.3466 5.62811C22.582 4.08713 22.3449 3.03826 21.5329 2.08858" fill="#003087"/>
<path d="M13.754 5.64839C13.7935 5.39083 13.9548 5.17985 14.1715 5.07299C14.2703 5.02476 14.3803 4.99791 14.4956 4.99791H19.1982C19.7551 4.99791 20.2746 5.03518 20.7492 5.11354C20.8854 5.13599 21.0173 5.16177 21.1454 5.19136C21.2735 5.22038 21.3979 5.25328 21.5186 5.28945C21.5789 5.30751 21.6382 5.32619 21.6964 5.34589C21.9297 5.4259 22.147 5.51906 22.3467 5.62811C22.5821 4.08659 22.345 3.03826 21.533 2.08858C20.6387 1.04299 19.0237 0.594727 16.9569 0.594727H10.958C10.5356 0.594727 10.1763 0.910375 10.1101 1.33836L7.6125 17.5964C7.56285 17.9176 7.80471 18.2075 8.12078 18.2075H11.8245L12.7545 12.1526L13.754 5.64839V5.64839Z" fill="#002F86"/>
<path d="M22.3466 5.62793C22.3285 5.74575 22.3087 5.86521 22.2852 5.98851C21.4945 10.1572 18.7876 11.5989 15.3306 11.5989H13.5703C13.148 11.5989 12.7913 11.9146 12.7257 12.3426L11.8244 18.2073L11.5687 19.871C11.5254 20.1516 11.7369 20.4059 12.0134 20.4059H15.1352C15.5046 20.4059 15.8191 20.1297 15.8768 19.7554L15.9072 19.5921L16.4956 15.7648L16.5335 15.5533C16.5912 15.179 16.9056 14.9028 17.2751 14.9028H17.7423C20.7663 14.9028 23.1342 13.6419 23.8261 9.99495C24.115 8.47096 23.9655 7.1985 23.2014 6.30471C22.9697 6.034 22.682 5.81041 22.3467 5.62793" fill="#009CDE"/>
<path d="M21.5187 5.28861C21.3981 5.25244 21.2737 5.21956 21.1455 5.19051C21.0174 5.16145 20.885 5.13571 20.7494 5.11325C20.2742 5.03433 19.7552 4.99707 19.1978 4.99707H14.4957C14.3799 4.99707 14.2699 5.02394 14.1716 5.07269C13.9543 5.17955 13.7936 5.38999 13.7541 5.6481L12.7547 12.1523L12.7258 12.3419C12.7915 11.9139 13.1481 11.5983 13.5705 11.5983H15.3308C18.7878 11.5983 21.4947 10.157 22.2854 5.98786C22.3089 5.86456 22.3286 5.74509 22.3468 5.62727C22.1466 5.51877 21.9298 5.42506 21.6965 5.3456C21.6383 5.32587 21.579 5.30667 21.5187 5.28861" fill="#012069"/>
<path d="M1.97633 25.5665L1.57922 27.9114H0L1.16364 21L3.57864 21.0047C4.3267 21.0047 4.91467 21.2184 5.34257 21.6456C5.77355 22.0728 5.96287 22.6266 5.91053 23.307C5.87359 23.7722 5.72891 24.1756 5.47648 24.5174C5.22405 24.8592 4.89004 25.1203 4.47446 25.3006C4.06195 25.481 3.59865 25.5712 3.08456 25.5712L1.97633 25.5665ZM2.19336 24.2801L3.14459 24.2896C3.54478 24.2801 3.85108 24.1472 4.06349 23.8908C4.2759 23.6313 4.36056 23.3133 4.31746 22.9367C4.29283 22.7437 4.22049 22.5918 4.10043 22.481C3.98345 22.3671 3.82799 22.3038 3.63405 22.2911L2.53045 22.2864L2.19336 24.2801Z" fill="#002F86"/>
<path d="M8.71342 27.9114C8.67032 27.788 8.64877 27.6329 8.64877 27.4462C8.30707 27.8323 7.89918 28.019 7.42511 28.0063C6.99105 28 6.63088 27.8513 6.34459 27.5601C6.0583 27.269 5.92439 26.9161 5.94286 26.5016C5.95825 25.9446 6.18451 25.5174 6.62165 25.2199C7.05878 24.9193 7.65599 24.769 8.41328 24.769L8.92121 24.7785L8.97662 24.4889L8.99509 24.2373C8.98278 23.9494 8.84271 23.8006 8.57489 23.7911C8.24242 23.7848 8.03771 23.9731 7.96075 24.356L6.43694 24.3608C6.45233 24.0158 6.56162 23.7168 6.76479 23.4636C6.96797 23.2073 7.24348 23.0111 7.59134 22.875C7.94228 22.7358 8.31477 22.6709 8.7088 22.6804C9.08745 22.6899 9.41837 22.7722 9.70159 22.9272C9.98788 23.0791 10.2018 23.2927 10.3434 23.568C10.485 23.8402 10.5389 24.1551 10.5051 24.5127L10.131 26.9288L10.1079 27.2231C10.0956 27.4573 10.1249 27.6566 10.1957 27.8212L10.1911 27.9114H8.71342ZM7.84531 26.8766C8.15623 26.8892 8.42867 26.7484 8.66263 26.4541L8.81501 25.6282L8.42251 25.6234C8.17932 25.6297 7.96999 25.7041 7.79452 25.8465C7.61905 25.9858 7.51592 26.1772 7.48514 26.4209C7.46975 26.5506 7.49283 26.6582 7.5544 26.7437C7.61905 26.8259 7.71602 26.8703 7.84531 26.8766Z" fill="#002F86"/>
<path d="M13.0309 25.6519L14.3238 22.7753H16L13.0724 28.6804C12.8539 29.1456 12.6014 29.481 12.3152 29.6867C12.0319 29.8956 11.6933 30 11.2993 30C11.1238 30 10.9006 29.9652 10.6297 29.8956L10.7452 28.7516H10.9206C11.1084 28.7516 11.2731 28.7199 11.4147 28.6566C11.5563 28.5965 11.6748 28.4778 11.7703 28.3006L11.9873 27.8734L11.1885 22.7753H12.7584L13.0309 25.6519Z" fill="#002F86"/>
<path d="M18.0284 25.6873L17.6209 27.9095H16L17.1943 21.3599L19.673 21.3644C20.4408 21.3644 21.0442 21.5668 21.4834 21.9716C21.9258 22.3765 22.1201 22.9013 22.0664 23.5461C22.0284 23.9869 21.8799 24.3693 21.6209 24.6931C21.3618 25.017 21.019 25.2644 20.5924 25.4354C20.169 25.6063 19.6935 25.6918 19.1659 25.6918L18.0284 25.6873ZM18.2512 24.4682L19.2275 24.4772C19.6382 24.4682 19.9526 24.3423 20.1706 24.0994C20.3886 23.8535 20.4755 23.5521 20.4313 23.1952C20.406 23.0123 20.3318 22.8683 20.2085 22.7634C20.0885 22.6554 19.9289 22.5954 19.7299 22.5834L18.5972 22.5789L18.2512 24.4682Z" fill="#009CDE"/>
<path d="M24.9431 27.9095C24.8989 27.7925 24.8768 27.6456 24.8768 27.4686C24.5261 27.8345 24.1074 28.0114 23.6209 27.9994C23.1754 27.9934 22.8057 27.8525 22.5118 27.5766C22.218 27.3007 22.0806 26.9663 22.0995 26.5735C22.1153 26.0456 22.3476 25.6408 22.7962 25.3589C23.2449 25.074 23.8578 24.9316 24.6351 24.9316L25.1564 24.9406L25.2133 24.6662L25.2322 24.4277C25.2196 24.1548 25.0758 24.0139 24.8009 24.0049C24.4597 23.9989 24.2496 24.1773 24.1706 24.5402L22.6066 24.5447C22.6224 24.2178 22.7346 23.9344 22.9431 23.6945C23.1517 23.4516 23.4344 23.2657 23.7915 23.1367C24.1517 23.0048 24.534 22.9433 24.9384 22.9523C25.327 22.9613 25.6667 23.0393 25.9573 23.1862C26.2512 23.3301 26.4708 23.5326 26.6161 23.7935C26.7615 24.0514 26.8167 24.3498 26.782 24.6886L26.3981 26.9783L26.3744 27.2572C26.3618 27.4791 26.3918 27.6681 26.4645 27.824L26.4597 27.9095H24.9431ZM24.0521 26.9288C24.3712 26.9408 24.6509 26.8074 24.891 26.5285L25.0474 25.7458L24.6446 25.7413C24.3949 25.7473 24.1801 25.8177 24 25.9527C23.8199 26.0846 23.7141 26.2661 23.6825 26.497C23.6667 26.6199 23.6904 26.7219 23.7536 26.8029C23.8199 26.8808 23.9194 26.9228 24.0521 26.9288Z" fill="#009CDE"/>
<path d="M28.7393 27.9095H27.1754L28.436 21H30L28.7393 27.9095Z" fill="#009CDE"/>
</svg>
