<svg width="45" height="30" viewBox="0 0 45 30" fill="none" xmlns="http://www.w3.org/2000/svg">
<path d="M45 30H0V5.48134e-07H45V30Z" fill="white"/>
<path d="M1 25H44V29H1V25V25Z" fill="#F7B600"/>
<path d="M1 5H44V1H1V5V5Z" fill="#1A1F71"/>
<path d="M21.0772 8.57504L18.7518 19.2706H15.9393L18.2647 8.57504H21.0772ZM32.9084 15.4812L34.3893 11.4647L35.24 15.4812H32.9084V15.4812ZM36.0477 19.2706H38.648L36.3762 8.57504H33.9771C33.4359 8.57504 32.9813 8.88399 32.7795 9.35911L28.5595 19.2706H31.5128L32.0986 17.6729H35.7069L36.0477 19.2706ZM28.7061 15.7786C28.7179 12.9563 24.7399 12.7997 24.7659 11.5386C24.7754 11.1553 25.1465 10.7471 25.959 10.6428C26.3614 10.5916 27.4732 10.5507 28.7326 11.1216L29.2252 8.85228C28.5486 8.61155 27.6779 8.37979 26.5948 8.37979C23.8145 8.37979 21.8587 9.83269 21.8432 11.9149C21.8249 13.455 23.2401 14.3134 24.3043 14.8264C25.4005 15.3502 25.7681 15.6869 25.763 16.1551C25.7552 16.8727 24.8876 17.1904 24.081 17.2022C22.6665 17.2242 21.8465 16.8261 21.1925 16.5263L20.682 18.8709C21.3401 19.1676 22.5527 19.4254 23.8087 19.4385C26.7643 19.4385 28.6975 18.0022 28.7061 15.7786ZM17.0582 8.57504L12.5018 19.2706H9.52884L7.28637 10.7346C7.15059 10.2101 7.03237 10.017 6.61858 9.79531C5.94236 9.43388 4.82568 9.09586 3.84412 8.88552L3.91034 8.57504H8.69638C9.3055 8.57504 9.85395 8.97407 9.99328 9.66499L11.1782 15.8546L14.1033 8.57504H17.0582Z" fill="#1A1F71"/>
<path d="M24.6765 22.2151H23.5338V23.2615H24.812V23.5762H23.1487V20.673H24.7465V20.9876H23.5338V21.9048H24.6765V22.2151Z" fill="#1A1F71"/>
<path d="M25.4022 20.5182H25.7873V23.5762H25.4022V20.5182Z" fill="#1A1F71"/>
<path d="M27.8883 22.3308C27.8928 22.0941 27.7877 21.7193 27.3543 21.7193C26.9603 21.7193 26.7939 22.0683 26.7632 22.3308H27.8883ZM26.759 22.6022C26.7676 23.1149 27.0961 23.3259 27.4854 23.3259C27.7614 23.3259 27.9321 23.2785 28.0723 23.2183L28.1423 23.4897C28.0065 23.5498 27.7703 23.623 27.433 23.623C26.781 23.623 26.3914 23.1967 26.3914 22.5679C26.3914 21.939 26.7676 21.448 27.385 21.448C28.081 21.448 28.2605 22.0425 28.2605 22.4257C28.2605 22.5031 28.2561 22.5591 28.2472 22.6022H26.759V22.6022Z" fill="#1A1F71"/>
<path d="M30.3565 23.5024C30.2559 23.5498 30.0325 23.623 29.7481 23.623C29.109 23.623 28.6932 23.1967 28.6932 22.5591C28.6932 21.9174 29.1394 21.448 29.8312 21.448C30.0587 21.448 30.2601 21.5037 30.3652 21.5599L30.2779 21.8485C30.1856 21.8011 30.0412 21.7492 29.8312 21.7492C29.3452 21.7492 29.0827 22.1067 29.0827 22.5377C29.0827 23.02 29.3979 23.3172 29.8181 23.3172C30.037 23.3172 30.1814 23.2656 30.2907 23.2181L30.3565 23.5024Z" fill="#1A1F71"/>
<path d="M31.437 20.9914V21.491H31.9883V21.7794H31.437V22.9037C31.437 23.1624 31.5114 23.3086 31.7258 23.3086C31.8307 23.3086 31.8923 23.3001 31.9492 23.2826L31.9667 23.5714C31.8923 23.5972 31.7741 23.623 31.6252 23.623C31.4456 23.623 31.3012 23.5627 31.2094 23.4639C31.1043 23.3473 31.0605 23.1624 31.0605 22.9168V21.7794H30.7321V21.491H31.0605V21.1034L31.437 20.9914Z" fill="#1A1F71"/>
<path d="M32.5263 22.1419C32.5263 21.8963 32.5217 21.6853 32.5088 21.4914H32.8459L32.8635 21.9048H32.8763C32.9728 21.625 33.209 21.4483 33.4672 21.4483C33.5068 21.4483 33.5375 21.4527 33.5726 21.4568V21.8145C33.533 21.8058 33.4939 21.8058 33.441 21.8058C33.1699 21.8058 32.977 22.0039 32.9246 22.2883C32.9159 22.3399 32.9115 22.4044 32.9115 22.465V23.5762H32.5263V22.1419Z" fill="#1A1F71"/>
<path d="M34.2635 22.5377C34.2635 22.9942 34.5262 23.3388 34.9026 23.3388C35.2704 23.3388 35.546 22.9984 35.546 22.5289C35.546 22.1758 35.3666 21.732 34.9113 21.732C34.4606 21.732 34.2635 22.1457 34.2635 22.5377ZM35.9402 22.516C35.9402 23.287 35.3929 23.623 34.8851 23.623C34.316 23.623 33.8698 23.2094 33.8698 22.5506C33.8698 21.857 34.338 21.448 34.9202 21.448C35.5287 21.448 35.9402 21.8828 35.9402 22.516" fill="#1A1F71"/>
<path d="M36.5306 22.0557C36.5306 21.8362 36.526 21.6639 36.5131 21.4916H36.8544L36.8764 21.8362H36.8851C36.9902 21.6422 37.2353 21.4485 37.5855 21.4485C37.8786 21.4485 38.334 21.6208 38.334 22.3356V23.5762H37.9489V22.3745C37.9489 22.0387 37.822 21.7586 37.4586 21.7586C37.2091 21.7586 37.012 21.9352 36.9422 22.1462C36.9244 22.1937 36.9157 22.2582 36.9157 22.3229V23.5762H36.5306V22.0557Z" fill="#1A1F71"/>
</svg>
