<svg width="69" height="38" viewBox="0 0 69 38" fill="none" xmlns="http://www.w3.org/2000/svg">
<path d="M47.9522 0C47.4082 5.49879e-05 46.8742 0.157807 46.4054 0.456903C45.9366 0.755999 45.5502 1.18555 45.2862 1.70103L45.2242 1.83963L42.8489 6.94693L39.8264 13.4024L41.8065 17.6319L41.915 17.8629C42.2203 18.4483 42.6806 18.9208 43.2364 19.2196C43.7914 18.9198 44.2515 18.4475 44.5577 17.8629L44.6662 17.6319L50.5987 4.94349L50.7421 4.63688C50.9439 4.13502 51.0273 3.58665 50.985 3.04113C50.9426 2.49562 50.7757 1.97009 50.4994 1.51185C50.2231 1.05361 49.8459 0.67705 49.402 0.41607C48.958 0.15509 48.4611 0.0178831 47.956 0.0168003L47.9522 0ZM29.6159 6.14471L27.6397 1.94464L27.5312 1.71363C27.2284 1.1287 26.769 0.657115 26.2137 0.361207C25.6594 0.656655 25.2002 1.12655 24.8963 1.70943L24.7839 1.94464L18.8436 14.6205L18.7002 14.9229C18.3799 15.7004 18.3491 16.5821 18.6144 17.3837C18.8797 18.1852 19.4205 18.8447 20.1238 19.2242C20.8271 19.6037 21.6385 19.674 22.3885 19.4203C23.1385 19.1667 23.769 18.6087 24.1484 17.8629L24.2143 17.7285L26.6051 12.6212L29.6237 6.16991L29.6159 6.14471V6.14471Z" fill="#FF5100"/>
<path d="M47.9442 0C47.4008 0.000363143 46.8674 0.158285 46.3993 0.457388C45.9312 0.756491 45.5455 1.18588 45.2821 1.70103L45.2162 1.83963L42.8254 6.94693L39.7991 13.4024L41.783 17.6319L41.8915 17.8629C42.1957 18.4492 42.6563 18.9221 43.2129 19.2195C43.7695 18.9221 44.2301 18.4492 44.5342 17.8629L44.6466 17.6319L50.5985 4.94349L50.738 4.63688C50.9398 4.13502 51.0232 3.58665 50.9809 3.04113C50.9385 2.49562 50.7717 1.97009 50.4953 1.51185C50.219 1.05361 49.8419 0.67705 49.3979 0.41607C48.9539 0.15509 48.457 0.0178831 47.9519 0.0168003L47.9442 0V0Z" fill="url(#paint0_linear)"/>
<path d="M21.4822 19.5638C22.0236 19.5655 22.5557 19.4108 23.0236 19.1155C23.4915 18.8202 23.8784 18.395 24.1443 17.8838L24.2101 17.7452L26.6048 12.6379L29.6273 6.18235L27.6472 1.93187L27.5387 1.70086C27.2324 1.11492 26.7707 0.642271 26.2135 0.344238C25.6577 0.642957 25.1974 1.11554 24.8921 1.70086L24.7836 1.93187L18.824 14.6203L18.6806 14.9269C18.4788 15.4288 18.3954 15.9771 18.4377 16.5227C18.4801 17.0682 18.647 17.5937 18.9233 18.0519C19.1996 18.5102 19.5768 18.8867 20.0207 19.1477C20.4647 19.4087 20.9616 19.5459 21.4667 19.547L21.4822 19.5638V19.5638Z" fill="url(#paint1_linear)"/>
<path d="M29.6158 6.145L27.6396 1.94493L27.5311 1.71392C27.2269 1.12762 26.7663 0.654719 26.2097 0.357296C26.3948 0.25905 26.5881 0.180288 26.7871 0.122092C27.0404 0.0525113 27.3007 0.0172417 27.5621 0.0170898H31.7005C32.2408 0.0187076 32.7711 0.17491 33.2379 0.469908C33.7047 0.764905 34.0913 1.18824 34.3587 1.69712L34.4672 1.92813L39.8185 13.4195L41.7908 17.6196L41.8993 17.8506C42.2069 18.4431 42.673 18.9205 43.2362 19.2198C42.8171 19.4407 42.3576 19.5569 41.8916 19.56H37.7299C37.1902 19.5581 36.6605 19.4017 36.1944 19.1067C35.7283 18.8117 35.3424 18.3886 35.0756 17.88L34.9632 17.649L29.6158 6.145V6.145Z" fill="#FF8C44"/>
<path d="M0.00203063 28.3104C-0.00342187 28.2622 0.00214051 28.2133 0.0183026 28.1675C0.0344648 28.1217 0.0608106 28.0801 0.0953895 28.0457C0.129968 28.0114 0.171892 27.9852 0.218046 27.9692C0.2642 27.9532 0.313399 27.9476 0.361996 27.953H0.619118C0.666538 27.9495 0.714149 27.9565 0.75852 27.9735C0.802892 27.9905 0.842916 28.017 0.87571 28.0512C0.908504 28.0854 0.93325 28.1264 0.948161 28.1712C0.963073 28.216 0.967779 28.2636 0.961942 28.3104V29.1358C0.961942 29.3089 0.943088 29.4812 0.906234 29.6505H0.936231C1.1881 29.0929 1.5974 28.6197 2.11459 28.2882C2.63177 27.9567 3.23466 27.7812 3.85025 27.7829C5.6458 27.7829 6.27574 28.7954 6.27574 30.561V34.7686C6.28119 34.8168 6.27563 34.8657 6.25947 34.9115C6.24331 34.9573 6.21696 34.9989 6.18238 35.0333C6.1478 35.0676 6.10588 35.0938 6.05973 35.1098C6.01357 35.1258 5.96437 35.1314 5.91578 35.126H5.6458C5.59785 35.131 5.54938 35.125 5.50408 35.1087C5.45879 35.0923 5.41784 35.0658 5.38438 35.0314C5.35091 34.9969 5.3258 34.9554 5.31095 34.9098C5.2961 34.8643 5.29191 34.816 5.29869 34.7686V30.8205C5.29869 29.6931 5.11442 28.6933 3.72169 28.6933C2.18326 28.6933 0.979083 29.9484 0.979083 31.6203V34.7686C0.985863 34.816 0.981668 34.8643 0.96682 34.9098C0.951971 34.9554 0.926861 34.9969 0.893395 35.0314C0.859928 35.0658 0.818987 35.0923 0.773687 35.1087C0.728388 35.125 0.679922 35.131 0.631973 35.126H0.361996C0.313399 35.1314 0.2642 35.1258 0.218046 35.1098C0.171892 35.0938 0.129968 35.0676 0.0953895 35.0333C0.0608106 34.9989 0.0344648 34.9573 0.0183026 34.9115C0.00214051 34.8657 -0.00342187 34.8168 0.00203063 34.7686V28.3104ZM11.5253 30.7354H11.9538V30.5057C11.9538 29.123 11.191 28.6508 10.1711 28.6508C9.55192 28.6579 8.94624 28.8314 8.4184 29.1528C8.37957 29.1787 8.33576 29.1963 8.28972 29.2046C8.24368 29.2128 8.19642 29.2115 8.15093 29.2007C8.10543 29.1899 8.06267 29.1699 8.02537 29.1419C7.98806 29.1138 7.957 29.0784 7.93416 29.0379L7.84417 28.8933C7.81477 28.8561 7.79394 28.813 7.78313 28.767C7.77232 28.721 7.7718 28.6732 7.7816 28.6269C7.7914 28.5807 7.81129 28.5372 7.83987 28.4994C7.86845 28.4616 7.90503 28.4305 7.94702 28.4083C8.64082 27.9956 9.43516 27.7793 10.2439 27.7829C11.9581 27.7829 12.9308 28.7359 12.9308 30.5355V34.7899C12.9376 34.8372 12.9334 34.8855 12.9186 34.9311C12.9037 34.9766 12.8786 35.0182 12.8452 35.0527C12.8117 35.0871 12.7707 35.1135 12.7254 35.1299C12.6801 35.1463 12.6317 35.1522 12.5837 35.1472H12.3566C12.3078 35.1535 12.2583 35.1486 12.2117 35.1328C12.1652 35.1171 12.1229 35.0909 12.0881 35.0564C12.0534 35.0219 12.027 34.9799 12.0112 34.9337C11.9953 34.8875 11.9903 34.8383 11.9966 34.7899V34.1985C11.9947 34.0175 12.009 33.8367 12.0395 33.6582H12.0009C11.8031 34.1424 11.4659 34.5581 11.0314 34.8532C10.597 35.1483 10.0846 35.3097 9.5583 35.3174C8.33698 35.3174 7.11566 34.6069 7.11566 33.2242C7.11566 30.8631 10.1325 30.7354 11.5253 30.7354V30.7354ZM9.72971 34.4665C11.1224 34.4665 11.9409 33.0413 11.9409 31.7863V31.4459H11.5381C10.4025 31.4459 8.10986 31.4884 8.10986 33.0966C8.11843 33.7858 8.65409 34.4665 9.72971 34.4665ZM14.3107 28.3104C14.3053 28.2622 14.3108 28.2133 14.327 28.1675C14.3431 28.1217 14.3695 28.0801 14.4041 28.0457C14.4387 28.0114 14.4806 27.9852 14.5267 27.9692C14.5729 27.9532 14.6221 27.9476 14.6707 27.953H14.9278C14.9752 27.9495 15.0228 27.9565 15.0672 27.9735C15.1116 27.9905 15.1516 28.017 15.1844 28.0512C15.2172 28.0854 15.2419 28.1264 15.2568 28.1712C15.2718 28.216 15.2765 28.2636 15.2706 28.3104V29.1358C15.2706 29.3089 15.2518 29.4812 15.2149 29.6505H15.2449C15.4663 29.1228 15.8329 28.6677 16.3028 28.3374C16.7728 28.0071 17.3269 27.8149 17.9018 27.7829C19.2346 27.7829 19.9245 28.3955 20.1259 29.5782H20.143C20.3754 29.0643 20.7467 28.6245 21.2158 28.3076C21.6848 27.9906 22.2332 27.809 22.7999 27.7829C24.5526 27.7829 25.1954 28.7954 25.1954 30.561V34.7686C25.2008 34.8164 25.1953 34.8649 25.1794 34.9103C25.1634 34.9558 25.1375 34.9972 25.1034 35.0314C25.0693 35.0657 25.028 35.0919 24.9823 35.1083C24.9367 35.1246 24.888 35.1307 24.8398 35.126H24.5784C24.5298 35.1314 24.4806 35.1258 24.4344 35.1098C24.3882 35.0938 24.3463 35.0676 24.3117 35.0333C24.2772 34.9989 24.2508 34.9573 24.2347 34.9115C24.2185 34.8657 24.2129 34.8168 24.2184 34.7686V30.8035C24.2184 29.6378 23.9784 28.6763 22.6714 28.6763C21.2187 28.6763 20.2416 30.1866 20.2416 31.6544V34.7601C20.2491 34.8072 20.2456 34.8555 20.2313 34.901C20.217 34.9466 20.1923 34.9883 20.1592 35.0229C20.126 35.0575 20.0853 35.084 20.0401 35.1004C19.9949 35.1168 19.9466 35.1226 19.8988 35.1174H19.6245C19.5759 35.1229 19.5267 35.1173 19.4806 35.1013C19.4344 35.0852 19.3925 35.0591 19.3579 35.0248C19.3233 34.9904 19.297 34.9488 19.2808 34.903C19.2647 34.8572 19.2591 34.8083 19.2645 34.7601V30.8035C19.2645 29.7229 19.106 28.6763 17.7433 28.6763C16.2777 28.6763 15.2749 30.2164 15.2749 31.6544V34.7601C15.2817 34.8075 15.2775 34.8558 15.2627 34.9013C15.2478 34.9468 15.2227 34.9884 15.1892 35.0229C15.1558 35.0573 15.1148 35.0838 15.0695 35.1001C15.0242 35.1165 14.9758 35.1224 14.9278 35.1174H14.6578C14.6092 35.1229 14.56 35.1173 14.5139 35.1013C14.4677 35.0852 14.4258 35.0591 14.3912 35.0248C14.3566 34.9904 14.3303 34.9488 14.3141 34.903C14.298 34.8572 14.2924 34.8083 14.2979 34.7601L14.3107 28.3104V28.3104ZM29.6907 27.7829C31.6148 27.7829 32.6905 29.1655 32.6905 31.1864C32.6905 31.2348 32.6807 31.2827 32.6615 31.3272C32.6424 31.3717 32.6143 31.4119 32.579 31.4453C32.5438 31.4787 32.502 31.5047 32.4564 31.5216C32.4107 31.5385 32.362 31.5461 32.3134 31.5438H27.1324C27.1753 33.3689 28.4394 34.4112 29.935 34.4112C30.6229 34.4081 31.2899 34.1759 31.8291 33.7518C31.8633 33.7197 31.9046 33.696 31.9496 33.6826C31.9947 33.6692 32.0423 33.6666 32.0886 33.6749C32.1349 33.6832 32.1786 33.7021 32.2162 33.7303C32.2537 33.7584 32.2841 33.7949 32.3048 33.8369L32.4205 34.0113C32.4456 34.0484 32.4629 34.0903 32.4714 34.1342C32.4798 34.1782 32.4792 34.2234 32.4696 34.2671C32.46 34.3108 32.4416 34.3521 32.4155 34.3886C32.3893 34.4251 32.3561 34.4559 32.3176 34.4793C31.6248 35.0083 30.7789 35.3021 29.905 35.3174C29.4036 35.3336 28.9041 35.247 28.438 35.0628C27.9718 34.8787 27.5489 34.6011 27.1958 34.2473C26.8426 33.8935 26.5668 33.4711 26.3856 33.0067C26.2043 32.5422 26.1216 32.0457 26.1425 31.548C26.1425 29.1953 27.7366 27.7829 29.6907 27.7829V27.7829ZM31.7134 30.8333C31.6534 29.323 30.7364 28.5784 29.6565 28.5784C29.0333 28.5781 28.4326 28.8093 27.9726 29.2266C27.5126 29.644 27.2266 30.2171 27.171 30.8333H31.7134V30.8333ZM37.3572 27.7829C38.2274 27.772 39.0748 28.059 39.757 28.5955C39.797 28.6207 39.8307 28.6547 39.8554 28.6949C39.88 28.7352 39.895 28.7805 39.8992 28.8274C39.9033 28.8744 39.8965 28.9216 39.8793 28.9655C39.862 29.0094 39.8349 29.0487 39.7998 29.0805L39.7012 29.2379C39.5727 29.4378 39.4141 29.4378 39.2127 29.3102C38.6947 28.8954 38.0525 28.6635 37.3872 28.6508C37.0074 28.6463 36.6307 28.7189 36.2803 28.8643C35.9299 29.0096 35.6131 29.2246 35.3494 29.4959C35.0857 29.7673 34.8807 30.0893 34.7469 30.4422C34.6132 30.7951 34.5536 31.1714 34.5717 31.548C34.5559 31.9243 34.6177 32.2999 34.7533 32.6516C34.8889 33.0034 35.0954 33.3239 35.3603 33.5936C35.6251 33.8633 35.9426 34.0765 36.2934 34.22C36.6441 34.3635 37.0207 34.4344 37.4 34.4282C38.1446 34.4216 38.8627 34.1533 39.427 33.671C39.4597 33.6359 39.5008 33.6097 39.5465 33.5946C39.5921 33.5794 39.6409 33.576 39.6882 33.5844C39.7356 33.5929 39.7801 33.6131 39.8175 33.6431C39.855 33.673 39.8843 33.7119 39.9027 33.756L40.0012 33.9007C40.028 33.9376 40.0471 33.9795 40.0573 34.0239C40.0676 34.0683 40.0687 34.1142 40.0607 34.159C40.0527 34.2039 40.0358 34.2466 40.0108 34.2848C39.9859 34.323 39.9535 34.3559 39.9155 34.3814C39.1934 34.9768 38.283 35.3007 37.3443 35.2961C36.843 35.3145 36.3432 35.2302 35.876 35.0485C35.4089 34.8669 34.9844 34.5916 34.6291 34.2401C34.2737 33.8885 33.9951 33.468 33.8105 33.0049C33.6259 32.5417 33.5393 32.0458 33.5561 31.548C33.5406 31.0487 33.6284 30.5515 33.814 30.0871C33.9997 29.6228 34.2792 29.2012 34.6355 28.8483C34.9917 28.4955 35.417 28.2189 35.8851 28.0356C36.3532 27.8524 36.8542 27.7663 37.3572 27.7829V27.7829ZM40.9911 25.46C40.9836 25.4128 40.9871 25.3646 41.0014 25.319C41.0157 25.2734 41.0404 25.2317 41.0736 25.1972C41.1067 25.1626 41.1475 25.1361 41.1926 25.1197C41.2378 25.1033 41.2862 25.0974 41.334 25.1026H41.6082C41.6568 25.0972 41.706 25.1027 41.7522 25.1188C41.7983 25.1348 41.8402 25.161 41.8748 25.1953C41.9094 25.2296 41.9358 25.2712 41.9519 25.3171C41.9681 25.3629 41.9736 25.4117 41.9682 25.46V29.0379C41.9682 29.2336 41.9498 29.4289 41.9125 29.6208H41.9382C42.1927 29.0726 42.5999 28.6083 43.1117 28.2826C43.6235 27.9569 44.2186 27.7835 44.8265 27.7829C46.622 27.7829 47.252 28.7954 47.252 30.561V34.7686C47.252 34.9983 47.1406 35.126 46.9092 35.126H46.6349C46.5863 35.1314 46.5371 35.1258 46.4909 35.1098C46.4448 35.0938 46.4029 35.0676 46.3683 35.0333C46.3337 34.9989 46.3074 34.9573 46.2912 34.9115C46.275 34.8657 46.2695 34.8168 46.2749 34.7686V30.8205C46.2749 29.6931 46.1035 28.6933 44.6979 28.6933C43.1766 28.6933 41.9682 29.9356 41.9682 31.6714V34.7771C41.9736 34.8253 41.9681 34.8742 41.9519 34.92C41.9358 34.9658 41.9094 35.0074 41.8748 35.0418C41.8402 35.0761 41.7983 35.1023 41.7522 35.1183C41.706 35.1344 41.6568 35.1399 41.6082 35.1345H41.334C41.2862 35.1396 41.2378 35.1338 41.1926 35.1174C41.1475 35.101 41.1067 35.0745 41.0736 35.0399C41.0404 35.0053 41.0157 34.9636 41.0014 34.9181C40.9871 34.8725 40.9836 34.8242 40.9911 34.7771V25.46ZM51.7473 27.7829C53.6714 27.7829 54.747 29.1655 54.747 31.1864C54.747 31.2344 54.7373 31.2819 54.7184 31.3262C54.6995 31.3704 54.6719 31.4103 54.6371 31.4437C54.6023 31.4771 54.5611 31.5031 54.5159 31.5203C54.4707 31.5375 54.4225 31.5455 54.3742 31.5438H49.1932C49.2361 33.3689 50.5003 34.4112 51.9916 34.4112C52.6808 34.4081 53.3491 34.1759 53.8899 33.7518C53.9237 33.7196 53.9646 33.6959 54.0094 33.6825C54.0542 33.6692 54.1015 33.6665 54.1475 33.6748C54.1935 33.6831 54.2369 33.7021 54.2741 33.7303C54.3112 33.7585 54.3411 33.795 54.3613 33.8369L54.477 34.0113C54.5024 34.0482 54.5199 34.0898 54.5287 34.1335C54.5374 34.1773 54.5372 34.2224 54.528 34.2661C54.5188 34.3098 54.5008 34.3512 54.4751 34.3878C54.4494 34.4245 54.4166 34.4556 54.3785 34.4793C53.6847 35.0067 52.8394 35.3003 51.9658 35.3174C51.465 35.3352 50.9659 35.2505 50.4995 35.0685C50.0331 34.8865 49.6094 34.6111 49.2548 34.2595C48.9003 33.9079 48.6224 33.4876 48.4386 33.0248C48.2547 32.562 48.1688 32.0665 48.1862 31.5693C48.1862 29.1953 49.7932 27.7829 51.7473 27.7829V27.7829ZM53.7742 30.8333C53.7185 29.323 52.7972 28.5784 51.7173 28.5784C51.0943 28.5772 50.4936 28.8083 50.0341 29.2258C49.5746 29.6434 49.2898 30.2171 49.2361 30.8333H53.7742ZM59.6194 30.7354H60.048V30.5057C60.048 29.123 59.2852 28.6508 58.2653 28.6508C57.6471 28.6554 57.0421 28.8291 56.5169 29.1528C56.4777 29.1788 56.4335 29.1965 56.3872 29.2047C56.3408 29.213 56.2932 29.2118 56.2474 29.201C56.2016 29.1902 56.1584 29.1702 56.1208 29.1421C56.0831 29.114 56.0516 29.0786 56.0283 29.0379L55.9426 28.8933C55.9131 28.8564 55.892 28.8135 55.8809 28.7677C55.8697 28.7219 55.8688 28.6742 55.8782 28.628C55.8876 28.5818 55.9071 28.5382 55.9352 28.5002C55.9634 28.4623 55.9995 28.4309 56.0412 28.4083C56.735 27.9956 57.5293 27.7793 58.3381 27.7829C60.0522 27.7829 61.025 28.7359 61.025 30.5355V34.7899C61.0318 34.8372 61.0276 34.8855 61.0127 34.9311C60.9979 34.9766 60.9728 35.0182 60.9393 35.0527C60.9059 35.0871 60.8649 35.1135 60.8196 35.1299C60.7743 35.1463 60.7258 35.1522 60.6779 35.1472H60.4251C60.3763 35.1535 60.3267 35.1486 60.2802 35.1328C60.2336 35.1171 60.1914 35.0909 60.1566 35.0564C60.1218 35.0219 60.0955 34.9799 60.0796 34.9337C60.0638 34.8875 60.0588 34.8383 60.0651 34.7899V34.1985C60.0631 34.0175 60.0775 33.8367 60.108 33.6582H60.078C59.8812 34.1398 59.5467 34.5537 59.1156 34.8485C58.6845 35.1434 58.1758 35.3064 57.6525 35.3174C56.4311 35.3174 55.2098 34.6069 55.2098 33.2242C55.2098 30.8631 58.2267 30.7354 59.6194 30.7354V30.7354ZM57.8239 34.4665C59.2166 34.4665 60.0351 33.0413 60.0351 31.7863V31.4459H59.6323C58.4967 31.4459 56.204 31.4884 56.204 33.0966C56.2126 33.7858 56.744 34.4665 57.8239 34.4665ZM62.4177 28.3104C62.411 28.263 62.4152 28.2147 62.43 28.1692C62.4449 28.1236 62.47 28.0821 62.5034 28.0476C62.5369 28.0132 62.5778 27.9867 62.6231 27.9703C62.6684 27.954 62.7169 27.948 62.7649 27.953H62.9963C63.0418 27.9472 63.088 27.9515 63.1316 27.9657C63.1752 27.9798 63.2151 28.0035 63.2483 28.0348C63.2816 28.0662 63.3074 28.1046 63.3238 28.1471C63.3403 28.1896 63.3469 28.2352 63.3434 28.2806V28.7954C63.3447 28.9581 63.3303 29.1205 63.3005 29.2804H63.3262C63.5556 28.8139 63.9168 28.4239 64.3658 28.158C64.8148 27.892 65.3322 27.7617 65.8546 27.7829C67.7958 27.7829 69 29.323 69 31.548C69 33.7731 67.633 35.3174 65.7517 35.3174C65.2561 35.3231 64.769 35.1895 64.3466 34.9321C63.9243 34.6746 63.5839 34.3038 63.3648 33.8624H63.3391C63.3777 34.07 63.3965 34.281 63.3948 34.492V37.6403C63.4002 37.6885 63.3947 37.7374 63.3785 37.7832C63.3624 37.829 63.336 37.8707 63.3014 37.905C63.2669 37.9393 63.2249 37.9655 63.1788 37.9815C63.1326 37.9976 63.0834 38.0031 63.0348 37.9977H62.7649C62.7169 38.0027 62.6684 37.9968 62.6231 37.9804C62.5778 37.964 62.5369 37.9376 62.5034 37.9031C62.47 37.8686 62.4449 37.8271 62.43 37.7815C62.4152 37.736 62.411 37.6877 62.4177 37.6403V28.3104V28.3104ZM65.6489 34.4282C66.9345 34.4282 67.9929 33.3731 67.9929 31.548C67.9929 29.7909 67.0416 28.6678 65.7089 28.6678C64.5004 28.6678 63.3648 29.5187 63.3648 31.5608C63.3648 32.9988 64.1704 34.4282 65.6489 34.4282Z" fill="#6E6F71"/>
<defs>
<linearGradient id="paint0_linear" x1="43.7616" y1="18.2493" x2="51.65" y2="2.64334" gradientUnits="userSpaceOnUse">
<stop stop-color="#D4202C"/>
<stop offset="0.1" stop-color="#DC3D29" stop-opacity="0.79"/>
<stop offset="0.2" stop-color="#E45926" stop-opacity="0.58"/>
<stop offset="0.32" stop-color="#EA7123" stop-opacity="0.4"/>
<stop offset="0.43" stop-color="#F08521" stop-opacity="0.25"/>
<stop offset="0.55" stop-color="#F4941F" stop-opacity="0.14"/>
<stop offset="0.68" stop-color="#F79F1E" stop-opacity="0.06"/>
<stop offset="0.82" stop-color="#F8A51D" stop-opacity="0.02"/>
<stop offset="1" stop-color="#F9A71D" stop-opacity="0"/>
</linearGradient>
<linearGradient id="paint1_linear" x1="25.6647" y1="1.31444" x2="17.7755" y2="16.9222" gradientUnits="userSpaceOnUse">
<stop stop-color="#D4202C"/>
<stop offset="0.1" stop-color="#DC3D29" stop-opacity="0.79"/>
<stop offset="0.2" stop-color="#E45926" stop-opacity="0.58"/>
<stop offset="0.32" stop-color="#EA7123" stop-opacity="0.4"/>
<stop offset="0.43" stop-color="#F08521" stop-opacity="0.25"/>
<stop offset="0.55" stop-color="#F4941F" stop-opacity="0.14"/>
<stop offset="0.68" stop-color="#F79F1E" stop-opacity="0.06"/>
<stop offset="0.82" stop-color="#F8A51D" stop-opacity="0.02"/>
<stop offset="1" stop-color="#F9A71D" stop-opacity="0"/>
</linearGradient>
</defs>
</svg>
