<svg width="69" height="38" viewBox="0 0 69 38" fill="none" xmlns="http://www.w3.org/2000/svg">
<g clip-path="url(#clip0)">
<rect x="1.62354" y="4.85107" width="67.3765" height="23.4466" rx="11.7233" fill="white"/>
<path d="M57.3471 28.4864H12.5692C11.0194 28.4778 9.48681 28.1632 8.05999 27.5608C6.63316 26.9583 5.34047 26.08 4.25674 24.9767C3.17302 23.8733 2.31977 22.5668 1.7464 21.1329C1.17302 19.6989 0.890908 18.1659 0.916378 16.6226C0.901018 15.0867 1.19077 13.563 1.76897 12.1391C2.34717 10.7152 3.20239 9.41921 4.28542 8.32579C5.36845 7.23236 6.6579 6.36305 8.07956 5.76789C9.50122 5.17273 11.027 4.86347 12.5692 4.85791H57.3471C58.8969 4.86646 60.4295 5.18106 61.8563 5.7835C63.2831 6.38594 64.5758 7.26425 65.6595 8.3676C66.7433 9.47095 67.5965 10.7774 68.1699 12.2114C68.7432 13.6454 69.0254 15.1784 68.9999 16.7217C69.0152 18.2575 68.7254 19.7812 68.1472 21.2051C67.5689 22.629 66.7137 23.9249 65.6307 25.0183C64.5477 26.1117 63.2583 26.9811 61.8366 27.5762C60.415 28.1714 58.8892 28.4807 57.3471 28.4864V28.4864ZM12.5692 5.81627C11.1398 5.82188 9.72563 6.10887 8.40801 6.66073C7.09039 7.21258 5.8953 8.01842 4.89146 9.03189C3.88763 10.0454 3.09485 11.2465 2.55871 12.5662C2.02258 13.8859 1.75367 15.2981 1.76745 16.7217C1.75367 18.1453 2.02258 19.5575 2.55871 20.8772C3.09485 22.1969 3.88762 23.398 4.89146 24.4115C5.8953 25.425 7.09039 26.2308 8.40801 26.7827C9.72563 27.3345 11.1398 27.6215 12.5692 27.6271H57.3471C58.7765 27.6215 60.1907 27.3345 61.5083 26.7827C62.8259 26.2308 64.021 25.425 65.0248 24.4115C66.0287 23.398 66.8215 22.1969 67.3576 20.8772C67.8937 19.5575 68.1626 18.1453 68.1488 16.7217C68.1626 15.2981 67.8937 13.8859 67.3576 12.5662C66.8214 11.2465 66.0287 10.0454 65.0248 9.03189C64.021 8.01842 62.8259 7.21258 61.5083 6.66073C60.1907 6.10887 58.7765 5.82188 57.3471 5.81627H12.5692Z" fill="#BBBABA"/>
<path d="M66.3811 4.85107V5.1486H65.9557V6.63625H65.5303V5.1486H65.105V4.85107H66.3811Z" fill="#201600"/>
<path d="M66.5779 6.63625V4.85107H67.0032L67.3312 6.00804L67.6251 4.85107H68.0512V6.63625H67.8548V5.24805L67.4294 6.63625H67.233L66.905 5.24805V6.63625H66.5779Z" fill="#201600"/>
<path d="M12.5694 29.4447C9.21862 29.3951 6.02198 28.0346 3.67005 25.6571C1.31813 23.2795 -0.000244141 20.0759 -0.000244141 16.7382C-0.000244141 13.4006 1.31813 10.1969 3.67005 7.8194C6.02198 5.44186 9.21862 4.08133 12.5694 4.03174C15.9201 4.08133 19.1167 5.44186 21.4687 7.8194C23.8206 10.1969 25.139 13.4006 25.139 16.7382C25.139 20.0759 23.8206 23.2795 21.4687 25.6571C19.1167 28.0346 15.9201 29.3951 12.5694 29.4447V29.4447ZM12.5694 8.06345C10.2818 8.07589 8.09253 8.99092 6.48112 10.608C4.88248 12.2604 3.98048 14.4602 3.96069 16.7548C3.96788 19.0518 4.87171 21.2561 6.48109 22.9015C8.09972 24.5079 10.2844 25.421 12.5693 25.4461C13.7025 25.443 14.8239 25.2166 15.8688 24.7799C16.9138 24.3432 17.8616 23.7048 18.6576 22.9015C20.2562 21.2491 21.1582 19.0493 21.178 16.7548C21.1907 14.4661 20.2915 12.2659 18.6777 10.6366C17.0639 9.00725 14.8672 8.0819 12.5694 8.06345V8.06345" fill="#EFBA44"/>
<path d="M27.168 2.01562H26.2188V2.97398H27.168V2.01562Z" fill="#EFBA44"/>
<path d="M27.168 0H26.2188V0.958358H27.168V0Z" fill="#EFBA44"/>
<path d="M24.4512 2.97412H23.502V3.93248H24.4512V2.97412Z" fill="#EFBA44"/>
<path d="M22.6509 4.89111H21.7017V5.84947H22.6509V4.89111Z" fill="#201600"/>
<path d="M25.4659 4.03174H24.4185V4.9901H25.4659V4.03174Z" fill="#201600"/>
<path d="M21.7017 4.03174H20.7524V4.89096H21.7017V4.03174Z" fill="#201600"/>
<path d="M24.4512 4.89111H23.502V5.84947H24.4512V4.89111Z" fill="#201600"/>
<path d="M26.2188 1.05762H25.2695V2.01598H26.2188V1.05762Z" fill="#201600"/>
<path d="M25.2695 2.01562H23.502V2.97398H25.2695V2.01562Z" fill="#201600"/>
<path d="M23.502 2.97412H22.5527V4.89084H23.502V2.97412Z" fill="#201600"/>
<path d="M22.5527 5.81641V6.77476H21.6035V5.81641H20.0323V6.44429H19.3122V7.30351H20.2614V8.26187H19.3122V7.30351H18.363V8.79061H17.4137V9.74897H16.7918V10.7073H16.1699C15.0242 12.7232 13.8786 14.739 12.9294 16.854C10.8017 13.979 9.2306 12.8223 7.95406 12.3927C7.33214 12.1944 6.48109 12.9215 7.52854 14.0781C9.42847 16.1519 10.8575 18.609 11.7183 21.2823C12.1438 22.2407 14.0096 22.4389 14.3369 21.3814C15.1883 19.0611 16.3205 16.8527 17.7083 14.8051V13.7476H18.4284V12.7893H19.2795V11.7318H20.2287V10.6742H19.2795V9.71594H20.2287V10.6743H21.178V9.71594H21.9308V8.55929H22.7818V7.83226H23.502V5.81641H22.5527Z" fill="#201600"/>
<path d="M5.7937 33.774H6.54655V34.3028C6.66265 34.1343 6.81942 33.9975 7.00245 33.9051C7.18548 33.8128 7.38889 33.7677 7.59398 33.774C7.9586 33.7842 8.30517 33.9343 8.56134 34.1929C8.81751 34.4515 8.96347 34.7987 8.96875 35.162V35.3603C8.98979 35.5556 8.97031 35.7532 8.91152 35.9407C8.85273 36.1283 8.75588 36.3018 8.62698 36.4505C8.49808 36.5993 8.33988 36.72 8.16219 36.8053C7.98449 36.8907 7.7911 36.9387 7.59398 36.9465C7.38889 36.9529 7.18548 36.9078 7.00245 36.8154C6.81942 36.723 6.66265 36.5863 6.54655 36.4178V37.6736H5.82643L5.7937 33.774ZM8.21593 35.2611C8.24222 35.0399 8.18214 34.817 8.04811 34.6387C7.91408 34.4603 7.71635 34.34 7.49581 34.3028H7.39759C7.27714 34.3059 7.15864 34.3338 7.04945 34.3845C6.94027 34.4352 6.84273 34.5078 6.76291 34.5977C6.68308 34.6876 6.62268 34.7929 6.58546 34.907C6.54824 35.0211 6.53499 35.1417 6.54654 35.2611V35.2611C6.51926 35.3723 6.51703 35.4881 6.54001 35.6002C6.56299 35.7123 6.61062 35.818 6.67946 35.9096C6.7483 36.0012 6.83666 36.0765 6.93818 36.1301C7.03971 36.1837 7.15188 36.2142 7.26666 36.2195C7.37826 36.2458 7.49436 36.2471 7.6065 36.2231C7.71865 36.1991 7.82401 36.1505 7.91493 36.0809C8.00586 36.0113 8.08005 35.9223 8.13211 35.8205C8.18417 35.7187 8.21279 35.6067 8.21589 35.4925V35.2611" fill="#201600"/>
<path d="M9.45972 35.261C9.46259 34.8449 9.62838 34.4463 9.9218 34.15C10.2152 33.8538 10.6131 33.6832 11.0309 33.6747C11.2325 33.6679 11.4335 33.7011 11.6221 33.7724C11.8107 33.8438 11.9832 33.9518 12.1295 34.0902C12.2757 34.2287 12.3928 34.3947 12.474 34.5787C12.5551 34.7627 12.5986 34.9609 12.602 35.1618V35.261C12.5992 35.6771 12.4334 36.0757 12.1399 36.3719C11.8465 36.6682 11.4486 36.8387 11.0309 36.8473C10.6149 36.8332 10.2202 36.661 9.92798 36.3659C9.63572 36.0708 9.46813 35.6754 9.45972 35.261V35.261ZM11.9801 35.261C11.9818 35.1358 11.9585 35.0114 11.9115 34.8953C11.8646 34.7791 11.7949 34.6734 11.7066 34.5842C11.6183 34.4951 11.5131 34.4243 11.3971 34.376C11.2811 34.3277 11.1566 34.3028 11.0309 34.3028C10.9051 34.3028 10.7807 34.3277 10.6646 34.376C10.5486 34.4243 10.4434 34.4951 10.3551 34.5842C10.2668 34.6734 10.1972 34.7791 10.1502 34.8953C10.1033 35.0114 10.0799 35.1358 10.0816 35.261V35.261C10.0801 35.5134 10.1792 35.7561 10.3572 35.9358C10.5352 36.1154 10.7775 36.2174 11.0309 36.2194C11.1508 36.2294 11.2716 36.2148 11.3856 36.1763C11.4996 36.1379 11.6044 36.0764 11.6935 35.9958C11.7826 35.9151 11.854 35.8171 11.9033 35.7077C11.9526 35.5983 11.9788 35.48 11.9801 35.3601V35.261" fill="#201600"/>
<path d="M13.0271 33.7734H13.7804L14.304 35.7898L15.024 33.7734H15.5476L16.3009 35.7898L16.9228 33.7734H17.5446L16.5956 36.8474H15.973L15.253 34.7323L14.5987 36.8474H13.9769L13.0271 33.7734Z" fill="#201600"/>
<path d="M17.9701 35.2611C17.9607 35.0602 17.9914 34.8595 18.0606 34.6706C18.1299 34.4817 18.2361 34.3085 18.3731 34.1608C18.5102 34.0132 18.6754 33.8942 18.8591 33.8108C19.0427 33.7273 19.2412 33.6811 19.443 33.6748V33.6748C19.6395 33.6698 19.835 33.705 20.0173 33.7782C20.1996 33.8514 20.3649 33.9611 20.503 34.1005C20.6411 34.2399 20.7489 34.406 20.82 34.5886C20.891 34.7711 20.9237 34.9663 20.916 35.1619V35.4593H18.7229C18.7423 35.6668 18.8419 35.8587 19.0008 35.9943C19.1596 36.13 19.3651 36.1989 19.574 36.1864C19.7309 36.1921 19.8874 36.1657 20.0338 36.1089C20.1802 36.052 20.3133 35.9659 20.425 35.8559L20.8505 36.1864C20.6919 36.3562 20.4992 36.4911 20.2849 36.5822C20.0707 36.6732 19.8396 36.7185 19.6067 36.7151C19.246 36.7588 18.8822 36.6633 18.59 36.4482C18.2978 36.2331 18.0994 35.9147 18.0355 35.5585C17.983 35.4686 17.9601 35.3646 17.9701 35.2611V35.2611ZM20.1631 35.0628C20.1719 34.856 20.103 34.6534 19.9699 34.4945C19.8367 34.3356 19.6489 34.2319 19.443 34.2036C19.3473 34.2023 19.2522 34.2203 19.1636 34.2565C19.075 34.2927 18.9947 34.3464 18.9274 34.4143C18.8602 34.4822 18.8074 34.5629 18.7722 34.6516C18.7371 34.7404 18.7203 34.8353 18.7229 34.9306V35.0297L20.1631 35.0628L20.1631 35.0628Z" fill="#201600"/>
<path d="M21.5381 33.7739H22.2582V34.4018C22.3474 34.1955 22.4928 34.018 22.6778 33.8896C22.8629 33.7611 23.0804 33.6867 23.3056 33.6748V34.4018C23.1652 34.3954 23.0249 34.4185 22.8939 34.4696C22.763 34.5207 22.6443 34.5986 22.5455 34.6983C22.4468 34.798 22.3701 34.9173 22.3206 35.0484C22.2711 35.1795 22.2499 35.3195 22.2582 35.4594V36.7151H21.5381V33.7739Z" fill="#201600"/>
<path d="M23.731 35.2611C23.7216 35.0602 23.7524 34.8595 23.8216 34.6706C23.8908 34.4817 23.9971 34.3085 24.1341 34.1608C24.2712 34.0132 24.4364 33.8942 24.62 33.8108C24.8037 33.7273 25.0022 33.6811 25.204 33.6748V33.6748C25.4005 33.6698 25.596 33.705 25.7783 33.7782C25.9606 33.8514 26.1259 33.9611 26.264 34.1005C26.402 34.2399 26.5099 34.406 26.5809 34.5886C26.652 34.7711 26.6847 34.9663 26.677 35.1619V35.4593H24.4839C24.5033 35.6668 24.6029 35.8587 24.7617 35.9943C24.9205 36.13 25.1261 36.1989 25.3349 36.1864C25.4919 36.1921 25.6484 36.1657 25.7948 36.1089C25.9412 36.052 26.0743 35.9659 26.186 35.8559L26.6115 36.1864C26.4528 36.3562 26.2601 36.4911 26.0459 36.5822C25.8316 36.6732 25.6006 36.7185 25.3677 36.7151C25.007 36.7588 24.6432 36.6633 24.351 36.4482C24.0588 36.2331 23.8604 35.9147 23.7965 35.5585C23.744 35.4686 23.7211 35.3646 23.731 35.2611L23.731 35.2611ZM25.9241 35.0628C25.9329 34.856 25.864 34.6534 25.7309 34.4945C25.5977 34.3356 25.4098 34.2319 25.204 34.2036C25.1082 34.2023 25.0132 34.2203 24.9246 34.2565C24.836 34.2927 24.7557 34.3464 24.6884 34.4143C24.6212 34.4822 24.5684 34.5629 24.5332 34.6516C24.4981 34.7404 24.4813 34.8353 24.4839 34.9306V35.0297L25.9241 35.0628L25.9241 35.0628Z" fill="#201600"/>
<path d="M27.2007 35.261C27.1541 34.9012 27.2465 34.5372 27.4592 34.2426C27.6719 33.9481 27.989 33.7451 28.3463 33.6747H28.5427C28.7478 33.6683 28.9512 33.7134 29.1343 33.8058C29.3173 33.8982 29.4741 34.035 29.5902 34.2035V32.6172H30.3103V36.8472H29.5902V36.3185C29.4741 36.487 29.3173 36.6237 29.1343 36.7161C28.9512 36.8085 28.7478 36.8536 28.5427 36.8472C28.1781 36.8371 27.8315 36.687 27.5754 36.4284C27.3192 36.1697 27.1732 35.8225 27.168 35.4593C27.1947 35.3967 27.2059 35.3287 27.2007 35.261L27.2007 35.261ZM29.6229 35.261C29.6492 35.0398 29.5891 34.8169 29.4551 34.6385C29.3211 34.4602 29.1233 34.3399 28.9028 34.3026H28.8046C28.5972 34.2961 28.3949 34.3671 28.2374 34.5017C28.0799 34.6362 27.9786 34.8246 27.9535 35.0297V35.2279C27.9367 35.3378 27.9419 35.45 27.9689 35.5578C27.996 35.6657 28.0442 35.7671 28.1109 35.8562C28.1776 35.9454 28.2615 36.0204 28.3575 36.077C28.4536 36.1336 28.56 36.1707 28.6705 36.186C28.7811 36.2013 28.8936 36.1946 29.0015 36.1663C29.1094 36.1379 29.2106 36.0885 29.2992 36.0209C29.3878 35.9533 29.4621 35.8688 29.5176 35.7724C29.5732 35.676 29.6089 35.5696 29.6229 35.4593V35.261" fill="#201600"/>
<path d="M33.4852 36.3184V36.7481H32.8633V32.5181H33.5834V34.2035C33.6995 34.0349 33.8563 33.8982 34.0393 33.8058C34.2224 33.7134 34.4258 33.6683 34.6309 33.6747C34.9955 33.6849 35.3421 33.835 35.5982 34.0936C35.8544 34.3522 36.0003 34.6994 36.0056 35.0627V35.2609C36.0267 35.4563 36.0072 35.6539 35.9484 35.8414C35.8896 36.029 35.7928 36.2025 35.6639 36.3512C35.535 36.4999 35.3768 36.6207 35.1991 36.706C35.0214 36.7913 34.828 36.8394 34.6309 36.8472C34.4083 36.892 34.1771 36.8648 33.9711 36.7697C33.765 36.6746 33.5948 36.5165 33.4852 36.3185L33.4852 36.3184ZM35.2855 35.2609C35.3118 35.0397 35.2517 34.8168 35.1177 34.6385C34.9837 34.4601 34.7859 34.3398 34.5654 34.3026H34.4672C34.3467 34.3057 34.2282 34.3336 34.119 34.3843C34.0098 34.4351 33.9123 34.5076 33.8325 34.5975C33.7527 34.6874 33.6923 34.7927 33.655 34.9068C33.6178 35.0209 33.6046 35.1415 33.6161 35.2609V35.2609C33.5993 35.3708 33.6045 35.483 33.6315 35.5908C33.6586 35.6987 33.7068 35.8001 33.7735 35.8892C33.8402 35.9784 33.9241 36.0534 34.0201 36.11C34.1162 36.1666 34.2226 36.2037 34.3331 36.219C34.4437 36.2343 34.5562 36.2276 34.6641 36.1992C34.772 36.1709 34.8732 36.1215 34.9618 36.0539C35.0504 35.9863 35.1247 35.9018 35.1802 35.8054C35.2358 35.709 35.2716 35.6026 35.2855 35.4923V35.2609" fill="#201600"/>
<path d="M36.4313 37.5742L36.6277 37.0454C36.7545 37.1246 36.9042 37.1595 37.0532 37.1445C37.1508 37.1441 37.2455 37.1114 37.3225 37.0516C37.3995 36.9918 37.4544 36.9083 37.4787 36.8141L36.2349 33.7407H36.955L37.8061 35.9549L38.5262 33.7407H39.2463L38.1007 36.8141C38.0823 37.0509 37.9739 37.2718 37.7974 37.4315C37.6209 37.5912 37.3898 37.6777 37.1514 37.6733C36.907 37.7223 36.6532 37.6874 36.4313 37.5742" fill="#201600"/>
<path d="M31.6784 14.8072C31.6784 15.3214 31.4927 15.7265 31.1214 16.0225C30.7526 16.3186 30.2384 16.4666 29.5789 16.4666C28.9712 16.4666 28.4337 16.3523 27.9662 16.1238V15.002C28.3506 15.1734 28.6752 15.2941 28.94 15.3642C29.2075 15.4343 29.4516 15.4694 29.6723 15.4694C29.9372 15.4694 30.1398 15.4188 30.28 15.3175C30.4228 15.2162 30.4942 15.0656 30.4942 14.8657C30.4942 14.754 30.4631 14.6553 30.4007 14.5696C30.3384 14.4813 30.2462 14.3969 30.1242 14.3164C30.0047 14.2359 29.7593 14.1074 29.388 13.9308C29.04 13.7672 28.779 13.6101 28.6051 13.4595C28.4311 13.3089 28.2921 13.1336 28.1883 12.9336C28.0844 12.7337 28.0325 12.5 28.0325 12.2325C28.0325 11.7287 28.2026 11.3327 28.5427 11.0445C28.8855 10.7562 29.3581 10.6121 29.9606 10.6121C30.2566 10.6121 30.5384 10.6472 30.8058 10.7173C31.0759 10.7874 31.3577 10.8861 31.6511 11.0133L31.2616 11.952C30.9578 11.8274 30.7059 11.7404 30.5059 11.6911C30.3086 11.6417 30.1138 11.6171 29.9216 11.6171C29.6931 11.6171 29.5178 11.6703 29.3958 11.7768C29.2737 11.8832 29.2127 12.0222 29.2127 12.1935C29.2127 12.3 29.2374 12.3935 29.2867 12.474C29.3361 12.5519 29.414 12.6285 29.5204 12.7038C29.6295 12.7765 29.8853 12.909 30.2878 13.1011C30.8201 13.3556 31.185 13.6114 31.3823 13.8685C31.5797 14.123 31.6784 14.4359 31.6784 14.8072ZM34.4206 12.7973C34.1687 12.7973 33.9713 12.8778 33.8285 13.0388C33.6857 13.1972 33.6039 13.4231 33.5831 13.7166H35.2503C35.2451 13.4231 35.1685 13.1972 35.0204 13.0388C34.8724 12.8778 34.6725 12.7973 34.4206 12.7973ZM34.5881 16.4666C33.8869 16.4666 33.339 16.2731 32.9443 15.8862C32.5496 15.4993 32.3522 14.9513 32.3522 14.2424C32.3522 13.5127 32.534 12.9492 32.8976 12.5519C33.2637 12.152 33.7688 11.952 34.4128 11.952C35.0282 11.952 35.5073 12.1273 35.8501 12.4779C36.1929 12.8285 36.3643 13.3128 36.3643 13.9308V14.5073H33.5559C33.5688 14.8449 33.6688 15.1085 33.8558 15.298C34.0427 15.4876 34.305 15.5824 34.6426 15.5824C34.9049 15.5824 35.1529 15.5551 35.3866 15.5006C35.6203 15.446 35.8644 15.359 36.1189 15.2396V16.1589C35.9111 16.2627 35.6891 16.3393 35.4528 16.3887C35.2165 16.4406 34.9283 16.4666 34.5881 16.4666ZM39.0987 16.4666C37.7432 16.4666 37.0654 15.7226 37.0654 14.2346C37.0654 13.4945 37.2498 12.9297 37.6185 12.5402C37.9873 12.1481 38.5157 11.952 39.2039 11.952C39.7077 11.952 40.1595 12.0507 40.5594 12.2481L40.2088 13.1673C40.0219 13.092 39.8479 13.031 39.6869 12.9843C39.5259 12.9349 39.3649 12.9103 39.2039 12.9103C38.5858 12.9103 38.2768 13.3491 38.2768 14.2268C38.2768 15.0786 38.5858 15.5045 39.2039 15.5045C39.4324 15.5045 39.644 15.4746 39.8388 15.4149C40.0336 15.3526 40.2283 15.2565 40.4231 15.1266V16.1433C40.2309 16.2653 40.0362 16.3497 39.8388 16.3965C39.644 16.4432 39.3973 16.4666 39.0987 16.4666ZM44.5208 16.3887L44.3611 15.8317H44.2988C44.1716 16.0342 43.9911 16.1913 43.7574 16.303C43.5237 16.412 43.2575 16.4666 42.9589 16.4666C42.4473 16.4666 42.0617 16.3302 41.802 16.0576C41.5423 15.7823 41.4125 15.3876 41.4125 14.8734V12.0338H42.6005V14.5774C42.6005 14.8916 42.6563 15.1279 42.768 15.2863C42.8796 15.4421 43.0575 15.52 43.3016 15.52C43.634 15.52 43.8742 15.4097 44.0222 15.189C44.1703 14.9656 44.2443 14.5969 44.2443 14.0827V12.0338H45.4323V16.3887H44.5208ZM49.1094 11.952C49.2704 11.952 49.4041 11.9637 49.5106 11.9871L49.421 13.1011C49.3249 13.0752 49.208 13.0622 49.0704 13.0622C48.6913 13.0622 48.3952 13.1596 48.1823 13.3543C47.972 13.5491 47.8668 13.8217 47.8668 14.1723V16.3887H46.6788V12.0338H47.5786L47.7538 12.7661H47.8123C47.9473 12.522 48.1291 12.326 48.3576 12.178C48.5887 12.0274 48.8393 11.952 49.1094 11.952ZM52.1048 12.7973C51.8529 12.7973 51.6555 12.8778 51.5127 13.0388C51.3699 13.1972 51.2881 13.4231 51.2673 13.7166H52.9344C52.9293 13.4231 52.8526 13.1972 52.7046 13.0388C52.5566 12.8778 52.3567 12.7973 52.1048 12.7973ZM52.2723 16.4666C51.5711 16.4666 51.0232 16.2731 50.6285 15.8862C50.2338 15.4993 50.0364 14.9513 50.0364 14.2424C50.0364 13.5127 50.2182 12.9492 50.5817 12.5519C50.9479 12.152 51.453 11.952 52.097 11.952C52.7124 11.952 53.1915 12.1273 53.5343 12.4779C53.8771 12.8285 54.0485 13.3128 54.0485 13.9308V14.5073H51.24C51.253 14.8449 51.353 15.1085 51.54 15.298C51.7269 15.4876 51.9892 15.5824 52.3268 15.5824C52.5891 15.5824 52.8371 15.5551 53.0708 15.5006C53.3045 15.446 53.5486 15.359 53.8031 15.2396V16.1589C53.5953 16.2627 53.3733 16.3393 53.137 16.3887C52.9007 16.4406 52.6124 16.4666 52.2723 16.4666ZM56.3934 16.4666C55.8818 16.4666 55.4793 16.2679 55.1859 15.8706C54.895 15.4733 54.7496 14.9228 54.7496 14.219C54.7496 13.5049 54.8976 12.9492 55.1937 12.5519C55.4923 12.152 55.9026 11.952 56.4245 11.952C56.9725 11.952 57.3905 12.165 57.6788 12.5909H57.7177C57.658 12.2663 57.6282 11.9767 57.6282 11.7222V10.3277H58.8201V16.3887H57.9086L57.6788 15.8239H57.6282C57.3581 16.2523 56.9465 16.4666 56.3934 16.4666ZM56.8102 15.52C57.114 15.52 57.336 15.4318 57.4762 15.2552C57.6191 15.0786 57.697 14.7787 57.71 14.3554V14.2268C57.71 13.7594 57.6372 13.4244 57.4918 13.2219C57.349 13.0193 57.1153 12.9181 56.7907 12.9181C56.5258 12.9181 56.3194 13.031 56.1714 13.2569C56.0259 13.4803 55.9532 13.8062 55.9532 14.2346C55.9532 14.6631 56.0272 14.9851 56.1752 15.2006C56.3233 15.4136 56.5349 15.52 56.8102 15.52Z" fill="black"/>
<path d="M31.4363 20.4411C31.4363 20.8841 31.2847 21.2253 30.9814 21.4647C30.6801 21.7022 30.2481 21.8209 29.6853 21.8209H29.1705V23.542H28.6617V19.166H29.7961C30.8896 19.166 31.4363 19.591 31.4363 20.4411ZM29.1705 21.3839H29.6285C30.0794 21.3839 30.4057 21.3111 30.6072 21.1654C30.8088 21.0198 30.9095 20.7863 30.9095 20.465C30.9095 20.1757 30.8148 19.9602 30.6252 19.8185C30.4356 19.6768 30.1403 19.606 29.7392 19.606H29.1705V21.3839ZM35.1059 23.542L34.5612 22.1502H32.8072L32.2684 23.542H31.7536L33.4836 19.148H33.9117L35.6327 23.542H35.1059ZM34.4025 21.6922L33.8937 20.3363C33.8279 20.1647 33.76 19.9542 33.6902 19.7048C33.6463 19.8963 33.5834 20.1069 33.5016 20.3363L32.9868 21.6922H34.4025ZM37.3478 21.354L38.5151 19.166H39.0659L37.6052 21.8449V23.542H37.0904V21.8688L35.6327 19.166H36.1895L37.3478 21.354ZM41.6071 23.542L40.1225 19.6629H40.0985C40.1264 19.9702 40.1404 20.3353 40.1404 20.7584V23.542H39.6705V19.166H40.4367L41.8226 22.7757H41.8465L43.2443 19.166H44.0046V23.542H43.4957V20.7224C43.4957 20.3992 43.5097 20.048 43.5376 19.6689H43.5137L42.0171 23.542H41.6071ZM47.6472 23.542H45.2078V19.166H47.6472V19.618H45.7167V21.0277H47.5305V21.4767H45.7167V23.087H47.6472V23.542ZM52.0382 23.542H51.4575L49.066 19.8694H49.042C49.074 20.3004 49.0899 20.6955 49.0899 21.0547V23.542H48.62V19.166H49.1947L51.5802 22.8236H51.6042C51.6002 22.7698 51.5912 22.5972 51.5772 22.3058C51.5633 22.0125 51.5583 21.803 51.5623 21.6773V19.166H52.0382V23.542ZM54.5883 23.542H54.0795V19.618H52.6937V19.166H55.9742V19.618H54.5883V23.542ZM59.105 22.3777C59.105 22.7628 58.9653 23.0631 58.686 23.2786C58.4066 23.4941 58.0275 23.6019 57.5486 23.6019C57.0298 23.6019 56.6307 23.535 56.3513 23.4013V22.9104C56.5309 22.9863 56.7265 23.0461 56.938 23.09C57.1495 23.1339 57.359 23.1559 57.5665 23.1559C57.9058 23.1559 58.1612 23.092 58.3328 22.9643C58.5044 22.8346 58.5902 22.655 58.5902 22.4255C58.5902 22.2739 58.5593 22.1502 58.4974 22.0544C58.4375 21.9566 58.3358 21.8668 58.1921 21.785C58.0504 21.7032 57.8339 21.6104 57.5426 21.5067C57.1355 21.361 56.8442 21.1884 56.6686 20.9888C56.495 20.7893 56.4082 20.5289 56.4082 20.2076C56.4082 19.8704 56.5349 19.602 56.7883 19.4025C57.0417 19.2029 57.377 19.1032 57.794 19.1032C58.229 19.1032 58.6291 19.183 58.9943 19.3426L58.8356 19.7856C58.4745 19.6339 58.1233 19.5581 57.782 19.5581C57.5127 19.5581 57.3021 19.616 57.1505 19.7317C56.9988 19.8474 56.923 20.0081 56.923 20.2136C56.923 20.3653 56.9509 20.49 57.0068 20.5878C57.0627 20.6835 57.1565 20.7723 57.2882 20.8541C57.4219 20.934 57.6254 21.0228 57.8988 21.1205C58.3577 21.2842 58.673 21.4598 58.8446 21.6473C59.0182 21.8349 59.105 22.0783 59.105 22.3777Z" fill="#BBBABA"/>
<path d="M43.8534 33.5383C43.8534 33.9995 43.6955 34.3547 43.3797 34.604C43.0661 34.8512 42.6163 34.9748 42.0305 34.9748H41.4945V36.7666H40.9647V32.2108H42.1457C43.2842 32.2108 43.8534 32.6533 43.8534 33.5383ZM41.4945 34.5199H41.9712C42.4407 34.5199 42.7804 34.444 42.9902 34.2924C43.2 34.1407 43.305 33.8977 43.305 33.5632C43.305 33.262 43.2063 33.0376 43.0089 32.8901C42.8116 32.7426 42.5041 32.6689 42.0865 32.6689H41.4945V34.5199ZM46.8324 36.7666L46.7296 36.2805H46.7047C46.5343 36.4945 46.364 36.6399 46.1936 36.7167C46.0254 36.7915 45.8145 36.8289 45.5611 36.8289C45.2224 36.8289 44.9565 36.7417 44.7633 36.5672C44.5722 36.3927 44.4766 36.1444 44.4766 35.8224C44.4766 35.1327 45.0282 34.7712 46.1313 34.738L46.7109 34.7193V34.5074C46.7109 34.2394 46.6527 34.042 46.5364 33.9153C46.4222 33.7865 46.2383 33.7221 45.9849 33.7221C45.7002 33.7221 45.3782 33.8094 45.0188 33.9839L44.8599 33.5881C45.0282 33.4967 45.212 33.425 45.4115 33.3731C45.613 33.3212 45.8145 33.2952 46.016 33.2952C46.4232 33.2952 46.7244 33.3856 46.9197 33.5663C47.1171 33.747 47.2157 34.0368 47.2157 34.4357V36.7666H46.8324ZM45.6639 36.402C45.9859 36.402 46.2383 36.3137 46.4211 36.1371C46.606 35.9606 46.6985 35.7133 46.6985 35.3955V35.087L46.1812 35.1088C45.7698 35.1233 45.4728 35.1877 45.29 35.302C45.1092 35.4142 45.0188 35.5897 45.0188 35.8286C45.0188 36.0156 45.0749 36.1579 45.1871 36.2556C45.3014 36.3532 45.4603 36.402 45.6639 36.402ZM47.7424 33.3513H48.297L49.0449 35.2989C49.209 35.7435 49.3108 36.0644 49.3503 36.2618H49.3752C49.4022 36.1558 49.4583 35.9751 49.5435 35.7196C49.6308 35.462 49.9133 34.6725 50.3911 33.3513H50.9458L49.4781 37.2403C49.3326 37.6246 49.1623 37.8967 48.967 38.0567C48.7738 38.2187 48.5359 38.2998 48.2534 38.2998C48.0955 38.2998 47.9397 38.2821 47.786 38.2468V37.8323C47.9003 37.8573 48.028 37.8697 48.1693 37.8697C48.5245 37.8697 48.778 37.6703 48.9296 37.2714L49.1197 36.7853L47.7424 33.3513ZM54.467 33.5383C54.467 33.9995 54.3091 34.3547 53.9934 34.604C53.6797 34.8512 53.2299 34.9748 52.6441 34.9748H52.1081V36.7666H51.5784V32.2108H52.7594C53.8978 32.2108 54.467 32.6533 54.467 33.5383ZM52.1081 34.5199H52.5849C53.0544 34.5199 53.394 34.444 53.6039 34.2924C53.8137 34.1407 53.9186 33.8977 53.9186 33.5632C53.9186 33.262 53.8199 33.0376 53.6226 32.8901C53.4252 32.7426 53.1177 32.6689 52.7002 32.6689H52.1081V34.5199ZM57.4461 36.7666L57.3432 36.2805H57.3183C57.148 36.4945 56.9776 36.6399 56.8073 36.7167C56.639 36.7915 56.4281 36.8289 56.1747 36.8289C55.8361 36.8289 55.5701 36.7417 55.3769 36.5672C55.1858 36.3927 55.0903 36.1444 55.0903 35.8224C55.0903 35.1327 55.6418 34.7712 56.7449 34.738L57.3245 34.7193V34.5074C57.3245 34.2394 57.2664 34.042 57.15 33.9153C57.0358 33.7865 56.8519 33.7221 56.5985 33.7221C56.3139 33.7221 55.9919 33.8094 55.6325 33.9839L55.4735 33.5881C55.6418 33.4967 55.8257 33.425 56.0251 33.3731C56.2266 33.3212 56.4281 33.2952 56.6296 33.2952C57.0368 33.2952 57.338 33.3856 57.5333 33.5663C57.7307 33.747 57.8294 34.0368 57.8294 34.4357V36.7666H57.4461ZM56.2775 36.402C56.5995 36.402 56.8519 36.3137 57.0347 36.1371C57.2196 35.9606 57.3121 35.7133 57.3121 35.3955V35.087L56.7948 35.1088C56.3835 35.1233 56.0864 35.1877 55.9036 35.302C55.7228 35.4142 55.6325 35.5897 55.6325 35.8286C55.6325 36.0156 55.6886 36.1579 55.8007 36.2556C55.915 36.3532 56.0739 36.402 56.2775 36.402ZM59.4155 36.7666H58.8982V31.9179H59.4155V36.7666Z" fill="#CCCBCB"/>
</g>
<defs>
<clipPath id="clip0">
<rect width="69" height="38" fill="white"/>
</clipPath>
</defs>
</svg>
