<svg width="91" height="37" viewBox="0 0 91 37" fill="none" xmlns="http://www.w3.org/2000/svg">
<g clip-path="url(#clip0)">
<g clip-path="url(#clip1)">
<path d="M17.5797 37C17.5797 37 -2.10889 30.1968 0.186106 2.50645C5.85719 0.965347 11.6994 0.123469 17.5797 0C23.5037 0.0752676 29.392 0.917938 35.0942 2.50645C37.3892 30.1968 17.5797 37 17.5797 37Z" fill="url(#paint0_linear)"/>
<path d="M17.5797 37C17.5797 37 -2.10889 30.1968 0.186106 2.50645C5.85719 0.965347 11.6994 0.123469 17.5797 0C23.5037 0.0752676 29.392 0.917938 35.0942 2.50645L33.2823 4.17742L17.5797 35.2097V37V37Z" fill="url(#paint1_linear)"/>
<path d="M17.5797 35.2099C17.5797 35.2099 -0.297112 29.1228 1.7563 4.05827C6.91528 2.65734 12.2305 1.89558 17.5797 1.79053C22.9292 1.89208 28.2448 2.6539 33.4031 4.05827C35.4565 29.1228 17.5797 35.2099 17.5797 35.2099Z" fill="white" stroke="#1F1E21" stroke-width="0.705056" stroke-linecap="round"/>
<path d="M17.5797 35.2099C17.5797 35.2099 -0.297112 29.1228 1.7563 4.05827C6.91528 2.65734 12.2305 1.89558 17.5797 1.79053C22.9292 1.89208 28.2448 2.6539 33.4031 4.05827C35.4565 29.1228 17.5797 35.2099 17.5797 35.2099Z" fill="white"/>
<path d="M1.75633 3.8195H1.63554V3.93885C0.548439 16.9485 5.01764 24.826 8.88289 29.1227C11.3019 31.8612 14.3163 34.0237 17.7005 35.4485H17.9421C21.3263 34.0237 24.3407 31.8612 26.7597 29.1227C30.6249 24.826 35.0941 16.9485 34.007 3.93885V3.8195H33.8862C28.5706 2.38064 23.0908 1.61856 17.5797 1.55176C12.2316 1.66975 6.91799 2.43128 1.75633 3.8195V3.8195ZM17.8213 1.90982C23.0517 2.01167 28.2475 2.77376 33.2823 4.17756C33.4031 5.49047 33.4031 6.92273 33.4031 8.11627C33.4031 18.6195 29.5378 25.4227 26.1557 29.1227C23.8152 31.7834 20.8787 33.8677 17.5797 35.2098C14.2807 33.8677 11.3442 31.7834 9.00368 29.1227C5.62158 25.3034 1.75633 18.7389 1.75633 8.11627C1.75633 6.92273 1.87712 5.49047 1.99791 4.17756C7.16965 2.83788 12.4775 2.07718 17.8213 1.90982V1.90982Z" fill="url(#paint2_linear)"/>
<path d="M17.5798 32.1064C17.5798 32.1064 2.60199 26.616 4.29304 5.49023C4.29304 5.49023 10.8157 5.96765 17.5798 5.96765C24.344 5.96765 30.6251 5.49023 30.8667 5.49023C32.5577 26.616 17.5798 32.1064 17.5798 32.1064Z" fill="url(#paint3_linear)"/>
<path d="M17.5798 30.316C17.5798 30.316 4.65539 25.5418 6.10486 7.3999C6.10486 7.3999 11.7819 7.87732 17.5798 7.87732C23.3777 7.87732 28.934 7.3999 29.0548 7.3999C30.5043 25.5418 17.5798 30.316 17.5798 30.316Z" fill="url(#paint4_radial)"/>
<path d="M30.8666 5.61035C30.625 5.61035 24.2232 6.08777 17.5798 6.08777C10.9364 6.08777 4.29297 5.61035 4.29297 5.61035L6.10481 7.40067C6.10481 7.40067 11.7819 7.87809 17.5798 7.87809C23.3777 7.87809 28.934 7.40067 29.0547 7.40067L30.8666 5.61035Z" fill="#771A29"/>
<path d="M17.5798 32.1064C17.5798 32.1064 2.60199 26.616 4.29304 5.49023L6.10488 7.28056C4.65541 25.4225 17.5798 30.1967 17.5798 30.1967V32.1064Z" fill="url(#paint5_linear)"/>
<path d="M10.9629 15.0739L14.8594 24.6665L19.3172 24.6665L27.4073 9.59243L24.6666 9.59243L17.1296 21.2406L14.9749 15.0739L10.9629 15.0739Z" fill="white"/>
</g>
<path d="M59.4139 17.2978C59.4139 18.7931 58.9985 19.9383 58.1679 20.7333C57.3452 21.5284 56.1551 21.9259 54.5976 21.9259C53.0721 21.9259 51.7741 21.6524 50.7039 21.1053V18.1622C52.0138 18.9426 53.2158 19.3329 54.3101 19.3329C54.9331 19.3329 55.4003 19.176 55.7118 18.8624C56.0313 18.5487 56.191 18.122 56.191 17.5823C56.191 17.0498 56.0033 16.5648 55.6279 16.1271C55.2526 15.6822 54.6335 15.1898 53.7709 14.6501C53.0201 14.176 52.4491 13.7237 52.0577 13.2934C51.6743 12.8557 51.3748 12.367 51.1591 11.8273C50.9515 11.2875 50.8476 10.6602 50.8476 9.94541C50.8476 8.57412 51.263 7.48731 52.0936 6.68496C52.9323 5.88262 54.0545 5.48145 55.4602 5.48145C56.8021 5.48145 58.092 5.82427 59.33 6.50991L58.2517 8.89506C57.8683 8.69083 57.465 8.50848 57.0417 8.34801C56.6263 8.18754 56.1791 8.1073 55.6998 8.1073C55.1727 8.1073 54.7653 8.26777 54.4778 8.58871C54.1982 8.90236 54.0585 9.33271 54.0585 9.87976C54.0585 10.4195 54.2262 10.89 54.5617 11.2912C54.9051 11.6923 55.5002 12.1482 56.3468 12.6588C57.489 13.359 58.2837 14.0738 58.731 14.8032C59.1862 15.5327 59.4139 16.3642 59.4139 17.2978Z" fill="black"/>
<path d="M69.5496 17.2978C69.5496 18.7931 69.1343 19.9383 68.3036 20.7333C67.4809 21.5284 66.2908 21.9259 64.7333 21.9259C63.2078 21.9259 61.9099 21.6524 60.8396 21.1053V18.1622C62.1495 18.9426 63.3515 19.3329 64.4458 19.3329C65.0688 19.3329 65.536 19.176 65.8475 18.8624C66.167 18.5487 66.3268 18.122 66.3268 17.5823C66.3268 17.0498 66.1391 16.5648 65.7637 16.1271C65.3883 15.6822 64.7693 15.1898 63.9067 14.6501C63.1559 14.176 62.5848 13.7237 62.1934 13.2934C61.81 12.8557 61.5105 12.367 61.2948 11.8273C61.0872 11.2875 60.9833 10.6602 60.9833 9.94541C60.9833 8.57412 61.3987 7.48731 62.2293 6.68496C63.068 5.88262 64.1902 5.48145 65.5959 5.48145C66.9378 5.48145 68.2277 5.82427 69.4657 6.50991L68.3875 8.89506C68.0041 8.69083 67.6007 8.50848 67.1774 8.34801C66.7621 8.18754 66.3148 8.1073 65.8356 8.1073C65.3084 8.1073 64.9011 8.26777 64.6135 8.58871C64.334 8.90236 64.1942 9.33271 64.1942 9.87976C64.1942 10.4195 64.3619 10.89 64.6974 11.2912C65.0408 11.6923 65.6359 12.1482 66.4825 12.6588C67.6247 13.359 68.4194 14.0738 68.8667 14.8032C69.322 15.5327 69.5496 16.3642 69.5496 17.2978Z" fill="black"/>
<path d="M71.7061 21.7071V5.71121H74.9649V19.1031H79.4816V21.7071H71.7061Z" fill="black"/>
<path d="M46.2582 30.1696C46.2582 31.0121 45.9322 31.6759 45.2802 32.1609C44.6328 32.646 43.7301 32.8885 42.572 32.8885C41.5052 32.8885 40.5614 32.7013 39.7407 32.3268V30.4887C40.4155 30.7696 40.9854 30.9674 41.4505 31.0823C41.9201 31.1972 42.3486 31.2546 42.7362 31.2546C43.2012 31.2546 43.5568 31.1717 43.803 31.0057C44.0538 30.8398 44.1792 30.593 44.1792 30.2654C44.1792 30.0824 44.1245 29.9207 44.015 29.7803C43.9056 29.6356 43.7438 29.4974 43.5295 29.3655C43.3198 29.2336 42.8889 29.0229 42.2369 28.7336C41.626 28.4656 41.1678 28.2081 40.8623 27.9614C40.5568 27.7146 40.3129 27.4274 40.1305 27.0997C39.9482 26.7721 39.857 26.3892 39.857 25.9509C39.857 25.1255 40.1556 24.4766 40.7529 24.0043C41.3547 23.532 42.1845 23.2959 43.2422 23.2959C43.762 23.2959 44.2567 23.3533 44.7263 23.4682C45.2005 23.5831 45.6951 23.7448 46.2103 23.9533L45.5264 25.4914C44.993 25.2872 44.5508 25.1446 44.1997 25.0638C43.8532 24.983 43.5112 24.9425 43.1739 24.9425C42.7726 24.9425 42.4649 25.0298 42.2506 25.2042C42.0363 25.3787 41.9292 25.6063 41.9292 25.8871C41.9292 26.0616 41.9725 26.2147 42.0591 26.3466C42.1457 26.4743 42.2825 26.5998 42.4694 26.7232C42.6609 26.8423 43.11 27.0593 43.8167 27.3742C44.7514 27.7912 45.3919 28.2103 45.7384 28.6315C46.085 29.0485 46.2582 29.5612 46.2582 30.1696Z" fill="black"/>
<path d="M53.8289 32.7608H48.0705V23.4299H53.8289V25.051H50.1906V27.0997H53.5758V28.7209H50.1906V31.127H53.8289V32.7608Z" fill="black"/>
<path d="M60.1686 24.9425C59.3707 24.9425 58.7529 25.2234 58.3152 25.785C57.8775 26.3424 57.6587 27.121 57.6587 28.1209C57.6587 30.2015 58.4953 31.2419 60.1686 31.2419C60.8707 31.2419 61.721 31.078 62.7195 30.7504V32.4098C61.8988 32.7289 60.9824 32.8885 59.9702 32.8885C58.5158 32.8885 57.4034 32.4779 56.6328 31.6567C55.8623 30.8313 55.4771 29.6484 55.4771 28.1082C55.4771 27.138 55.6663 26.2892 56.0447 25.5616C56.4231 24.8298 56.9657 24.2703 57.6724 23.8831C58.3836 23.4916 59.2157 23.2959 60.1686 23.2959C61.1397 23.2959 62.1154 23.515 63.0956 23.9533L62.4117 25.5616C62.0379 25.3957 61.6617 25.251 61.2833 25.1276C60.9049 25.0042 60.5333 24.9425 60.1686 24.9425Z" fill="black"/>
<path d="M72.9915 23.4299V29.4676C72.9915 30.1569 72.8251 30.7611 72.4923 31.2802C72.164 31.7992 71.6876 32.1971 71.0629 32.4736C70.4383 32.7502 69.6997 32.8885 68.8471 32.8885C67.5614 32.8885 66.5629 32.5821 65.8517 31.9694C65.1404 31.3525 64.7848 30.51 64.7848 29.4421V23.4299H66.898V29.1421C66.898 29.8612 67.0531 30.3888 67.3631 30.7249C67.6731 31.061 68.186 31.2291 68.9018 31.2291C69.5949 31.2291 70.0964 31.061 70.4064 30.7249C70.721 30.3845 70.8783 29.8526 70.8783 29.1293V23.4299H72.9915Z" fill="black"/>
<path d="M77.5599 27.572H78.2438C78.914 27.572 79.4087 27.4678 79.7278 27.2593C80.047 27.0508 80.2066 26.7232 80.2066 26.2764C80.2066 25.8339 80.0424 25.5191 79.7142 25.3319C79.3905 25.1446 78.8867 25.051 78.2028 25.051H77.5599V27.572ZM77.5599 29.1804V32.7608H75.4398V23.4299H78.3532C79.7119 23.4299 80.7172 23.6618 81.3692 24.1256C82.0212 24.5851 82.3472 25.285 82.3472 26.2254C82.3472 26.7743 82.1853 27.2636 81.8616 27.6933C81.5379 28.1188 81.0797 28.4528 80.487 28.6953C81.9915 30.793 82.9718 32.1481 83.4277 32.7608H81.0751L78.6883 29.1804H77.5599Z" fill="black"/>
<path d="M90.4444 32.7608H84.6861V23.4299H90.4444V25.051H86.8061V27.0997H90.1914V28.7209H86.8061V31.127H90.4444V32.7608Z" fill="black"/>
</g>
<defs>
<linearGradient id="paint0_linear" x1="7.07039" y1="29.3471" x2="25.9019" y2="-6.12763" gradientUnits="userSpaceOnUse">
<stop stop-color="#636465"/>
<stop offset="0.0298" stop-color="#676869"/>
<stop offset="0.2659" stop-color="#828384"/>
<stop offset="0.5054" stop-color="#969798"/>
<stop offset="0.7484" stop-color="#A1A2A3"/>
<stop offset="1" stop-color="#A5A6A7"/>
</linearGradient>
<linearGradient id="paint1_linear" x1="25.1253" y1="19.2228" x2="0.645998" y2="2.83212" gradientUnits="userSpaceOnUse">
<stop stop-color="#C4C5C6"/>
<stop offset="0.0977" stop-color="#DCDDDD"/>
<stop offset="0.2067" stop-color="#F0F0F0"/>
<stop offset="0.3177" stop-color="#FBFBFB"/>
<stop offset="0.4326" stop-color="white"/>
<stop offset="0.5353" stop-color="#F6F7F7"/>
<stop offset="0.7001" stop-color="#DFDFE0"/>
<stop offset="0.905" stop-color="#B9BABB"/>
<stop offset="1" stop-color="#A5A6A7"/>
</linearGradient>
<linearGradient id="paint2_linear" x1="31.2902" y1="23.5348" x2="5.61161" y2="5.95525" gradientUnits="userSpaceOnUse">
<stop stop-color="#4C4C4E"/>
<stop offset="0.2192" stop-color="#636365"/>
<stop offset="0.4734" stop-color="#767778"/>
<stop offset="0.7321" stop-color="#818283"/>
<stop offset="1" stop-color="#858687"/>
</linearGradient>
<linearGradient id="paint3_linear" x1="6.09732" y1="22.4595" x2="28.0577" y2="6.59522" gradientUnits="userSpaceOnUse">
<stop stop-color="#771A29"/>
<stop offset="0.6067" stop-color="#AD0335"/>
<stop offset="0.7079" stop-color="#AC0335"/>
<stop offset="1" stop-color="#761F40"/>
</linearGradient>
<radialGradient id="paint4_radial" cx="0" cy="0" r="1" gradientUnits="userSpaceOnUse" gradientTransform="translate(14.0104 11.0656) scale(23.309 23.6105)">
<stop stop-color="#AD0335"/>
<stop offset="0.4607" stop-color="#AC0335"/>
<stop offset="1" stop-color="#761F40"/>
</radialGradient>
<linearGradient id="paint5_linear" x1="67.6636" y1="1439.22" x2="449.372" y2="1217.24" gradientUnits="userSpaceOnUse">
<stop stop-color="#771A29"/>
<stop offset="0.6067" stop-color="#AD0335"/>
<stop offset="0.7079" stop-color="#AC0335"/>
<stop offset="1" stop-color="#761F40"/>
</linearGradient>
<clipPath id="clip0">
<rect width="90.4444" height="37" fill="white"/>
</clipPath>
<clipPath id="clip1">
<rect width="101.407" height="37" fill="white"/>
</clipPath>
</defs>
</svg>
