<svg width="240" height="60" viewBox="0 0 240 60" fill="none" xmlns="http://www.w3.org/2000/svg">
<g clip-path="url(#clip0)">
<path d="M132.9 42.75C132.9 43.95 131.95 45.05 130.05 46.05C128.15 47.0167 125.8 47.5 123 47.5C118.3 47.5 114.533 45.9333 111.7 42.8C108.867 39.6333 107.45 35.5 107.45 30.4C107.45 25.0667 108.867 20.9 111.7 17.9C114.533 14.8667 118.367 13.35 123.2 13.35C125.8 13.35 127.983 13.8833 129.75 14.95C131.517 15.9833 132.4 17.2667 132.4 18.8C132.4 20.1667 131.45 21 129.55 21.3C128.917 19.6667 127.917 18.45 126.55 17.65C125.183 16.8167 123.733 16.4 122.2 16.4C119.067 16.4 116.5 17.65 114.5 20.15C112.533 22.6167 111.55 25.7 111.55 29.4C111.55 33.6667 112.55 37.25 114.55 40.15C116.55 43.0167 119.333 44.45 122.9 44.45C125.567 44.45 127.717 43.65 129.35 42.05C129.283 37.8833 129.167 34.5167 129 31.95C129.567 31.85 130.167 31.8 130.8 31.8C132.433 31.8 133.25 32.4333 133.25 33.7L133.1 36.9C132.967 39.0333 132.9 40.9833 132.9 42.75ZM155.262 43.5C155.995 44.2333 156.795 44.6 157.662 44.6C157.828 44.6 158.178 44.5667 158.712 44.5C158.945 44.9667 159.062 45.4 159.062 45.8C159.062 46.8333 157.978 47.35 155.812 47.35C154.845 47.35 153.912 47 153.012 46.3C152.112 45.5667 151.245 44.5333 150.412 43.2C149.578 41.8333 148.928 40.7 148.462 39.8C148.028 38.8667 147.495 37.6833 146.862 36.25C146.228 36.1167 145.912 35.7833 145.912 35.25C145.912 34.9167 146.028 34.4167 146.262 33.75C146.995 33.9167 147.628 34 148.162 34C149.695 34 150.945 33.5333 151.912 32.6C152.878 31.6333 153.362 30.3333 153.362 28.7C153.362 26.7667 152.828 25.4167 151.762 24.65C150.695 23.8833 149.062 23.5 146.862 23.5C146.662 23.5 145.662 23.55 143.862 23.65C143.995 25.1833 144.062 27.8 144.062 31.5V39.2C144.062 42.6667 144.312 45.2167 144.812 46.85C144.245 47.0167 143.512 47.1 142.612 47.1C141.712 47.1 141.095 46.9333 140.762 46.6C140.462 46.2667 140.312 45.7 140.312 44.9C140.312 44.5 140.328 43.4833 140.362 41.85C140.395 40.2167 140.412 38.9333 140.412 38V30.2C140.412 26.5333 140.228 23.55 139.862 21.25C141.662 20.95 143.762 20.8 146.162 20.8C153.628 20.8 157.362 23.4167 157.362 28.65C157.362 30.7167 156.762 32.4 155.562 33.7C154.395 35 152.828 35.8667 150.862 36.3C152.895 40.2 154.362 42.6 155.262 43.5ZM168.716 24C168.816 24.8 168.866 27.3833 168.866 31.75H172.066C174.3 31.75 175.9 31.7 176.866 31.6C176.966 31.8667 177.016 32.2333 177.016 32.7C177.016 33.3667 176.866 33.8333 176.566 34.1C176.3 34.3333 175.866 34.4667 175.266 34.5C174.566 34.5333 173.616 34.55 172.416 34.55H168.866C168.866 39.9167 168.966 43.15 169.166 44.25C170.366 44.3167 171.333 44.35 172.066 44.35C176.466 44.35 179.35 44.05 180.716 43.45C180.95 44.05 181.066 44.6833 181.066 45.35C181.066 45.8833 180.933 46.2667 180.666 46.5C180.166 46.8667 177.9 47.05 173.866 47.05C173.066 47.05 171.783 47.0333 170.016 47C168.25 47 167.333 47 167.266 47C166.433 46.9667 165.866 46.7833 165.566 46.45C165.3 46.1167 165.166 45.5667 165.166 44.8C165.166 44.3333 165.183 43.3167 165.216 41.75C165.25 40.15 165.266 38.9 165.266 38V30.35C165.266 26.55 165.066 23.5667 164.666 21.4C167.933 21.1667 170.983 21.05 173.816 21.05C177.85 21.05 180.116 21.25 180.616 21.65C180.883 21.8833 181.016 22.2667 181.016 22.8C181.016 23.4667 180.9 24.1 180.666 24.7C179.066 24.1667 176.566 23.9 173.166 23.9C171.866 23.9 170.383 23.9333 168.716 24ZM204.58 41.35C205.88 41.8833 206.53 42.6333 206.53 43.6C206.53 44.6 205.746 45.4833 204.18 46.25C202.613 46.9833 200.646 47.35 198.28 47.35C194.38 47.35 191.246 46.1333 188.88 43.7C186.513 41.2667 185.33 38.0667 185.33 34.1C185.33 29.9333 186.496 26.6833 188.83 24.35C191.196 21.9833 194.413 20.8 198.48 20.8C200.646 20.8 202.463 21.2167 203.93 22.05C205.396 22.85 206.13 23.85 206.13 25.05C206.13 26.2833 205.213 27.05 203.38 27.35C202.913 26.1167 202.13 25.1833 201.03 24.55C199.963 23.8833 198.83 23.55 197.63 23.55C195.196 23.55 193.196 24.4833 191.63 26.35C190.063 28.2167 189.28 30.5333 189.28 33.3C189.28 36.5333 190.063 39.2333 191.63 41.4C193.196 43.5667 195.396 44.65 198.23 44.65C199.496 44.65 200.696 44.3667 201.83 43.8C202.996 43.2333 203.913 42.4167 204.58 41.35ZM223.811 47.35C219.944 47.35 216.861 46.15 214.561 43.75C212.261 41.35 211.111 38.1333 211.111 34.1C211.111 30.0333 212.261 26.8 214.561 24.4C216.861 22 219.944 20.8 223.811 20.8C227.711 20.8 230.811 22 233.111 24.4C235.444 26.8 236.611 30.0333 236.611 34.1C236.611 38.1333 235.444 41.35 233.111 43.75C230.811 46.15 227.711 47.35 223.811 47.35ZM232.611 34.8C232.611 32.9 232.344 31.1333 231.811 29.5C231.278 27.8667 230.311 26.4667 228.911 25.3C227.544 24.1333 225.861 23.55 223.861 23.55C221.161 23.55 219.011 24.4333 217.411 26.2C215.844 27.9667 215.061 30.2167 215.061 32.95C215.061 34.95 215.328 36.8 215.861 38.5C216.394 40.2 217.344 41.65 218.711 42.85C220.078 44.05 221.778 44.65 223.811 44.65C226.611 44.65 228.778 43.75 230.311 41.95C231.844 40.1167 232.611 37.7333 232.611 34.8Z" fill="#22516C"/>
<path d="M6.04 23.04C6.14667 24.2133 6.2 27.04 6.2 31.52H9.36C11.6 31.52 13.2 31.4667 14.16 31.36C14.2667 31.5733 14.32 31.92 14.32 32.4C14.32 33.0133 14.1733 33.4267 13.88 33.64C13.6133 33.8533 13.1733 33.9733 12.56 34C11.8667 34.0267 10.92 34.04 9.72 34.04H6.2C6.2 39.8533 6.29333 43.3467 6.48 44.52C7.65333 44.5733 8.6 44.6 9.32 44.6C13.8 44.6 16.6667 44.2933 17.92 43.68C18.1333 44.2133 18.24 44.8 18.24 45.44C18.24 45.92 18.12 46.2667 17.88 46.48C17.4 46.88 15.24 47.08 11.4 47.08C7.98667 47.08 5.88 47.0533 5.08 47C4.30667 46.9733 3.78667 46.7867 3.52 46.44C3.25333 46.0933 3.12 45.52 3.12 44.72C3.12 44.2933 3.13333 43.3067 3.16 41.76C3.18667 40.2133 3.2 38.9733 3.2 38.04V30.04C3.2 26.2267 3.01333 23.12 2.64 20.72C5.49333 20.48 8.4 20.36 11.36 20.36C15.2 20.36 17.36 20.56 17.84 20.96C18.08 21.1733 18.2 21.52 18.2 22C18.2 22.64 18.0933 23.2267 17.88 23.76C16.36 23.2 13.88 22.92 10.44 22.92C9.02667 22.92 7.56 22.96 6.04 23.04ZM22.9731 40.04V33.56C22.9731 30.7867 22.8931 28.3733 22.7331 26.32C23.1598 26.2667 23.6798 26.24 24.2931 26.24C25.5198 26.24 26.1331 26.64 26.1331 27.44C26.1331 27.5467 26.1065 27.96 26.0531 28.68C26.0265 29.4 25.9865 30.2933 25.9331 31.36C25.8798 32.4267 25.8531 33.44 25.8531 34.4V37.16C25.8531 41.3733 25.9331 43.92 26.0931 44.8C26.9998 44.8533 27.7065 44.88 28.2131 44.88C31.5465 44.88 33.7065 44.64 34.6931 44.16C34.8531 44.6667 34.9331 45.1733 34.9331 45.68C34.9331 46.1067 34.8398 46.4133 34.6531 46.6C34.2531 46.8933 32.5331 47.04 29.4931 47.04C28.9065 47.04 27.9331 47.0267 26.5731 47C25.2398 47 24.5331 47 24.4531 47C23.8398 46.9733 23.4265 46.8267 23.2131 46.56C22.9998 46.2933 22.8931 45.8533 22.8931 45.24C22.8931 44.92 22.9065 44.16 22.9331 42.96C22.9598 41.76 22.9731 40.7867 22.9731 40.04Z" fill="#5198C1"/>
<circle cx="70" cy="30" r="30" fill="#DCECF0"/>
<path d="M77.7239 43.2345L78.5618 44.0252C78.1651 44.1663 77.7365 44.2545 77.2923 44.2173C77.1136 44.2025 77.004 44.2438 76.8884 44.3905C75.6047 46.0509 74.105 47.4745 72.32 48.5806C72.2367 48.6358 72.1666 48.7088 72.1145 48.7946C71.4361 49.8762 70.4992 50.672 69.4043 51.2911C69.326 51.3354 69.1796 51.3522 69.1135 51.3079C68.2589 50.7368 67.4446 50.1004 66.9363 49.1879C66.6617 48.6952 66.2972 48.3564 65.8641 48.0293C64.4719 46.9782 63.3351 45.6704 62.2891 44.28C62.1614 44.1098 62.0554 44.0762 61.8545 44.1327C61.317 44.2936 60.7496 44.3252 60.1978 44.2249C60.4461 43.8494 60.6632 43.4902 60.9115 43.155C61.0786 42.9293 61.0766 42.7601 60.9368 42.5059C59.5833 40.0603 58.7438 37.3593 58.4708 34.5716C58.3608 33.4507 58.3552 32.3222 58.3053 31.1967C58.2492 29.9362 58.1069 28.6915 57.5819 27.5284C57.2654 26.8273 56.8439 26.2134 56.0882 25.9148C56.0377 25.8949 55.9832 25.7548 56.0049 25.7003C56.0746 25.5215 56.1528 25.333 56.277 25.1908C56.4012 25.0487 56.4077 24.9131 56.4072 24.7323C56.4047 24.0699 56.4072 23.4076 56.4622 22.7508C56.5438 21.899 56.5802 21.0434 56.5713 20.1876C56.5455 18.8069 56.6692 17.4221 57.2583 16.1626C57.5622 15.5079 58.0508 14.9291 58.5148 14.3626C59.5673 13.0802 60.8484 12.0943 62.4017 11.488C62.4858 11.4564 62.5585 11.4 62.6102 11.326C63.0085 10.6636 63.6284 10.358 64.3533 10.2413C64.5103 10.2153 64.6082 10.1613 64.692 10.0258C65.0145 9.50252 65.4663 9.25439 66.0943 9.34203C66.4421 9.39298 66.742 9.27681 66.9989 9.00169C67.4749 8.49219 68.1261 8.31642 68.7713 8.1493C69.0065 8.08868 69.2513 8.0683 69.4881 8.01225C69.6809 7.96691 69.7309 8.04995 69.7238 8.22216C69.7188 8.35718 69.7238 8.49219 69.7238 8.68071C69.8298 8.61447 69.901 8.56454 69.9762 8.52327C70.1832 8.41169 70.3871 8.29298 70.6017 8.19822C70.7178 8.14727 70.8096 8.16816 70.8571 8.33629C71.1029 9.21363 71.5133 9.59677 72.3998 9.64976C74.1201 9.75166 75.6249 10.4079 77.0192 11.3769C78.2917 12.2535 79.4775 13.2518 80.5603 14.358C81.6335 15.4641 82.2181 16.8229 82.3392 18.3626C82.4013 19.1472 82.3675 19.9395 82.3938 20.7277C82.3998 20.8953 82.4897 21.0583 82.524 21.227C82.6204 21.7059 82.739 22.1833 82.7915 22.6678C82.8461 23.1722 82.8269 23.6868 82.8567 24.1927C82.8622 24.2865 82.9314 24.3899 82.9985 24.4632C83.0919 24.5651 83.212 24.6431 83.3291 24.7384C82.0348 25.4822 81.6507 26.7707 81.2968 28.0557C80.893 29.5159 80.7587 31.0199 80.6684 32.5295C80.5603 34.3479 80.4937 36.1709 80.0242 37.95C79.5568 39.719 78.8662 41.385 77.9041 42.9369C77.8642 43.0011 77.8263 43.0663 77.787 43.1311L77.7239 43.2345ZM77.2408 37.092L77.2913 37.0497C77.578 37.2118 77.8652 37.3733 78.2039 37.5638C78.0914 37.0421 77.9914 36.578 77.8915 36.1133L77.9505 36.0771L78.7289 36.7354C78.7991 34.7886 79.159 32.9494 79.5664 31.1177C79.684 30.5879 79.8506 30.0651 79.9228 29.5296C80.1322 28.0068 80.2222 26.4696 80.1918 24.9325C80.1747 24.1514 80.1757 23.3475 79.8703 22.625C79.6285 22.0528 79.5487 21.4807 79.5235 20.8815C79.5235 20.8474 79.5179 20.8138 79.5144 20.7796C79.0838 16.1621 75.8894 13.7486 72.5482 12.9767C72.4951 12.9703 72.4412 12.9762 72.3907 12.9938C72.3401 13.0115 72.2942 13.0405 72.2564 13.0786C71.7849 13.6625 71.1918 14.0839 70.5355 14.4232C70.4718 14.4497 70.4059 14.4707 70.3387 14.4859L70.2655 14.1802C70.0534 14.384 69.8763 14.5786 69.6718 14.7376C69.5769 14.8109 69.4088 14.8731 69.3074 14.8394C68.2473 14.4869 67.273 13.9855 66.5426 13.098C66.4547 12.991 66.3836 12.9273 66.2296 12.965C63.8833 13.5367 61.9317 14.7085 60.5875 16.7791C59.6228 18.2653 59.2492 19.9313 59.2068 21.6875C59.2038 21.8037 59.2068 21.9387 59.1508 22.032C58.8242 22.5837 58.7232 23.1926 58.6581 23.8111C58.5112 25.2015 58.5799 26.5914 58.6884 27.9808C58.7591 28.86 58.8878 29.7335 59.0736 30.5955C59.4062 32.1627 59.6707 33.7447 59.9418 35.3246C60.0186 35.7714 60.0196 36.231 60.0594 36.7308L60.8207 36.1072L60.8767 36.153C60.7793 36.5953 60.6819 37.0375 60.5738 37.5338C60.8212 37.3208 61.0282 37.1455 61.2301 36.9698L61.2876 37.0146C61.1867 37.5618 61.0817 38.109 60.9656 38.727L61.5436 38.2639L61.6011 38.3077C61.5345 38.9135 61.4678 39.5187 61.3961 40.1689L62.2932 39.4444L62.3543 39.4775L61.9883 41.2638L62.1024 41.1028C63.3522 39.3134 64.8631 37.8191 66.8293 36.8383C66.8887 36.8071 66.9435 36.7678 66.9923 36.7216C67.319 36.4215 67.7102 36.258 68.1322 36.152C68.2715 36.1169 68.3609 36.1439 68.4573 36.2616C68.5326 36.3455 68.6367 36.3976 68.7485 36.4073C69.1181 36.4241 69.4891 36.4195 69.8591 36.4073C69.9429 36.4073 70.0671 36.3752 70.1009 36.3161C70.2433 36.0674 70.4411 36.0766 70.6632 36.1556C70.8854 36.2346 71.1342 36.2982 71.3437 36.4159C71.5986 36.5591 71.8293 36.7476 72.0651 36.9254C72.9414 37.5832 73.8384 38.2155 74.6835 38.9125C75.479 39.5682 76.1555 40.3502 76.7875 41.2607L76.3887 39.3007L76.4543 39.2701L77.2958 40.0731L77.3337 40.0456C77.1799 39.4342 77.0257 38.8228 76.8713 38.2114L76.9303 38.164L77.8016 38.7387C77.5967 38.1385 77.4185 37.6148 77.2408 37.092ZM73.1332 44.9571C73.1872 44.8873 73.2513 44.8108 73.3094 44.7298C73.8038 44.0308 74.1764 43.2519 74.4114 42.4264C74.4654 42.2425 74.4477 42.1059 74.3185 41.9633C73.9651 41.5751 73.639 41.1639 73.2771 40.7859C72.2296 39.6925 71.061 38.7576 69.7097 38.0667C69.4896 37.9541 69.3023 37.9434 69.0721 38.0545C67.1428 38.9858 65.5794 40.366 64.2498 42.0331C64.1877 42.111 64.1776 42.2756 64.2104 42.378C64.4988 43.2864 64.9517 44.1329 65.5461 44.8745C65.6067 44.9499 65.6743 45.0192 65.7273 45.0783L66.8379 44.0772L66.908 44.1307V45.357C66.9666 45.3397 66.9838 45.3219 66.9903 45.3005C67.3901 44.0267 68.22 43.0791 69.2387 42.2715C69.3977 42.1452 69.5249 42.1187 69.6708 42.2756C70.109 42.7428 70.5764 43.1851 70.9833 43.6793C71.4174 44.2096 71.6834 44.8419 71.85 45.5134L71.9167 45.5068C71.9469 44.982 71.9767 44.4573 72.0111 43.8581L73.1332 44.9571Z" fill="#22516C"/>
<path d="M71.4385 27.3011C71.5258 27.1065 71.5899 26.8966 71.704 26.7203C72.8146 25.0079 74.3552 24.0674 76.4168 24.2019C77.4289 24.2681 78.1543 24.8668 78.6339 25.763C78.6431 25.8001 78.6477 25.8383 78.6475 25.8766C78.5264 25.8766 78.4103 25.897 78.3042 25.8725C78.0347 25.8103 77.7596 25.7538 77.5046 25.6493C76.0998 25.0746 74.7611 25.2795 73.487 26.0192C72.8696 26.3759 72.2971 26.8156 71.7035 27.2171C71.6374 27.2619 71.5687 27.3026 71.5016 27.3454L71.4385 27.3011Z" fill="#22516C"/>
<path d="M60.4443 26.3107C60.5115 26.1721 60.5453 26.088 60.5902 26.0126C61.1571 25.0757 62.0042 24.6095 63.0718 24.5463C64.717 24.4525 66.1253 25.0166 67.2808 26.1955C67.5388 26.4589 67.7266 26.7926 67.9467 27.0938L67.8735 27.1717C67.7881 27.1315 67.7018 27.0932 67.6175 27.051C66.9512 26.7142 66.295 26.3417 65.6079 26.0462C64.2853 25.4766 62.9436 25.4858 61.6049 26.0223C61.3702 26.115 61.1309 26.1955 60.8881 26.2633C60.7654 26.2974 60.6321 26.2908 60.4443 26.3107Z" fill="#22516C"/>
</g>
<defs>
<clipPath id="clip0">
<rect width="240" height="60" fill="white"/>
</clipPath>
</defs>
</svg>
