<svg width="70" height="70" viewBox="0 0 70 70" fill="none" xmlns="http://www.w3.org/2000/svg">
<mask id="mask0" mask-type="alpha" maskUnits="userSpaceOnUse" x="0" y="0" width="70" height="70">
<path d="M66 0H4C1.79086 0 0 1.79086 0 4V66C0 68.2091 1.79086 70 4 70H66C68.2091 70 70 68.2091 70 66V4C70 1.79086 68.2091 0 66 0Z" fill="white"/>
</mask>
<g mask="url(#mask0)">
<path d="M66 0H4C1.79086 0 0 1.79086 0 4V66C0 68.2091 1.79086 70 4 70H66C68.2091 70 70 68.2091 70 66V4C70 1.79086 68.2091 0 66 0Z" fill="#00A0D2" fill-opacity="0.01" stroke="#444444" stroke-width="2"/>
</g>
<path d="M53 33.8123C53 32.5777 51.9897 31.5674 50.7551 31.5674H20.2446C19.01 31.5674 18 32.5777 18 33.8123C18 34.8618 18.7324 35.7423 19.7095 35.9849L22.8048 50.6286C22.8048 51.9852 23.9146 53.0949 25.2712 53.0949H46.1322C47.4889 53.0949 48.5986 51.9852 48.5986 50.6286L51.7278 35.8249C52.4767 35.4603 53 34.6975 53 33.8123ZM28.0833 47.7668C28.0833 48.1907 27.7364 48.5374 27.3124 48.5374H27.1C26.676 48.5374 26.3291 48.1904 26.3291 47.7668V38.7457C26.3291 38.3218 26.676 37.9752 27.1 37.9752H27.3124C27.7364 37.9752 28.0833 38.3218 28.0833 38.7457V47.7668ZM33.7264 47.7668C33.7264 48.1907 33.3795 48.5374 32.9555 48.5374H32.7431C32.3191 48.5374 31.9722 48.1904 31.9722 47.7668V38.7457C31.9722 38.3218 32.3188 37.9752 32.7431 37.9752H32.9555C33.3795 37.9752 33.7264 38.3218 33.7264 38.7457V47.7668ZM39.3692 47.7668C39.3692 48.1907 39.0225 48.5374 38.5983 48.5374H38.3862C37.9622 48.5374 37.6156 48.1904 37.6156 47.7668V38.7457C37.6156 38.3218 37.9622 37.9752 38.3862 37.9752H38.5986C39.0225 37.9752 39.3695 38.3218 39.3695 38.7457V47.7668H39.3692ZM45.0123 47.7668C45.0123 48.1907 44.6653 48.5374 44.2417 48.5374H44.0292C43.6053 48.5374 43.2584 48.1904 43.2584 47.7668V38.7457C43.2584 38.3218 43.6053 37.9752 44.0292 37.9752H44.2417C44.6656 37.9752 45.0123 38.3218 45.0123 38.7457V47.7668Z" fill="#444444"/>
<path d="M25.6155 27.8296C26.3143 22.9633 30.4886 19.2192 35.5485 19.2192C40.6083 19.2192 44.7829 22.9633 45.4817 27.8296C45.5836 29.4913 47.7242 29.2254 47.7242 27.8296C47.0114 21.7334 41.8363 17 35.5485 17C29.2609 17 24.0855 21.7334 23.373 27.8296C23.373 29.5581 25.6428 29.6245 25.6155 27.8296Z" fill="#444444"/>
</svg>
