<svg width="70" height="70" viewBox="0 0 70 70" fill="none" xmlns="http://www.w3.org/2000/svg">
<mask id="mask0" mask-type="alpha" maskUnits="userSpaceOnUse" x="0" y="0" width="70" height="70">
<path d="M66 0H4C1.79086 0 0 1.79086 0 4V66C0 68.2091 1.79086 70 4 70H66C68.2091 70 70 68.2091 70 66V4C70 1.79086 68.2091 0 66 0Z" fill="white"/>
</mask>
<g mask="url(#mask0)">
<path d="M66 0H4C1.79086 0 0 1.79086 0 4V66C0 68.2091 1.79086 70 4 70H66C68.2091 70 70 68.2091 70 66V4C70 1.79086 68.2091 0 66 0Z" fill="#00A0D2" fill-opacity="0.01" stroke="#444444" stroke-width="2"/>
</g>
<path fill-rule="evenodd" clip-rule="evenodd" d="M51.6003 24.784C51.3337 24.5175 51.0184 24.3842 50.6537 24.3842H25.3925C25.3783 24.2862 25.3467 24.1075 25.2977 23.8481C25.2486 23.5886 25.2101 23.3818 25.1821 23.2274C25.1539 23.0737 25.1015 22.8877 25.0243 22.6704C24.9471 22.4529 24.856 22.281 24.7509 22.1551C24.6459 22.0285 24.5057 21.9201 24.3304 21.8287C24.1552 21.7379 23.9552 21.6922 23.731 21.6922H18.3464C17.9816 21.6922 17.6661 21.8257 17.3997 22.0918C17.1333 22.3582 17 22.6739 17 23.0384C17 23.4029 17.1333 23.7184 17.3997 23.9848C17.6664 24.2513 17.9819 24.3844 18.3464 24.3844H22.6368L26.3596 41.6954C26.3317 41.7513 26.188 42.0175 25.9284 42.4945C25.669 42.9716 25.4622 43.3885 25.3081 43.7461C25.1539 44.104 25.0768 44.3808 25.0768 44.577C25.0768 44.9415 25.2101 45.2571 25.4764 45.524C25.7431 45.7896 26.0585 45.9233 26.4231 45.9233H27.7412C27.0099 45.9298 26.3846 46.1929 25.8654 46.7118C25.3398 47.2377 25.0767 47.872 25.0767 48.6155C25.0767 49.359 25.3395 49.9933 25.8654 50.5187C26.3915 51.0447 27.0257 51.3078 27.7691 51.3078C28.5121 51.3078 29.1467 51.0447 29.6724 50.5187C30.1984 49.9933 30.4615 49.359 30.4615 48.6155C30.4615 47.872 30.1986 47.2377 29.6724 46.7118C29.1532 46.1929 28.528 45.9298 27.797 45.9233H46.588C45.8563 45.9298 45.2308 46.1929 44.7119 46.7118C44.1865 47.2377 43.9228 47.872 43.9228 48.6155C43.9228 49.359 44.1865 49.9933 44.7119 50.5187C45.2373 51.0447 45.8722 51.3078 46.616 51.3078C47.3586 51.3078 47.9935 51.0447 48.5189 50.5187C49.0448 49.9933 49.308 49.359 49.308 48.6155C49.308 47.872 49.0451 47.2377 48.5189 46.7118C48 46.1929 47.3745 45.9298 46.6438 45.9233H47.9608C48.3253 45.9233 48.6409 45.7897 48.9072 45.524C49.1739 45.2572 49.307 44.9416 49.307 44.577C49.307 44.2124 49.1739 43.8968 48.9072 43.6305C48.641 43.3643 48.3254 43.2307 47.9608 43.2307H28.6103C28.947 42.5575 29.1152 42.1092 29.1152 41.8848C29.1152 41.7442 29.0977 41.5899 29.0626 41.422C29.0274 41.2541 28.9854 41.068 28.9364 40.8643C28.8872 40.6616 28.8558 40.5108 28.8418 40.4125L50.8015 37.8465C51.1517 37.8041 51.4394 37.6539 51.6637 37.3941C51.8881 37.135 52 36.837 52 36.5003V25.7308C51.9999 25.3663 51.8669 25.0508 51.6003 24.784Z" fill="#444444"/>
</svg>
