<svg width="70" height="70" viewBox="0 0 70 70" fill="none" xmlns="http://www.w3.org/2000/svg">
<mask id="mask0" mask-type="alpha" maskUnits="userSpaceOnUse" x="0" y="0" width="70" height="70">
<path d="M66 0H4C1.79086 0 0 1.79086 0 4V66C0 68.2091 1.79086 70 4 70H66C68.2091 70 70 68.2091 70 66V4C70 1.79086 68.2091 0 66 0Z" fill="white"/>
</mask>
<g mask="url(#mask0)">
<path d="M66 0H4C1.79086 0 0 1.79086 0 4V66C0 68.2091 1.79086 70 4 70H66C68.2091 70 70 68.2091 70 66V4C70 1.79086 68.2091 0 66 0Z" fill="#00A0D2" fill-opacity="0.01" stroke="#444444" stroke-width="2"/>
</g>
<path d="M34.9964 17C31.2602 17 28.2228 20.0268 28.2228 23.7499V23.9133H23.7451C23.3815 23.9133 23.0749 24.1904 23.0392 24.5528L21 47.4811C21 47.5024 21 47.5238 21 47.5451C21 50.0034 23.2745 52 26.0766 52H43.9233C46.7255 52 49 50.0034 49 47.5451C49 47.5238 49 47.5024 49 47.4811L46.9537 24.5528C46.918 24.1904 46.6185 23.9133 46.2478 23.9133H41.7701V23.7499C41.7701 20.0268 38.7326 17 34.9964 17ZM29.6346 23.7499C29.6346 20.8013 32.0374 18.4068 34.9964 18.4068C37.9554 18.4068 40.3583 20.8013 40.3583 23.7499V23.9133H29.6346V23.7499Z" fill="#444444" stroke="#444444" stroke-width="0.25"/>
</svg>
