<svg width="60" height="60" viewBox="0 0 60 60" fill="none" xmlns="http://www.w3.org/2000/svg">
<path d="M0 0H59.851V32.3898L56.8885 37.0302L59.851 41.1601V60H0V29.4664L1.85154 27.3318L0 25.29V0Z" fill="#016FD0"/>
<path d="M11.6184 41.8096V32.3896H21.5677L22.6351 33.7847L23.7378 32.3896H59.851V41.16C59.851 41.16 58.9066 41.8002 57.8143 41.8096H37.8177L36.6142 40.3247V41.8096H32.6704V39.2748C32.6704 39.2748 32.1317 39.6286 30.967 39.6286H29.6247V41.8096H23.6534L22.5875 40.3847L21.5052 41.8096H11.6184Z" fill="white"/>
<path d="M0 25.2895L2.24359 20.0459H6.12364L7.3969 22.9832V20.0459H12.2202L12.9781 22.1689L13.713 20.0459H35.3644V21.1132C35.3644 21.1132 36.5026 20.0459 38.3732 20.0459L45.3982 20.0705L46.6495 22.9693V20.0459H50.6859L51.7968 21.711V20.0459H55.8702V29.4658H51.7968L50.7322 27.7953V29.4658H44.8019L44.2055 27.9809H42.6112L42.0246 29.4658H38.0028C36.3933 29.4658 35.3644 28.4204 35.3644 28.4204V29.4658H29.3006L28.0971 27.9809V29.4658H5.54883L4.95287 27.9809H3.36369L2.77193 29.4658H0V25.2895Z" fill="white"/>
<path d="M3.03769 21.207L0.0115814 28.2604H1.98173L2.54009 26.848H5.78607L6.34153 28.2604H8.35508L5.33186 21.207H3.03769ZM4.15729 22.8486L5.14671 25.3167H3.16498L4.15729 22.8486V22.8486Z" fill="#016FD0"/>
<path d="M8.56345 28.2604V21.207L11.3631 21.2175L12.9915 25.765L14.5809 21.207H17.3582V28.2604H15.5993V23.0632L13.7347 28.2604H12.1921L10.3224 23.0632V28.2604H8.56345Z" fill="#016FD0"/>
<path d="M18.5617 28.2604V21.207H24.3015V22.7848H20.3392V23.9913H24.2089V25.4762H20.3392V26.7291H24.3015V28.2604H18.5617Z" fill="#016FD0"/>
<path d="M25.3197 21.207V28.2604H27.0787V25.7546H27.8193L29.9284 28.2604H32.0779L29.7635 25.6618C30.7133 25.5814 31.6931 24.7642 31.6931 23.4953C31.6931 22.011 30.531 21.207 29.234 21.207H25.3197V21.207ZM27.0787 22.7848H29.0894C29.5717 22.7848 29.9226 23.163 29.9226 23.5272C29.9226 23.9958 29.468 24.2697 29.1154 24.2697H27.0787V22.7848V22.7848Z" fill="#016FD0"/>
<path d="M34.2072 28.2604H32.4112V21.207H34.2072V28.2604Z" fill="#016FD0"/>
<path d="M38.4657 28.2604H38.0781C36.2024 28.2604 35.0635 26.779 35.0635 24.7627C35.0635 22.6967 36.1896 21.207 38.5583 21.207H40.5024V22.8776H38.4872C37.5257 22.8776 36.8456 23.6298 36.8456 24.7801C36.8456 26.1461 37.6232 26.7198 38.7435 26.7198H39.2064L38.4657 28.2604Z" fill="#016FD0"/>
<path d="M42.2932 21.207L39.2671 28.2604H41.2373L41.7956 26.848H45.0416L45.597 28.2604H47.6106L44.5874 21.207H42.2932ZM43.4128 22.8486L44.4022 25.3167H42.4205L43.4128 22.8486Z" fill="#016FD0"/>
<path d="M47.816 28.2604V21.207H50.0523L52.9077 25.6386V21.207H54.6667V28.2604H52.5027L49.575 23.7128V28.2604H47.816Z" fill="#016FD0"/>
<path d="M12.8219 40.6032V33.5498H18.5617V35.1275H14.5994V36.334H18.4691V37.8189H14.5994V39.0718H18.5617V40.6032H12.8219Z" fill="#016FD0"/>
<path d="M40.9468 40.6032V33.5498H46.6866V35.1275H42.7243V36.334H46.5755V37.8189H42.7243V39.0718H46.6866V40.6032H40.9468Z" fill="#016FD0"/>
<path d="M18.7844 40.6032L21.5791 37.12L18.7179 33.5498H20.934L22.638 35.7569L24.3477 33.5498H26.477L23.6534 37.0765L26.4532 40.6032H24.2375L22.583 38.4309L20.9687 40.6032H18.7844Z" fill="#016FD0"/>
<path d="M26.6622 33.5518V40.6051H28.4674V38.3777H30.3189C31.8856 38.3777 33.0731 37.5445 33.0731 35.9241C33.0731 34.5818 32.1418 33.5518 30.5475 33.5518H26.6622V33.5518ZM28.4674 35.1469H30.4173C30.9234 35.1469 31.2852 35.4579 31.2852 35.959C31.2852 36.4297 30.9253 36.771 30.4115 36.771H28.4674V35.1469Z" fill="#016FD0"/>
<path d="M33.8369 33.5498V40.6032H35.5958V38.0974H36.3364L38.4455 40.6032H40.595L38.2806 38.0046C39.2304 37.9242 40.2102 37.1069 40.2102 35.8381C40.2102 34.3538 39.0481 33.5498 37.7511 33.5498H33.8369V33.5498ZM35.5958 35.1275H37.6065C38.0888 35.1275 38.4397 35.5058 38.4397 35.87C38.4397 36.3386 37.9851 36.6124 37.6325 36.6124H35.5958V35.1275V35.1275Z" fill="#016FD0"/>
<path d="M47.5012 40.6032V39.0718H51.0215C51.5424 39.0718 51.7679 38.7897 51.7679 38.4802C51.7679 38.1837 51.5431 37.8839 51.0215 37.8839H49.4307C48.048 37.8839 47.2779 37.0394 47.2779 35.7714C47.2779 34.6404 47.9831 33.5498 50.0379 33.5498H53.4632L52.7226 35.1368H49.7601C49.1938 35.1368 49.0195 35.4347 49.0195 35.7192C49.0195 36.0116 49.2349 36.334 49.6675 36.334H51.3339C52.8753 36.334 53.5442 37.2105 53.5442 38.3584C53.5442 39.5924 52.7989 40.6032 51.25 40.6032H47.5012Z" fill="#016FD0"/>
<path d="M53.957 40.6032V39.0718H57.4773C57.9982 39.0718 58.2237 38.7897 58.2237 38.4802C58.2237 38.1837 57.9989 37.8839 57.4773 37.8839H55.8865C54.5038 37.8839 53.7337 37.0394 53.7337 35.7714C53.7337 34.6404 54.4389 33.5498 56.4937 33.5498H59.919L59.1784 35.1368H56.2159C55.6496 35.1368 55.4753 35.4347 55.4753 35.7192C55.4753 36.0116 55.6907 36.334 56.1233 36.334H57.7897C59.3312 36.334 60 37.2105 60 38.3584C60 39.5924 59.2547 40.6032 57.7058 40.6032H53.957Z" fill="#016FD0"/>
</svg>
