<svg width="84" height="60" viewBox="0 0 84 60" fill="none" xmlns="http://www.w3.org/2000/svg">
<path d="M84 52C84 56.4 80.4 60 76 60H8C3.6 60 0 56.4 0 52V8C0 3.6 3.6 0 8 0H76C80.4 0 84 3.6 84 8V52Z" fill="#F5F5F5"/>
<path d="M84 52C84 56.4 80.4 60 76 60H26C26 60 73.2 52.4 84 30V52ZM38 30C38 33.4 40.6 36 44 36C47.4 36 50 33.4 50 30C50 26.6 47.4 24 44 24C40.6 24 38 26.6 38 30Z" fill="#FF6D00"/>
<path d="M16.4 23.9998H18.6V35.9998H16.4V23.9998ZM28.4 29.9998C28.4 33.3998 31 35.9998 34.4 35.9998C35.4 35.9998 36.2 35.7998 37.2 35.3998V32.7998C36.4 33.5998 35.6 33.9998 34.4 33.9998C32.2 33.9998 30.6 32.3998 30.6 29.9998C30.6 27.7998 32.2 25.9998 34.4 25.9998C35.4 25.9998 36.2 26.3998 37.2 27.1998V24.5998C36.2 24.1998 35.4 23.7998 34.4 23.7998C31 23.9998 28.4 26.7998 28.4 29.9998ZM55.2 31.7998L52 23.9998H49.6L54.6 35.9998H55.8L60.8 23.9998H58.4L55.2 31.7998ZM61.8 35.9998H68.2V33.9998H64V30.7998H68V28.7998H64V25.9998H68.2V23.9998H61.8V35.9998ZM77 27.5998C77 25.3998 75.6 23.9998 73 23.9998H69.6V35.9998H71.8V31.1998H72L75.2 35.9998H78L74.4 30.9998C76 30.5998 77 29.3998 77 27.5998ZM72.4 29.5998H71.8V25.9998H72.4C73.8 25.9998 74.6 26.5998 74.6 27.7998C74.6 28.7998 74 29.5998 72.4 29.5998ZM9.4 23.9998H6V35.9998H9.2C14.2 35.9998 15.4 31.7998 15.4 29.9998C15.6 26.3998 13 23.9998 9.4 23.9998ZM8.8 33.9998H8.2V25.9998H9C12 25.9998 13.2 27.9998 13.2 29.9998C13.2 30.7998 13 33.9998 8.8 33.9998ZM24.6 28.5998C23.2 27.9998 22.8 27.7998 22.8 27.1998C22.8 26.3998 23.6 25.9998 24.4 25.9998C25 25.9998 25.6 26.1998 26.2 26.9998L27.4 25.3998C26.4 24.3998 25.4 23.9998 24 23.9998C22 23.9998 20.4 25.3998 20.4 27.3998C20.4 28.9998 21.2 29.7998 23.2 30.5998C24.4 30.9998 25.4 31.3998 25.4 32.3998C25.4 33.3998 24.6 33.9998 23.6 33.9998C22.6 33.9998 21.6 33.3998 21.2 32.3998L19.8 33.7998C20.8 35.3998 22 35.9998 23.8 35.9998C26.2 35.9998 27.8 34.3998 27.8 32.1998C27.8 30.3998 27 29.5998 24.6 28.5998Z" fill="black"/>
</svg>
