<svg width="78" height="60" viewBox="0 0 78 60" fill="none" xmlns="http://www.w3.org/2000/svg">
<path d="M23.5935 59.4988V55.5428C23.6168 55.211 23.5683 54.878 23.4513 54.5661C23.3343 54.2543 23.1514 53.9707 22.9148 53.7342C22.6783 53.4978 22.3935 53.3139 22.0794 53.1948C21.7653 53.0758 21.4292 53.0243 21.0935 53.0439C20.6528 53.0153 20.2125 53.1043 19.8185 53.3014C19.4245 53.4986 19.0912 53.7967 18.8535 54.1648C18.6368 53.8078 18.3267 53.5152 17.9559 53.318C17.5851 53.1207 17.1674 53.026 16.7468 53.0439C16.3802 53.0256 16.015 53.1023 15.6876 53.2665C15.3602 53.4308 15.0818 53.6767 14.8801 53.9801V53.2021H13.4935V59.4988H14.8935V56.0109C14.8625 55.7952 14.8803 55.5753 14.9458 55.3672C15.0112 55.1591 15.1226 54.968 15.2719 54.8077C15.4212 54.6474 15.6047 54.522 15.809 54.4404C16.0134 54.3589 16.2335 54.3233 16.4535 54.3362C17.3735 54.3362 17.8401 54.9296 17.8401 55.9977V59.4988H19.2401V56.0109C19.2116 55.7956 19.2312 55.5767 19.2975 55.3697C19.3639 55.1626 19.4754 54.9725 19.6242 54.8128C19.773 54.6531 19.9554 54.5276 20.1586 54.4453C20.3618 54.3629 20.5808 54.3257 20.8001 54.3362C21.7468 54.3362 22.2001 54.9296 22.2001 55.9977V59.4988H23.5935ZM31.3935 56.3538V53.2087H29.9935V53.9736C29.7583 53.6735 29.4542 53.4332 29.1064 53.2727C28.7586 53.1121 28.377 53.036 27.9935 53.0505C27.1094 53.0505 26.2616 53.3978 25.6364 54.0161C25.0113 54.6343 24.6601 55.4729 24.6601 56.3472C24.6601 57.2215 25.0113 58.0601 25.6364 58.6783C26.2616 59.2966 27.1094 59.6439 27.9935 59.6439C28.377 59.6584 28.7586 59.5823 29.1064 59.4217C29.4542 59.2612 29.7583 59.0209 29.9935 58.7208V59.4856H31.3801L31.3935 56.3538ZM26.2401 56.3538C26.2622 55.9827 26.3936 55.6262 26.618 55.3281C26.8424 55.0299 27.1501 54.8032 27.5031 54.6758C27.8561 54.5484 28.2391 54.5259 28.6049 54.6111C28.9707 54.6963 29.3034 54.8854 29.5619 55.1551C29.8204 55.4249 29.9935 55.7636 30.0599 56.1294C30.1262 56.4952 30.0829 56.8723 29.9354 57.2141C29.7878 57.5559 29.5424 57.8476 29.2293 58.0532C28.9163 58.2589 28.5493 58.3694 28.1735 58.3714C27.9081 58.3775 27.6444 58.3288 27.3991 58.2284C27.1539 58.1279 26.9326 57.9779 26.7493 57.788C26.5661 57.5981 26.425 57.3724 26.335 57.1254C26.245 56.8785 26.2082 56.6156 26.2268 56.3538H26.2401ZM61.0201 53.0571C61.4767 53.0559 61.9292 53.1409 62.3535 53.3076C62.7584 53.468 63.1276 53.7055 63.4401 54.0065C63.7486 54.3049 63.9934 54.6613 64.1601 55.0549C64.5084 55.9002 64.5084 56.8469 64.1601 57.6922C63.9936 58.0859 63.7487 58.4424 63.4401 58.7406C63.1276 59.0416 62.7584 59.2791 62.3535 59.4395C61.4744 59.7773 60.4992 59.7773 59.6201 59.4395C59.217 59.2792 58.85 59.0417 58.5401 58.7406C58.2346 58.4412 57.9922 58.0849 57.8268 57.6922C57.4792 56.8467 57.4792 55.9004 57.8268 55.0549C57.9922 54.6622 58.2346 54.3059 58.5401 54.0065C58.85 53.7054 59.217 53.4679 59.6201 53.3076C60.0596 53.1274 60.531 53.0355 61.0068 53.0373L61.0201 53.0571ZM61.0201 54.3758C60.7486 54.3721 60.479 54.4214 60.2268 54.5208C59.9892 54.615 59.7737 54.7564 59.5935 54.9362C59.4096 55.1255 59.2667 55.3498 59.1735 55.5955C58.9698 56.122 58.9698 56.7043 59.1735 57.2307C59.2665 57.4765 59.4095 57.7009 59.5935 57.89C59.7735 58.07 59.9891 58.2114 60.2268 58.3054C60.7347 58.5021 61.2989 58.5021 61.8068 58.3054C62.0558 58.2144 62.2829 58.0729 62.4735 57.89C62.6577 57.7011 62.8007 57.4767 62.8935 57.2307C63.0971 56.7043 63.0971 56.122 62.8935 55.5955C62.8007 55.3496 62.6577 55.1251 62.4735 54.9362C62.2829 54.7533 62.0558 54.6118 61.8068 54.5208C61.5553 54.4069 61.2833 54.3442 61.0068 54.3362L61.0201 54.3758ZM38.9268 56.3538C38.9268 54.3758 37.6868 53.0571 35.9068 53.0571C35.0227 53.0693 34.1798 53.4284 33.5634 54.0553C32.9471 54.6822 32.6078 55.5256 32.6201 56.3999C32.6325 57.2743 32.9956 58.1079 33.6294 58.7175C34.2633 59.3271 35.1161 59.6627 36.0001 59.6505C36.9492 59.6826 37.8771 59.3681 38.6068 58.767L37.9401 57.7516C37.4137 58.1691 36.7615 58.4011 36.0868 58.4109C35.6284 58.4499 35.1728 58.3105 34.8167 58.0224C34.4606 57.7343 34.2323 57.3201 34.1801 56.8681H38.9068C38.9268 56.7032 38.9268 56.5384 38.9268 56.3538ZM34.1868 55.7999C34.2126 55.3814 34.4012 54.9889 34.7132 54.705C35.0252 54.421 35.4362 54.2676 35.8601 54.2769C36.0676 54.2725 36.274 54.3086 36.4674 54.3831C36.6608 54.4576 36.8374 54.5691 36.9872 54.7111C37.137 54.8532 37.2571 55.023 37.3405 55.211C37.424 55.3989 37.4691 55.6013 37.4735 55.8065L34.1868 55.7999ZM44.7601 54.8109C44.1513 54.4642 43.4626 54.278 42.7601 54.2703C42.0001 54.2703 41.5468 54.5472 41.5468 55.0087C41.5468 55.4703 42.0268 55.5494 42.6268 55.6285L43.2935 55.7208C44.6801 55.9186 45.5201 56.4988 45.5201 57.6065C45.5201 58.7142 44.4535 59.6637 42.6201 59.6637C41.6375 59.6895 40.6725 59.4029 39.8668 58.8461L40.5335 57.778C41.1453 58.2269 41.892 58.4591 42.6535 58.4373C43.6001 58.4373 44.1068 58.1604 44.1068 57.6725C44.1068 57.3164 43.7468 57.1186 42.9868 57.0131L42.3201 56.9208C40.8935 56.723 40.1201 56.09 40.1201 55.0615C40.1201 53.8087 41.1601 53.0439 42.7868 53.0439C43.6972 53.0137 44.5973 53.2426 45.3801 53.7032L44.7601 54.8109ZM51.4268 54.4549H49.1668V57.2966C49.1668 57.956 49.3935 58.3516 50.0868 58.3516C50.5195 58.3374 50.9416 58.2149 51.3135 57.9955L51.7135 59.1692C51.1937 59.49 50.5928 59.6591 49.9801 59.6571C48.3401 59.6571 47.7668 58.7867 47.7668 57.323V54.4549H46.4735V53.2021H47.7668V51.29H49.1668V53.2021H51.4268V54.4549ZM56.2201 53.0439C56.5565 53.0452 56.8901 53.1032 57.2068 53.2153L56.7801 54.534C56.5046 54.4254 56.2101 54.3716 55.9135 54.3758C55.0068 54.3758 54.5801 54.956 54.5801 55.9977V59.5252H53.1935V53.2285H54.5668V53.9933C54.737 53.7042 54.9828 53.4659 55.2785 53.3034C55.5742 53.141 55.9087 53.0604 56.2468 53.0703L56.2201 53.0439ZM65.8068 58.5823C65.8935 58.5813 65.9795 58.597 66.0601 58.6285C66.1367 58.6594 66.2068 58.7041 66.2668 58.7604C66.3254 58.8172 66.3728 58.8843 66.4068 58.9582C66.4406 59.0352 66.458 59.1182 66.458 59.2021C66.458 59.2861 66.4406 59.3691 66.4068 59.4461C66.3728 59.52 66.3254 59.5871 66.2668 59.6439C66.2068 59.7002 66.1367 59.7449 66.0601 59.7758C65.9803 59.8106 65.894 59.8286 65.8068 59.8285C65.6804 59.8276 65.5569 59.7911 65.4507 59.7234C65.3444 59.6557 65.2599 59.5595 65.2068 59.4461C65.1734 59.369 65.1562 59.286 65.1562 59.2021C65.1562 59.1183 65.1734 59.0353 65.2068 58.9582C65.2408 58.8843 65.2882 58.8172 65.3468 58.7604C65.4068 58.7041 65.4769 58.6594 65.5535 58.6285C65.6236 58.6009 65.698 58.5853 65.7735 58.5823H65.8068ZM65.8068 59.6966C65.8733 59.697 65.9392 59.6836 66.0001 59.6571C66.0575 59.6318 66.1095 59.596 66.1535 59.5516C66.21 59.4953 66.2518 59.4262 66.2752 59.3502C66.2986 59.2743 66.303 59.1939 66.2879 59.116C66.2728 59.038 66.2387 58.9649 66.1885 58.9029C66.1384 58.841 66.0737 58.792 66.0001 58.7604C65.9391 58.7341 65.8733 58.7206 65.8068 58.7208C65.7403 58.7212 65.6746 58.7346 65.6135 58.7604C65.5536 58.7847 65.4992 58.8205 65.4535 58.8659C65.3701 58.9558 65.3238 59.0735 65.3238 59.1955C65.3238 59.3176 65.3701 59.4352 65.4535 59.5252C65.4996 59.5714 65.5547 59.6081 65.6153 59.633C65.676 59.6579 65.7411 59.6706 65.8068 59.6703V59.6966ZM65.8468 58.912C65.909 58.909 65.9704 58.9277 66.0201 58.9648C66.0405 58.9815 66.0566 59.0028 66.067 59.0268C66.0775 59.0509 66.082 59.0771 66.0801 59.1032C66.0811 59.1251 66.0774 59.147 66.0694 59.1674C66.0614 59.1879 66.0491 59.2064 66.0335 59.2219C65.9948 59.2566 65.9455 59.2775 65.8935 59.2812L66.0868 59.4988H65.9335L65.7535 59.2812H65.6935V59.4988H65.5668V58.8922L65.8468 58.912ZM65.7001 59.0241V59.1824H65.8468C65.8729 59.19 65.9007 59.19 65.9268 59.1824C65.9315 59.1731 65.9339 59.163 65.9339 59.1527C65.9339 59.1424 65.9315 59.1322 65.9268 59.123C65.9315 59.1138 65.9339 59.1036 65.9339 59.0933C65.9339 59.083 65.9315 59.0729 65.9268 59.0637C65.9007 59.056 65.8729 59.056 65.8468 59.0637L65.7001 59.0241Z" fill="black"/>
<path d="M49.4269 5.1626H28.4269V42.4879H49.4269V5.1626Z" fill="#7673C0"/>
<path d="M29.7602 23.8304C29.7563 20.2352 30.5796 16.6862 32.1677 13.4523C33.7559 10.2184 36.0673 7.38421 38.9268 5.16446C35.3862 2.41252 31.1342 0.701245 26.6568 0.22623C22.1794 -0.248785 17.6571 0.531613 13.6069 2.47825C9.55671 4.42488 6.14197 7.45921 3.75295 11.2344C1.36393 15.0097 0.0970001 19.3735 0.0970001 23.8271C0.0970001 28.2807 1.36393 32.6445 3.75295 36.4198C6.14197 40.195 9.55671 43.2293 13.6069 45.1759C17.6571 47.1226 22.1794 47.903 26.6568 47.428C31.1342 46.9529 35.3862 45.2417 38.9268 42.4897C36.0682 40.2707 33.7573 37.4376 32.1692 34.2049C30.5811 30.9721 29.7573 27.4245 29.7602 23.8304V23.8304Z" fill="#EB001B"/>
<path d="M75.4667 38.532V37.7935H75.7801V37.6353H74.9867V37.7935H75.3001V38.5583L75.4667 38.532ZM77.0067 38.532V37.6089H76.7667L76.4867 38.2682L76.2067 37.6089H75.9601V38.532H76.1334V37.8397L76.3934 38.4397H76.5734L76.8334 37.8397V38.5386L77.0067 38.532Z" fill="#00A1DF"/>
<path d="M77.7535 23.8283C77.7524 28.2811 76.485 32.6438 74.0958 36.418C71.7067 40.1922 68.2924 43.2256 64.2428 45.1718C60.1933 47.1179 55.6719 47.8982 51.1953 47.4235C46.7186 46.9489 42.4673 45.2384 38.9269 42.4876C41.7844 40.2666 44.0946 37.4327 45.6831 34.1998C47.2717 30.9669 48.0971 27.4194 48.0971 23.825C48.0971 20.2305 47.2717 16.683 45.6831 13.4501C44.0946 10.2172 41.7844 7.38336 38.9269 5.16232C42.4672 2.40952 46.7192 0.697413 51.1969 0.221716C55.6746 -0.253981 60.1973 0.525927 64.248 2.47228C68.2988 4.41864 71.714 7.4529 74.1035 11.2282C76.4929 15.0036 77.7601 19.3677 77.7602 23.8217L77.7535 23.8283Z" fill="#00A1DF"/>
</svg>
