<svg width="78" height="60" viewBox="0 0 78 60" fill="none" xmlns="http://www.w3.org/2000/svg">
<path d="M14.2333 59.5129V55.5569C14.2566 55.2241 14.208 54.8903 14.0906 54.5777C13.9733 54.265 13.7899 53.9807 13.5527 53.7436C13.3155 53.5066 13.03 53.3222 12.7151 53.2028C12.4003 53.0835 12.0633 53.0318 11.7266 53.0514C11.286 53.0228 10.8457 53.1117 10.4517 53.3089C10.0577 53.5061 9.72439 53.8042 9.48665 54.1722C9.26993 53.8153 8.95985 53.5227 8.58908 53.3254C8.21832 53.1282 7.80061 53.0335 7.37998 53.0514C7.01333 53.033 6.64819 53.1098 6.32077 53.274C5.99334 53.4382 5.715 53.6842 5.51331 53.9876V53.2096H4.12665V59.5129H5.52665V56.0448C5.49687 55.8292 5.51561 55.6098 5.58152 55.4023C5.64743 55.1947 5.75889 55.0041 5.90793 54.8441C6.05697 54.6841 6.23992 54.5587 6.44368 54.4767C6.64744 54.3947 6.867 54.3583 7.08665 54.37C8.00665 54.37 8.47331 54.9634 8.47331 56.0316V59.5393H9.87331V56.0448C9.84475 55.8294 9.86435 55.6105 9.93071 55.4035C9.99707 55.1965 10.1086 55.0064 10.2574 54.8466C10.4062 54.6869 10.5886 54.5614 10.7918 54.4791C10.995 54.3967 11.214 54.3595 11.4333 54.37C12.38 54.37 12.8333 54.9634 12.8333 56.0316V59.5393L14.2333 59.5129ZM34.9466 53.2096H32.6666V51.2975H31.2667V53.2096H30V54.4623H31.2933V57.3634C31.2933 58.8272 31.8667 59.6975 33.5067 59.6975C34.1194 59.6995 34.7202 59.5304 35.24 59.2096L34.84 58.036C34.4681 58.2553 34.0461 58.3778 33.6133 58.392C32.9466 58.392 32.6933 57.97 32.6933 57.3371V54.4623H34.96L34.9466 53.2096ZM46.7733 53.0514C46.4352 53.0415 46.1007 53.1221 45.805 53.2845C45.5094 53.447 45.2635 53.6853 45.0933 53.9744V53.2096H43.72V59.5129H45.1067V55.9788C45.1067 54.9371 45.56 54.3569 46.44 54.3569C46.7366 54.3528 47.0311 54.4066 47.3067 54.5151L47.7333 53.1964C47.4166 53.0844 47.083 53.0264 46.7467 53.025L46.7733 53.0514ZM28.8933 53.7107C28.1084 53.2491 27.206 53.0203 26.2933 53.0514C24.68 53.0514 23.6266 53.8162 23.6266 55.0689C23.6266 56.0975 24.4 56.7305 25.8267 56.9283L26.4933 57.0206C27.2533 57.1261 27.6133 57.3239 27.6133 57.6799C27.6133 58.1678 27.1067 58.4448 26.16 58.4448C25.3985 58.4666 24.6518 58.2343 24.04 57.7854L23.3733 58.8536C24.1811 59.4114 25.1485 59.6979 26.1333 59.6711C27.9733 59.6711 29.04 58.814 29.04 57.614C29.04 56.414 28.2 55.9261 26.8133 55.7283L26.1466 55.636C25.5466 55.5569 25.0666 55.4382 25.0666 55.0162C25.0666 54.5942 25.52 54.2777 26.28 54.2777C26.9824 54.2858 27.671 54.472 28.28 54.8184L28.8933 53.7107ZM66.0333 53.0514C65.6952 53.0415 65.3607 53.1221 65.065 53.2845C64.7694 53.447 64.5235 53.6853 64.3533 53.9744V53.2096H62.98V59.5129H64.3667V55.9788C64.3667 54.9371 64.82 54.3569 65.7 54.3569C65.9966 54.3528 66.2911 54.4066 66.5667 54.5151L66.9933 53.1964C66.6766 53.0844 66.343 53.0264 66.0067 53.025L66.0333 53.0514ZM48.1667 56.3481C48.1502 56.791 48.2273 57.2325 48.3933 57.6443C48.5592 58.056 48.8102 58.429 49.1302 58.7393C49.4503 59.0496 49.8323 59.2904 50.2518 59.4463C50.6714 59.6023 51.1192 59.6698 51.5667 59.6448C52.3992 59.6867 53.2175 59.4185 53.86 58.8931L53.1933 57.7854C52.714 58.1469 52.1294 58.3458 51.5267 58.3525C51.0141 58.3114 50.5359 58.0811 50.1873 57.7073C49.8386 57.3334 49.645 56.8435 49.645 56.3349C49.645 55.8263 49.8386 55.3363 50.1873 54.9625C50.5359 54.5887 51.0141 54.3583 51.5267 54.3173C52.1294 54.3239 52.714 54.5228 53.1933 54.8843L53.86 53.7766C53.2175 53.2513 52.3992 52.9831 51.5667 53.025C51.1192 52.9999 50.6714 53.0675 50.2518 53.2234C49.8323 53.3793 49.4503 53.6201 49.1302 53.9305C48.8102 54.2408 48.5592 54.6137 48.3933 55.0255C48.2273 55.4373 48.1502 55.8787 48.1667 56.3217V56.3481ZM61.1533 56.3481V53.2096H59.7667V53.9744C59.5312 53.6748 59.227 53.4348 58.8792 53.2743C58.5315 53.1138 58.1501 53.0374 57.7667 53.0514C56.8826 53.0514 56.0347 53.3987 55.4096 54.0169C54.7845 54.6352 54.4333 55.4737 54.4333 56.3481C54.4333 57.2224 54.7845 58.0609 55.4096 58.6792C56.0347 59.2974 56.8826 59.6448 57.7667 59.6448C58.1501 59.6588 58.5315 59.5823 58.8792 59.4218C59.227 59.2613 59.5312 59.0214 59.7667 58.7217V59.4865H61.1533V56.3481ZM55.9933 56.3481C56.0154 55.977 56.1468 55.6205 56.3712 55.3224C56.5956 55.0242 56.9032 54.7975 57.2563 54.6701C57.6093 54.5427 57.9923 54.5202 58.3581 54.6054C58.7239 54.6905 59.0566 54.8797 59.3151 55.1494C59.5736 55.4192 59.7467 55.7579 59.813 56.1237C59.8794 56.4895 59.8361 56.8666 59.6886 57.2084C59.541 57.5502 59.2956 57.8419 58.9825 58.0475C58.6695 58.2531 58.3025 58.3637 57.9267 58.3656C57.6627 58.3689 57.4009 58.3182 57.1577 58.2166C56.9146 58.115 56.6953 57.9647 56.5137 57.7752C56.3321 57.5857 56.1921 57.361 56.1026 57.1154C56.013 56.8698 55.9758 56.6086 55.9933 56.3481V56.3481ZM39.26 53.0514C38.3759 53.0636 37.533 53.4227 36.9166 54.0496C36.3003 54.6765 35.9609 55.5199 35.9733 56.3942C35.9857 57.2686 36.3488 58.1022 36.9826 58.7118C37.6165 59.3214 38.4693 59.657 39.3533 59.6448C40.3125 59.6935 41.2557 59.388 42 58.7876L41.3333 57.7722C40.8069 58.1898 40.1547 58.4218 39.48 58.4316C39.0216 58.4706 38.566 58.3312 38.2099 58.043C37.8538 57.7549 37.6254 57.3408 37.5733 56.8887H42.3067C42.3067 56.7173 42.3067 56.5459 42.3067 56.3613C42.3067 54.3832 41.0666 53.0645 39.28 53.0645L39.26 53.0514ZM39.26 54.2777C39.4675 54.2734 39.6738 54.3095 39.8672 54.384C40.0606 54.4585 40.2373 54.57 40.3871 54.712C40.5369 54.8541 40.657 55.0239 40.7404 55.2119C40.8238 55.3998 40.869 55.6022 40.8733 55.8074H37.54C37.5641 55.3841 37.7549 54.9871 38.0714 54.7012C38.3878 54.4153 38.8049 54.2633 39.2333 54.2777H39.26ZM74 56.3613V50.6777H72.6667V53.9744C72.4312 53.6748 72.127 53.4348 71.7792 53.2743C71.4315 53.1138 71.0501 53.0374 70.6667 53.0514C69.7826 53.0514 68.9348 53.3987 68.3096 54.0169C67.6845 54.6352 67.3333 55.4737 67.3333 56.3481C67.3333 57.2224 67.6845 58.0609 68.3096 58.6792C68.9348 59.2974 69.7826 59.6448 70.6667 59.6448C71.0501 59.6588 71.4315 59.5823 71.7792 59.4218C72.127 59.2613 72.4312 59.0214 72.6667 58.7217V59.4865H74V56.3613ZM76.3133 58.5964C76.4 58.5954 76.4861 58.611 76.5667 58.6426C76.6432 58.6735 76.7133 58.7182 76.7733 58.7744C76.8319 58.8313 76.8794 58.8983 76.9133 58.9722C76.9471 59.0492 76.9645 59.1323 76.9645 59.2162C76.9645 59.3001 76.9471 59.3832 76.9133 59.4601C76.8794 59.534 76.8319 59.6011 76.7733 59.658C76.7133 59.7142 76.6432 59.7589 76.5667 59.7898C76.4868 59.8246 76.4006 59.8426 76.3133 59.8426C76.1869 59.8416 76.0634 59.8052 75.9572 59.7375C75.851 59.6698 75.7664 59.5736 75.7133 59.4601C75.6799 59.3831 75.6627 59.3001 75.6627 59.2162C75.6627 59.1323 75.6799 59.0493 75.7133 58.9722C75.7473 58.8983 75.7947 58.8313 75.8533 58.7744C75.9133 58.7182 75.9834 58.6735 76.06 58.6426C76.1468 58.6084 76.2399 58.5927 76.3333 58.5964H76.3133ZM76.3133 59.7107C76.3799 59.7111 76.4457 59.6976 76.5067 59.6711C76.564 59.6458 76.616 59.61 76.66 59.5656C76.7434 59.4757 76.7896 59.358 76.7896 59.236C76.7896 59.1139 76.7434 58.9963 76.66 58.9063C76.6161 58.8618 76.5641 58.826 76.5067 58.8008C76.4457 58.7745 76.3798 58.761 76.3133 58.7612C76.2469 58.7616 76.1811 58.775 76.12 58.8008C76.0601 58.8251 76.0057 58.861 75.96 58.9063C75.8766 58.9963 75.8303 59.1139 75.8303 59.236C75.8303 59.358 75.8766 59.4757 75.96 59.5656C76.0058 59.6108 76.0602 59.6467 76.12 59.6711C76.1872 59.6998 76.2601 59.7133 76.3333 59.7107H76.3133ZM76.3533 58.9261C76.4156 58.9231 76.4769 58.9418 76.5267 58.9788C76.5471 58.9955 76.5632 59.0168 76.5736 59.0409C76.584 59.065 76.5885 59.0912 76.5867 59.1173C76.5876 59.1392 76.584 59.1611 76.5759 59.1815C76.5679 59.2019 76.5557 59.2205 76.54 59.236C76.5013 59.2707 76.4521 59.2916 76.4 59.2953L76.5933 59.5129H76.44L76.26 59.2953H76.2V59.5129H76.0733V58.9327L76.3533 58.9261ZM76.2067 59.0382V59.1964H76.3533C76.3794 59.2041 76.4072 59.2041 76.4333 59.1964C76.438 59.1872 76.4404 59.177 76.4404 59.1667C76.4404 59.1564 76.438 59.1463 76.4333 59.1371C76.438 59.1279 76.4404 59.1177 76.4404 59.1074C76.4404 59.0971 76.438 59.0869 76.4333 59.0777C76.4072 59.07 76.3794 59.07 76.3533 59.0777L76.2067 59.0382ZM68.8733 56.3613C68.8954 55.9902 69.0268 55.6337 69.2512 55.3355C69.4756 55.0374 69.7832 54.8107 70.1363 54.6833C70.4893 54.5559 70.8723 54.5334 71.2381 54.6186C71.6039 54.7037 71.9366 54.8928 72.1951 55.1626C72.4536 55.4324 72.6267 55.771 72.693 56.1369C72.7594 56.5027 72.7161 56.8798 72.5686 57.2216C72.421 57.5634 72.1756 57.8551 71.8625 58.0607C71.5495 58.2663 71.1825 58.3769 70.8067 58.3788C70.5427 58.3821 70.2809 58.3314 70.0377 58.2298C69.7946 58.1281 69.5753 57.9778 69.3937 57.7883C69.2121 57.5988 69.0721 57.3742 68.9826 57.1286C68.893 56.883 68.8558 56.6218 68.8733 56.3613V56.3613ZM22.0533 56.3613V53.2096H20.6666V53.9744C20.4312 53.6748 20.127 53.4348 19.7792 53.2743C19.4315 53.1138 19.0501 53.0374 18.6666 53.0514C17.7826 53.0514 16.9347 53.3987 16.3096 54.0169C15.6845 54.6352 15.3333 55.4737 15.3333 56.3481C15.3333 57.2224 15.6845 58.0609 16.3096 58.6792C16.9347 59.2974 17.7826 59.6448 18.6666 59.6448C19.0501 59.6588 19.4315 59.5823 19.7792 59.4218C20.127 59.2613 20.4312 59.0214 20.6666 58.7217V59.4865H22.0533V56.3613ZM16.8933 56.3613C16.9154 55.9902 17.0468 55.6337 17.2712 55.3355C17.4956 55.0374 17.8032 54.8107 18.1563 54.6833C18.5093 54.5559 18.8923 54.5334 19.2581 54.6186C19.6239 54.7037 19.9566 54.8928 20.2151 55.1626C20.4736 55.4324 20.6467 55.771 20.713 56.1369C20.7794 56.5027 20.7361 56.8798 20.5886 57.2216C20.441 57.5634 20.1956 57.8551 19.8825 58.0607C19.5695 58.2663 19.2024 58.3769 18.8267 58.3788C18.5616 58.384 18.2983 58.3346 18.0536 58.2338C17.8088 58.133 17.5879 57.983 17.4049 57.7933C17.2218 57.6036 17.0807 57.3783 16.9903 57.1318C16.8999 56.8853 16.8624 56.6229 16.88 56.3613H16.8933Z" fill="black"/>
<path d="M49.4334 5.17627H28.4333V42.5015H49.4334V5.17627Z" fill="#FF5F00"/>
<path d="M29.7667 23.8441C29.7628 20.2489 30.5861 16.6999 32.1743 13.466C33.7624 10.232 36.0738 7.39788 38.9333 5.17813C35.3927 2.42619 31.1407 0.714916 26.6633 0.239901C22.1859 -0.235114 17.6636 0.545292 13.6134 2.49193C9.56321 4.43856 6.14846 7.47288 3.75944 11.2481C1.37042 15.0233 0.103516 19.3871 0.103516 23.8408C0.103516 28.2944 1.37042 32.6582 3.75944 36.4334C6.14846 40.2087 9.56321 43.243 13.6134 45.1896C17.6636 47.1363 22.1859 47.9167 26.6633 47.4416C31.1407 46.9666 35.3927 45.2554 38.9333 42.5034C36.0747 40.2844 33.7638 37.4513 32.1757 34.2185C30.5876 30.9858 29.7638 27.4382 29.7667 23.8441V23.8441Z" fill="#EB001B"/>
<path d="M77.7667 23.8424C77.7666 28.2964 76.4994 32.6605 74.11 36.4358C71.7205 40.2112 68.3053 43.2454 64.2546 45.1918C60.2038 47.1382 55.6812 47.9181 51.2034 47.4424C46.7257 46.9667 42.4737 45.2546 38.9334 42.5018C41.7909 40.2807 44.1011 37.4469 45.6896 34.214C47.2782 30.9811 48.1036 27.4336 48.1036 23.8391C48.1036 20.2447 47.2782 16.6972 45.6896 13.4643C44.1011 10.2314 41.7909 7.39751 38.9334 5.17648C42.4737 2.42368 46.7257 0.711574 51.2034 0.235877C55.6812 -0.23982 60.2038 0.540083 64.2546 2.48644C68.3053 4.4328 71.7205 7.46707 74.11 11.2424C76.4994 15.0178 77.7666 19.3819 77.7667 23.8358V23.8424Z" fill="#F79E1B"/>
<path d="M75.4734 38.5456V37.7808H75.7867V37.6226H74.9934V37.7808H75.3334V38.5456H75.4734ZM77.0134 38.5456V37.6226H76.7734L76.4934 38.2819L76.2134 37.6226H76.0001V38.5456H76.1734V37.8533L76.4334 38.4533H76.6134L76.8734 37.8533V38.5522L77.0134 38.5456Z" fill="#F79E1B"/>
</svg>
