<svg width="60" height="60" viewBox="0 0 60 60" fill="none" xmlns="http://www.w3.org/2000/svg">
<path d="M43.0658 4.17618C41.2783 2.08501 38.0471 1.18848 33.9136 1.18848H21.9168C21.0711 1.18848 20.3524 1.81977 20.22 2.67575L15.2248 35.193C15.1255 35.8342 15.6092 36.4151 16.2424 36.4151H23.6487L25.5089 24.3053L25.4512 24.6846C25.5836 23.8286 26.2969 23.1973 27.1416 23.1973H30.6611C37.5751 23.1973 42.9889 20.3148 44.5704 11.9764C44.6173 11.7298 44.6579 11.4898 44.6932 11.2552C44.4935 11.1467 44.4935 11.1467 44.6932 11.2552C45.1641 8.17329 44.6897 6.07555 43.0658 4.17618" fill="#003087"/>
<path d="M43.0658 4.17618C41.2783 2.08501 38.0471 1.18848 33.9136 1.18848H21.9168C21.0711 1.18848 20.3524 1.81977 20.22 2.67575L15.2248 35.193C15.1255 35.8342 15.6092 36.4151 16.2424 36.4151H23.6487L25.5089 24.3053L25.4512 24.6846C25.5836 23.8286 26.2969 23.1973 27.1416 23.1973H30.6611C37.5751 23.1973 42.9889 20.3148 44.5704 11.9764C44.6173 11.7298 44.6579 11.4898 44.6932 11.2552C44.4935 11.1467 44.4935 11.1467 44.6932 11.2552C45.1641 8.17329 44.6897 6.07555 43.0658 4.17618" fill="#003087"/>
<path d="M27.508 11.2958C27.587 10.7807 27.9095 10.3587 28.343 10.145C28.5406 10.0486 28.7605 9.99485 28.9912 9.99485H38.3965C39.5102 9.99485 40.5492 10.0694 41.4984 10.2261C41.7707 10.271 42.0345 10.3226 42.2908 10.3817C42.547 10.4398 42.7958 10.5056 43.0372 10.5779C43.1578 10.614 43.2764 10.6514 43.3927 10.6908C43.8594 10.8508 44.294 11.0371 44.6933 11.2553C45.1642 8.1722 44.6899 6.07555 43.066 4.17618C41.2774 2.08501 38.0473 1.18848 33.9138 1.18848H21.9159C21.0712 1.18848 20.3526 1.81977 20.2202 2.67575L15.225 35.1919C15.1257 35.8342 15.6094 36.414 16.2415 36.414H23.6489L25.5091 24.3042L27.508 11.2958V11.2958Z" fill="#002F86"/>
<path d="M44.6932 11.2559C44.6569 11.4915 44.6174 11.7304 44.5704 11.977C42.989 20.3143 37.5752 23.1979 30.6611 23.1979H27.1406C26.2959 23.1979 25.5826 23.8292 25.4513 24.6852L23.6488 36.4146L23.1374 39.742C23.0509 40.3032 23.4737 40.8117 24.0268 40.8117H30.2703C31.0093 40.8117 31.6382 40.2593 31.7535 39.5108L31.8144 39.1842L32.9912 31.5297L33.067 31.1066C33.1823 30.3581 33.8113 29.8057 34.5502 29.8057H35.4845C41.5326 29.8057 46.2684 27.2838 47.6522 19.9899C48.2299 16.9419 47.9309 14.397 46.4029 12.6094C45.9395 12.068 45.3639 11.6208 44.6933 11.2559" fill="#009CDE"/>
<path d="M43.0374 10.5782C42.796 10.5059 42.5472 10.4401 42.291 10.382C42.0347 10.3239 41.7699 10.2724 41.4987 10.2275C40.5483 10.0696 39.5104 9.99512 38.3956 9.99512H28.9914C28.7597 9.99512 28.5397 10.0489 28.3432 10.1464C27.9086 10.3601 27.5872 10.781 27.5082 11.2972L25.5093 24.3056L25.4516 24.6848C25.5829 23.8288 26.2962 23.1975 27.1409 23.1975H30.6614C37.5755 23.1975 42.9893 20.3151 44.5707 11.9767C44.6177 11.7301 44.6572 11.4912 44.6935 11.2555C44.2931 11.0385 43.8596 10.8511 43.393 10.6922C43.2766 10.6527 43.158 10.6143 43.0374 10.5782" fill="#012069"/>
<path d="M3.95267 51.1329L3.15844 55.8228H0L2.32727 42L7.15729 42.0095C8.65339 42.0095 9.82934 42.4367 10.6851 43.2911C11.5471 44.1456 11.9257 45.2532 11.8211 46.6139C11.7472 47.5443 11.4578 48.3513 10.953 49.0348C10.4481 49.7184 9.78009 50.2405 8.94892 50.6013C8.12391 50.962 7.19731 51.1424 6.16912 51.1424L3.95267 51.1329ZM4.38672 48.5601L6.28918 48.5791C7.08956 48.5601 7.70216 48.2943 8.12698 47.7816C8.5518 47.2627 8.72112 46.6266 8.63492 45.8734C8.58567 45.4873 8.44098 45.1835 8.20087 44.962C7.96691 44.7342 7.65599 44.6076 7.26811 44.5823L5.06089 44.5728L4.38672 48.5601Z" fill="#002F86"/>
<path d="M17.4268 55.8228C17.3406 55.5759 17.2975 55.2658 17.2975 54.8924C16.6141 55.6646 15.7984 56.038 14.8502 56.0127C13.9821 56 13.2618 55.7025 12.6892 55.1203C12.1166 54.538 11.8488 53.8323 11.8857 53.0032C11.9165 51.8892 12.369 51.0348 13.2433 50.4399C14.1176 49.8386 15.312 49.538 16.8266 49.538L17.8424 49.557L17.9532 48.9778L17.9902 48.4747C17.9656 47.8987 17.6854 47.6013 17.1498 47.5823C16.4848 47.5696 16.0754 47.9462 15.9215 48.712L12.8739 48.7215C12.9047 48.0316 13.1232 47.4335 13.5296 46.9272C13.9359 46.4146 14.487 46.0222 15.1827 45.75C15.8846 45.4715 16.6295 45.3418 17.4176 45.3608C18.1749 45.3797 18.8367 45.5443 19.4032 45.8544C19.9758 46.1582 20.4037 46.5854 20.6869 47.1361C20.9701 47.6804 21.0778 48.3101 21.0101 49.0253L20.262 53.8576L20.2159 54.4462C20.1912 54.9146 20.2497 55.3133 20.3913 55.6424L20.3821 55.8228H17.4268ZM15.6906 53.7532C16.3125 53.7785 16.8573 53.4968 17.3253 52.9082L17.63 51.2563L16.845 51.2468C16.3586 51.2595 15.94 51.4082 15.589 51.693C15.2381 51.9715 15.0318 52.3544 14.9703 52.8418C14.9395 53.1013 14.9857 53.3165 15.1088 53.4873C15.2381 53.6519 15.432 53.7405 15.6906 53.7532Z" fill="#002F86"/>
<path d="M26.0618 51.3038L28.6476 45.5506H32L26.1449 57.3608C25.7077 58.2911 25.2029 58.962 24.6303 59.3734C24.0639 59.7911 23.3866 60 22.5986 60C22.2476 60 21.8013 59.9304 21.2595 59.7911L21.4903 57.5032H21.8413C22.2168 57.5032 22.5462 57.4399 22.8294 57.3133C23.1127 57.193 23.3497 56.9557 23.5405 56.6013L23.9746 55.7468L22.3769 45.5506H25.5169L26.0618 51.3038Z" fill="#002F86"/>
<path d="M36.0569 51.3746L35.2417 55.8189H32L34.3886 42.7197L39.346 42.7287C40.8815 42.7287 42.0885 43.1336 42.9668 43.9433C43.8515 44.753 44.2401 45.8026 44.1327 47.0921C44.0569 47.9738 43.7599 48.7385 43.2417 49.3863C42.7235 50.034 42.0379 50.5289 41.1848 50.8707C40.3381 51.2126 39.387 51.3836 38.3318 51.3836L36.0569 51.3746ZM36.5024 48.9365L38.455 48.9544C39.2765 48.9365 39.9052 48.6845 40.3412 48.1987C40.7773 47.7069 40.951 47.1041 40.8626 46.3904C40.812 46.0245 40.6635 45.7366 40.4171 45.5267C40.1769 45.3108 39.8578 45.1908 39.4597 45.1668L37.1943 45.1578L36.5024 48.9365Z" fill="#009CDE"/>
<path d="M49.8863 55.8189C49.7978 55.585 49.7536 55.2911 49.7536 54.9372C49.0521 55.669 48.2149 56.0228 47.2417 55.9989C46.3507 55.9869 45.6114 55.705 45.0237 55.1532C44.436 54.6014 44.1611 53.9326 44.1991 53.1469C44.2306 52.0913 44.6951 51.2816 45.5924 50.7178C46.4897 50.148 47.7156 49.8631 49.2701 49.8631L50.3128 49.8811L50.4265 49.3323L50.4645 48.8555C50.4392 48.3097 50.1517 48.0278 49.6019 48.0098C48.9194 47.9978 48.4992 48.3547 48.3412 49.0804L45.2133 49.0894C45.2449 48.4356 45.4692 47.8688 45.8863 47.389C46.3033 46.9032 46.8689 46.5313 47.5829 46.2734C48.3033 46.0095 49.0679 45.8866 49.8768 45.9046C50.654 45.9226 51.3333 46.0785 51.9147 46.3724C52.5024 46.6603 52.9415 47.0651 53.2322 47.5869C53.5229 48.1028 53.6335 48.6995 53.564 49.3773L52.7962 53.9566L52.7488 54.5144C52.7235 54.9582 52.7836 55.3361 52.9289 55.648L52.9194 55.8189H49.8863ZM48.1043 53.8576C48.7425 53.8816 49.3017 53.6147 49.782 53.0569L50.0948 51.4915L49.2891 51.4825C48.7899 51.4945 48.3602 51.6355 48 51.9054C47.6398 52.1693 47.4281 52.5321 47.3649 52.994C47.3333 53.2399 47.3807 53.4438 47.5071 53.6057C47.6398 53.7617 47.8389 53.8456 48.1043 53.8576Z" fill="#009CDE"/>
<path d="M57.4787 55.8189H54.3507L56.872 42H60L57.4787 55.8189Z" fill="#009CDE"/>
</svg>
