<svg width="98" height="60" viewBox="0 0 98 60" fill="none" xmlns="http://www.w3.org/2000/svg">
<path d="M98 60H0V1.09627e-06H98V60Z" fill="white"/>
<path d="M1.63174 50.25H96.3651V58.437H1.63174V50.25V50.25Z" fill="#F7B600"/>
<path d="M1.63174 9.75977H96.3651V1.57365H1.63174V9.75977V9.75977Z" fill="#1A1F71"/>
<path d="M47.1159 17.1506L42.3683 38.5416H36.6262L41.3738 17.1506H47.1159ZM71.2713 30.9629L74.2949 22.9298L76.0317 30.9629H71.2713V30.9629ZM77.6809 38.5416H82.9897L78.3515 17.1506H73.4532C72.3484 17.1506 71.4202 17.7685 71.0082 18.7187L62.3923 38.5416H68.4221L69.618 35.3463H76.9849L77.6809 38.5416ZM62.6917 31.5576C62.7158 25.913 54.5939 25.5999 54.647 23.0776C54.6665 22.3111 55.4242 21.4946 57.083 21.286C57.9047 21.1837 60.1746 21.1019 62.7457 22.2437L63.7516 17.7051C62.37 17.2236 60.5924 16.7601 58.3811 16.7601C52.7047 16.7601 48.7116 19.6659 48.6799 23.8302C48.6427 26.9105 51.5319 28.6273 53.7047 29.6532C55.9428 30.7009 56.6933 31.3744 56.6828 32.3106C56.6669 33.7458 54.8957 34.3812 53.2487 34.4048C50.3609 34.449 48.6867 33.6527 47.3514 33.0531L46.3092 37.7422C47.6527 38.3356 50.1286 38.8512 52.6929 38.8774C58.7272 38.8774 62.674 36.0049 62.6917 31.5576ZM38.9106 17.1506L29.6078 38.5416H23.5381L18.9597 21.4697C18.6825 20.4206 18.4411 20.0345 17.5963 19.5911C16.2157 18.8683 13.9358 18.1922 11.9318 17.7715L12.067 17.1506H21.8385C23.0821 17.1506 24.2019 17.9486 24.4863 19.3305L26.9055 31.7098L32.8777 17.1506H38.9106Z" fill="#1A1F71"/>
<path d="M54.4646 44.4302H52.1316V46.5231H54.7413V47.1523H51.3453V41.346H54.6075V41.9752H52.1316V43.8097H54.4646V44.4302Z" fill="#1A1F71"/>
<path d="M55.9463 41.0364H56.7325V47.1523H55.9463V41.0364Z" fill="#1A1F71"/>
<path d="M61.022 44.6622C61.0311 44.1886 60.8165 43.4391 59.9317 43.4391C59.1273 43.4391 58.7875 44.137 58.7249 44.6622H61.022ZM58.7163 45.2049C58.7339 46.2303 59.4045 46.6523 60.1994 46.6523C60.7629 46.6523 61.1114 46.5574 61.3977 46.4372L61.5406 46.9798C61.2634 47.1001 60.7811 47.2466 60.0923 47.2466C58.7612 47.2466 57.9658 46.3939 57.9658 45.1362C57.9658 43.8786 58.7339 42.8964 59.9943 42.8964C61.4153 42.8964 61.7819 44.0854 61.7819 44.852C61.7819 45.0068 61.7729 45.1187 61.7547 45.2049H58.7163V45.2049Z" fill="#1A1F71"/>
<path d="M66.0613 47.0052C65.8557 47.1001 65.3997 47.2466 64.819 47.2466C63.5141 47.2466 62.6653 46.3939 62.6653 45.1187C62.6653 43.8353 63.5763 42.8964 64.9887 42.8964C65.4533 42.8964 65.8643 43.0079 66.0789 43.1203L65.9006 43.6975C65.7124 43.6026 65.4174 43.499 64.9887 43.499C63.9964 43.499 63.4606 44.214 63.4606 45.0759C63.4606 46.0405 64.104 46.6348 64.9619 46.6348C65.4088 46.6348 65.7037 46.5316 65.927 46.4367L66.0613 47.0052Z" fill="#1A1F71"/>
<path d="M68.2672 41.9833V42.9825H69.3928V43.5593H68.2672V45.8079C68.2672 46.3252 68.4192 46.6178 68.857 46.6178C69.0711 46.6178 69.1968 46.6007 69.313 46.5657L69.3488 47.1434C69.1968 47.195 68.9554 47.2466 68.6515 47.2466C68.2849 47.2466 67.99 47.1259 67.8026 46.9282C67.588 46.6952 67.4986 46.3252 67.4986 45.8341V43.5593H66.828V42.9825H67.4986V42.2072L68.2672 41.9833Z" fill="#1A1F71"/>
<path d="M70.4913 44.2837C70.4913 43.7926 70.4818 43.3706 70.4554 42.9828H71.1437L71.1796 43.8097H71.2059C71.4028 43.25 71.8851 42.8966 72.4123 42.8966C72.493 42.8966 72.5557 42.9054 72.6273 42.9137V43.6291C72.5466 43.6116 72.4667 43.6116 72.3587 43.6116C71.8052 43.6116 71.4114 44.0078 71.3043 44.5767C71.2866 44.6799 71.2776 44.8089 71.2776 44.93V47.1523H70.4913V44.2837Z" fill="#1A1F71"/>
<path d="M74.0381 45.0759C74.0381 45.9889 74.5744 46.6781 75.343 46.6781C76.0939 46.6781 76.6565 45.9972 76.6565 45.0584C76.6565 44.3521 76.2903 43.4644 75.3607 43.4644C74.4406 43.4644 74.0381 44.2918 74.0381 45.0759ZM77.4613 45.0326C77.4613 46.5745 76.3439 47.2466 75.3071 47.2466C74.1452 47.2466 73.2342 46.4192 73.2342 45.1017C73.2342 43.7146 74.1901 42.8964 75.3788 42.8964C76.6211 42.8964 77.4613 43.7662 77.4613 45.0326" fill="#1A1F71"/>
<path d="M78.6667 44.1114C78.6667 43.6724 78.6572 43.3278 78.6309 42.9832H79.3278L79.3727 43.6724H79.3904C79.605 43.2845 80.1054 42.897 80.8205 42.897C81.4189 42.897 82.3486 43.2416 82.3486 44.6711V47.1523H81.5623V44.749C81.5623 44.0773 81.3032 43.5171 80.5614 43.5171C80.0519 43.5171 79.6495 43.8705 79.507 44.2924C79.4707 44.3873 79.453 44.5163 79.453 44.6458V47.1523H78.6667V44.1114Z" fill="#1A1F71"/>
</svg>
